<?xml version="1.0" encoding="utf-8"?>
<!-- Generator: Adobe Illustrator 19.1.0, SVG Export Plug-In . SVG Version: 6.00 Build 0)  -->
<svg version="1.1" id="UM_LOGO" xmlns="http://www.w3.org/2000/svg" xmlns:xlink="http://www.w3.org/1999/xlink" x="0px" y="0px"
	 viewBox="0 0 562.2 183.5" style="enable-background:new 0 0 562.2 183.5;" xml:space="preserve">
<style type="text/css">
	/*.st0{fill:#BA0C2F;}*/
	.st0{fill:#FFF;}
</style>
<g>
	<path class="st0" d="M215.5,69.4h20.3v6.4h-27.4V31.5h7.1V69.4z"/>
	<path class="st0" d="M254.9,57.5h-16.5v-6h16.5V57.5z"/>
	<path class="st0" d="M299.4,57.9c0,11.8-7.8,18.7-18.1,18.7c-10.5,0-18.3-6.8-18.3-18.7V31.5h7.1v26.8c0,7.8,4.9,11.7,11.1,11.7
		c6.2,0,11-3.9,11-11.7V31.5h7.1V57.9z"/>
	<path class="st0" d="M337.8,55.2v20.6h-7V56.1c0-4.5-2.8-7.7-7.2-7.7c-4.4,0-7.5,3.2-7.5,7.7v19.7h-7V42.8h6.6v3.2
		c2.3-2.5,5.7-4,9.9-4C333.2,42.1,337.8,47.5,337.8,55.2z"/>
	<path class="st0" d="M355.7,30.6c0,2.6-2.2,4.6-4.8,4.6c-2.7,0-4.8-2-4.8-4.6s2.1-4.7,4.8-4.7C353.5,25.9,355.7,27.9,355.7,30.6z
		 M354.3,75.8h-7V42.8h7V75.8z"/>
	<path class="st0" d="M394.7,42.8l-15.9,33.7h-2.4l-16-33.7h7.5l9.7,21.8l9.6-21.8H394.7z"/>
	<path class="st0" d="M429.1,61.6h-24.6c0.9,5.4,5.1,8.7,10.7,8.7c3.8,0,6.8-1.5,9.6-3.9l3.4,4.8c-3.5,3.3-7.9,5.3-13.2,5.3
		c-10.2,0-17.7-7.4-17.7-17.2c0-9.7,7.4-17.2,17-17.2c8.8,0,15.2,6.4,15.2,15.1C429.7,59,429.4,60.7,429.1,61.6z M404.7,56.1h17.9
		c-0.1-5.2-4-8.1-8.5-8.1C409.6,48.1,405.8,51.2,404.7,56.1z"/>
	<path class="st0" d="M456.3,42.8v6.2h-2.1c-5.2,0-9.7,3-9.7,9.1v17.6h-7V42.8h6.6v4.3c2.3-3,5.8-4.6,9.6-4.6
		C454.8,42.5,455.6,42.6,456.3,42.8z"/>
	<path class="st0" d="M484.3,47.2l-3.8,4.4c-2.1-2.1-4.8-3.4-7.7-3.4c-2.6,0-4.5,1-4.5,3.2c0,1.8,1.3,2.7,4.4,3.9l3.2,1.3
		c6,2.5,9,5.1,9,9.9c0,6.6-5.6,10.1-12.2,10.1c-5.8,0-10.5-2.7-13.3-6.4l4-4.4c2.6,2.8,5.5,4.7,9.3,4.7c2.9,0,5.3-1.2,5.3-3.7
		c0-2.1-1.9-3-4.6-4.1l-3.4-1.4c-5.3-2.2-8.6-4.6-8.6-9.6c0-6.1,5.1-9.5,11.6-9.5C477.7,42.1,481.6,43.9,484.3,47.2z"/>
	<path class="st0" d="M501,30.6c0,2.6-2.2,4.6-4.8,4.6c-2.7,0-4.8-2-4.8-4.6s2.1-4.7,4.8-4.7C498.8,25.9,501,27.9,501,30.6z
		 M499.7,75.8h-7V42.8h7V75.8z"/>
	<path class="st0" d="M529.2,69.8v6c-1.8,0.4-3.6,0.7-5.8,0.7c-7.3,0-12.1-3.5-12.1-11.5V48.9h-5.4v-6.1h5.4v-8.7h7.1v8.7h9.8v6.1
		h-9.8v15.5c0,4.4,2.4,5.7,6.5,5.7C526,70.1,527.4,70,529.2,69.8z"/>
	<path class="st0" d="M562.2,55.9v19.9h-6.6v-3.7c-2.3,2.8-6,4.4-10.5,4.4c-6.9,0-11.5-3.8-11.5-9.5c0-5.8,4.8-9.4,12.1-9.4h9.3
		v-2.1c0-4.6-2.6-7-7-7c-3.8,0-6.5,1.8-9.1,4.9l-4.1-4.2c3.4-4.8,8.3-7,13.9-7C556.6,42.1,562.2,46.7,562.2,55.9z M546.1,37.7
		l-7.3-10.3v-1.3h8.2l4.3,11.6H546.1z M555.1,63.3v-0.6h-8.5c-3.8,0-5.8,1.3-5.8,4c0,2.9,2.6,4.4,5.8,4.4
		C551.2,71.1,555.1,67.8,555.1,63.3z"/>
	<path class="st0" d="M227.5,134.9v6c-1.8,0.4-3.6,0.7-5.8,0.7c-7.3,0-12.1-3.5-12.1-11.5V114h-5.4v-6.1h5.4v-8.7h7.1v8.7h9.8v6.1
		h-9.8v15.5c0,4.4,2.4,5.7,6.5,5.7C224.4,135.2,225.8,135.1,227.5,134.9z"/>
	<path class="st0" d="M260.5,120.9v19.9h-6.6v-3.7c-2.3,2.8-6,4.4-10.5,4.4c-6.9,0-11.5-3.8-11.5-9.5c0-5.8,4.8-9.4,12.1-9.4h9.3
		v-2.1c0-4.6-2.5-7-7-7c-3.8,0-6.5,1.8-9.1,4.9l-4.1-4.2c3.4-4.8,8.3-7,13.9-7C255,107.2,260.5,111.8,260.5,120.9z M253.4,128.4
		v-0.6H245c-3.8,0-5.8,1.3-5.8,4c0,2.9,2.6,4.4,5.8,4.4C249.5,136.2,253.4,132.9,253.4,128.4z"/>
	<path class="st0" d="M275.7,114.6h-5.4l0.6-18h8.1L275.7,114.6z"/>
	<path class="st0" d="M349.7,95.8v45h-7.1v-27.8l-12.7,16.6h-2.4L314.7,113v27.8h-7.1v-45h2.5l18.6,24.8l18.6-24.8H349.7z"/>
	<path class="st0" d="M385.9,120.9v19.9h-6.6v-3.7c-2.3,2.8-6,4.4-10.5,4.4c-6.9,0-11.5-3.8-11.5-9.5c0-5.8,4.8-9.4,12.1-9.4h9.3
		v-2.1c0-4.6-2.6-7-7-7c-3.8,0-6.5,1.8-9.1,4.9l-4.1-4.2c3.4-4.8,8.3-7,13.9-7C380.4,107.2,385.9,111.8,385.9,120.9z M378.8,128.4
		v-0.6h-8.5c-3.8,0-5.8,1.3-5.8,4c0,2.9,2.6,4.4,5.8,4.4C374.9,136.2,378.8,132.9,378.8,128.4z"/>
	<path class="st0" d="M402.5,140.9h-7V90.5h7V140.9z"/>
	<path class="st0" d="M432,134.9v6c-1.8,0.4-3.6,0.7-5.8,0.7c-7.3,0-12.1-3.5-12.1-11.5V114h-5.4v-6.1h5.4v-8.7h7.1v8.7h9.8v6.1
		h-9.8v15.5c0,4.4,2.4,5.7,6.5,5.7C428.9,135.2,430.3,135.1,432,134.9z"/>
	<path class="st0" d="M465,120.9v19.9h-6.6v-3.7c-2.3,2.8-6,4.4-10.5,4.4c-6.9,0-11.5-3.8-11.5-9.5c0-5.8,4.8-9.4,12.1-9.4h9.3v-2.1
		c0-4.6-2.6-7-7-7c-3.8,0-6.5,1.8-9.1,4.9l-4.1-4.2c3.4-4.8,8.3-7,13.9-7C459.5,107.2,465,111.8,465,120.9z M457.9,128.4v-0.6h-8.5
		c-3.8,0-5.8,1.3-5.8,4c0,2.9,2.6,4.4,5.8,4.4C454,136.2,457.9,132.9,457.9,128.4z"/>
</g>
<path class="st0" d="M83.6,86.2V72.9c0-0.1,0.1-0.1,0.1-0.1l60.3,0c0.1,0,0.1,0,0.1,0.1c1.5,5.6,4.9,11.4,8.2,15.1c0,0,0,0.1,0,0.1
	c-0.2,0.6-2.7,7-3.3,8.6c0,0,0,0,0,0.1c2.9,6,6.7,18,4.7,29c-2.3,12.6-4.6,16.1-11.7,20.5c-5.6,3.5-10.7,5-15.7,4.4
	c-6.7-0.8-8.2-4.4-18.5,0.3c-3.2,1.5-3.7,1.6-8.5,3.7c-4.2,1.8-7.4,3.5-11.4,6.6c-1,0.8-2.6,2.2-3.7,3.3c-0.3,0.3-0.8,0.1-0.8-0.4
	l0-24.1c0.1-0.1,6.8-6.8,16.4-3.5c21,7.3,25.9,4.8,25.9,4.8c0-4.6,0.1-48.7,0-48.7c-1.1,0.3-9.5,0.3-23-7.1
	c-6.6-3.6-14.4,0.6-18.4,3c-0.5,0-0.7-0.1-1-0.1L83.6,86.2z"/>
<path class="st0" d="M40.4,146c-1.6,0-3.1-0.1-4.3-0.4l-1.5-0.4V88.9l2.3,0.3c0.1,0,8.2,0.8,24.2-7.1c10.6-5.2,23.1,3.4,23.7,3.8
	l0,0.6l0,58.6l-0.2-0.8l-2.1-1.6c-0.3-0.2-7.1-5.2-16.9-1.8C57.8,143.4,47.6,146,40.4,146z M38.6,141.9c5.3,0.5,15.2-1.4,25.5-4.9
	c7.7-2.7,13.9-1,17.5,0.6l0-49c-2.7-1.7-11.6-6.4-18.7-2.9c-12.5,6.2-20.6,7.4-24.3,7.5V141.9z"/>
<rect x="83.6" y="58.8" class="st0" width="29.3" height="12.1"/>
<rect x="83.6" y="42.8" class="st0" width="29.3" height="10.2"/>
<rect x="53.4" y="32.5" class="st0" width="30.2" height="10.2"/>
<path class="st0" d="M83.6,26.8H53.4V16.1c0,0,2.8-1.4,5.5-2.7c3.5-1.7,6.1-3.1,8.4-3.3c1.9-0.1,5.4,0.6,6.4,0.8
	c2.7,0.6,9.8,0.9,9.8,0.9L83.6,26.8z"/>
<path class="st0" d="M47.8,26.8H14.5l5.7-8.8c0,0,7,3.2,13.9,3c8-0.2,13.6-2.7,13.6-2.7V26.8z"/>
<path class="st0" d="M47.8,42.8H22.9c0,0-1-2.8-2.1-4.8c-1.5-2.8-3.7-5.5-3.7-5.5h30.7V42.8z"/>
<path class="st0" d="M142.1,53h-23.3V42.8h25.4c0,0-0.9,2.7-1.4,5.1C142.3,50.1,142.1,53,142.1,53z"/>
<path class="st0" d="M143.2,70.9h-24.4V58.8H142c0,0-0.1,1.7,0.4,6.4C142.8,69.8,143.2,70.9,143.2,70.9z"/>
<path class="st0" d="M110.2,28.4c0-1.8,0.9-3.4,2.3-4.4c-0.3,0.5-0.5,1.1-0.5,1.8c0,2.2,1.8,3.9,4.1,3.9c2.3,0,4.1-1.7,4.1-3.9
	c0-0.6-0.2-1.2-0.5-1.8c1.4,1,2.3,2.6,2.3,4.4c0,3.1-2.7,5.6-5.9,5.6C112.8,34.1,110.2,31.5,110.2,28.4z"/>
<path class="st0" d="M92.2,18.5c0-1.3,0.7-2.5,1.7-3.3c-0.2,0.4-0.3,0.9-0.3,1.3c0,1.6,1.4,2.9,3.1,2.9s3.1-1.3,3.1-2.9
	c0-0.5-0.1-0.9-0.3-1.3c1,0.8,1.7,2,1.7,3.3c0,2.3-2,4.2-4.5,4.2C94.2,22.7,92.2,20.8,92.2,18.5z"/>
<path class="st0" d="M92.2,36.2c0-1.3,0.7-2.5,1.7-3.3c-0.2,0.4-0.3,0.9-0.3,1.3c0,1.6,1.4,2.9,3.1,2.9s3.1-1.3,3.1-2.9
	c0-0.5-0.1-0.9-0.3-1.3c1,0.8,1.7,2,1.7,3.3c0,2.3-2,4.2-4.5,4.2C94.2,40.4,92.2,38.5,92.2,36.2z"/>
<path class="st0" d="M131.4,23.8c0-1.3,0.7-2.5,1.7-3.3c-0.2,0.4-0.3,0.9-0.3,1.3c0,1.6,1.4,2.9,3.1,2.9c1.7,0,3.1-1.3,3.1-2.9
	c0-0.5-0.1-0.9-0.3-1.3c1,0.8,1.7,2,1.7,3.3c0,2.3-2,4.2-4.5,4.2C133.4,28,131.4,26.1,131.4,23.8z"/>
<path class="st0" d="M131.4,36.2c0-1.3,0.7-2.5,1.7-3.3c-0.2,0.4-0.3,0.9-0.3,1.3c0,1.6,1.4,2.9,3.1,2.9c1.7,0,3.1-1.3,3.1-2.9
	c0-0.5-0.1-0.9-0.3-1.3c1,0.8,1.7,2,1.7,3.3c0,2.3-2,4.2-4.5,4.2C133.4,40.4,131.4,38.5,131.4,36.2z"/>
<path class="st0" d="M44.9,55.2c0-1.8,0.9-3.4,2.3-4.4c-0.3,0.5-0.5,1.1-0.5,1.8c0,2.2,1.8,3.9,4.1,3.9c2.3,0,4.1-1.7,4.1-3.9
	c0-0.6-0.2-1.2-0.5-1.8c1.4,1,2.3,2.6,2.3,4.4c0,3.1-2.7,5.6-5.9,5.6S44.9,58.3,44.9,55.2z"/>
<path class="st0" d="M26.9,49.1c0-1.3,0.7-2.5,1.7-3.3c-0.2,0.4-0.3,0.9-0.3,1.3c0,1.6,1.4,2.9,3.1,2.9s3.1-1.3,3.1-2.9
	c0-0.5-0.1-0.9-0.3-1.3c1,0.8,1.7,2,1.7,3.3c0,2.3-2,4.2-4.5,4.2C28.9,53.3,26.9,51.4,26.9,49.1z"/>
<path class="st0" d="M26.9,61.5c0-1.3,0.7-2.5,1.7-3.3c-0.2,0.4-0.3,0.9-0.3,1.3c0,1.6,1.4,2.9,3.1,2.9s3.1-1.3,3.1-2.9
	c0-0.5-0.1-0.9-0.3-1.3c1,0.8,1.7,2,1.7,3.3c0,2.3-2,4.2-4.5,4.2C28.9,65.7,26.9,63.9,26.9,61.5z"/>
<path class="st0" d="M66.2,49.1c0-1.3,0.7-2.5,1.7-3.3c-0.2,0.4-0.3,0.9-0.3,1.3c0,1.6,1.4,2.9,3.1,2.9s3.1-1.3,3.1-2.9
	c0-0.5-0.1-0.9-0.3-1.3c1,0.8,1.7,2,1.7,3.3c0,2.3-2,4.2-4.5,4.2C68.2,53.3,66.2,51.4,66.2,49.1z"/>
<path class="st0" d="M66.2,61.5c0-1.3,0.7-2.5,1.7-3.3c-0.2,0.4-0.3,0.9-0.3,1.3c0,1.6,1.4,2.9,3.1,2.9s3.1-1.3,3.1-2.9
	c0-0.5-0.1-0.9-0.3-1.3c1,0.8,1.7,2,1.7,3.3c0,2.3-2,4.2-4.5,4.2C68.2,65.7,66.2,63.9,66.2,61.5z"/>
<polygon class="st0" points="22.9,72.8 83.6,72.8 83.6,70.9 23.8,70.9 "/>
<path class="st0" d="M83.6,183.5c3.5-10,13.4-16.4,16.9-18.2c3.1-1.6,15.3-6.6,16-6.7c0.7-0.1,4.1,1.3,6.6,1.8
	c15.6,2.7,27-6.1,32.3-11.5c7.6-7.7,10.3-21.2,9.2-34.5c-1-9.2-3.5-15.3-4.4-17.8c0-0.1,0-0.2,0-0.4l3.6-9.5l0.7-1.9c0,0,0,0,0,0
	l-1.8-1.1c0,0-2.6-1.8-5.3-5.8c-3.2-4.8-5.1-7.9-5.6-24.3c0.6-10.3,7.1-16.8,10.6-18.7c2.6-1.2,5.7-2.5,4.3-4.9
	C163.9,26,152.2,8,152.2,8s-2.2-4-6.5-0.7c0,0,0,0,0,0c-2.8,1.8-8.6,4.5-15.3,3.6c-6.6-0.9-13.2-4.2-18.3-6.8
	c-0.4-0.2-0.7-0.4-1.1-0.6c-2.6-1.3-7.2-3.5-10.9-3.5c-2,0-2.5,1.1-8.6,1.3c-3.9,0.1-4.4,0.3-7.6,0.4l-0.3,0l-0.3,0
	c-3.2-0.1-3.8-0.2-7.6-0.4C69.5,1.1,69,0,67,0c-3.6,0-8.3,2.2-10.9,3.5c-0.4,0.2-0.7,0.4-1.1,0.6C50,6.7,43.3,10,36.8,10.9
	c-6.7,0.9-12.4-1.8-15.3-3.6c0,0,0,0,0,0C17.2,4,14.9,8,14.9,8S3.2,26,0.4,30.1c-1.5,2.4,1.7,3.7,4.3,4.9c3.6,1.9,10,8.5,10.6,18.7
	C14.8,70.1,12.9,73.2,9.7,78c-2.7,4-5.2,5.8-5.3,5.8l-1.8,1.1c0,0,0,0,0,0l0.7,1.9L7,96.3c0,0.1,0,0.2,0,0.4
	c-1,2.5-3.5,8.6-4.4,17.8c-1.1,13.2,1.6,26.7,9.2,34.5c5.3,5.3,16.7,14.2,32.3,11.5c2.5-0.5,5.9-1.9,6.6-1.8
	c0.7,0.1,12.8,5.1,16,6.7C70.2,167.1,80.1,173.5,83.6,183.5z M83.6,6.7c0,0,4.1-0.1,8.4-0.7c4.3-0.6,7.3-1.1,8.5-0.9
	c1.2,0.2,1.8,0.3,3.6,1c1.8,0.7,5.1,2.2,5.7,2.5c5.4,2.8,12.6,6.3,20,7.3c8.4,1.2,15.4-2.2,18.8-4.4l12.3,18.7
	c-1.6,0.8-3.6,2.1-5.5,4c-3.8,3.7-8.3,10.7-8.2,22.8c0.1,18,7.8,26.7,11.3,29.8l-3,7.9l-0.7,1.9c0,0,4.5,10.5,4.9,18.6
	c0.3,8.1-1.4,16.8-2.9,21.1c-1.5,4.3-4.4,10.7-15.1,16.2c0,0-8.3,4.3-15.3,3.3c-0.7-0.1-1.3-0.3-2-0.4c-0.5-0.1-1-0.2-1.6-0.3
	c-0.4-0.1-0.8-0.2-1.2-0.3c-0.3-0.1-0.6-0.1-0.9-0.2c-0.2-0.1-0.4-0.1-0.6-0.2c-3.2-1.1-6.3-0.2-6.9,0.1c-0.3,0.2-10.8,4.3-14.7,6.4
	c-2.1,1.1-11.9,6.7-14.2,12.2c-0.1,0.2-0.2,0.3-0.4,0.3h-0.2c-0.2,0-0.3-0.1-0.4-0.3c-2.3-5.5-12.1-11.1-14.2-12.2
	c-3.9-2.1-14.3-6.2-14.7-6.4c-0.6-0.3-3.6-1.2-6.9-0.1c-0.2,0.1-0.4,0.1-0.6,0.2c-0.3,0.1-0.6,0.2-0.9,0.2c-0.4,0.1-0.8,0.2-1.2,0.3
	c-0.5,0.1-1,0.2-1.6,0.3c-0.7,0.1-1.3,0.3-2,0.4c-7,1.1-15.3-3.3-15.3-3.3C14.9,147,12,140.6,10.5,136.3c-1.5-4.3-3.2-13-2.9-21.1
	c0.3-8.1,4.9-18.6,4.9-18.6l-0.7-1.9l-3-7.9c3.5-3,11.2-11.7,11.3-29.8c0.1-12.1-4.4-19.1-8.2-22.8c-2-1.9-3.9-3.2-5.5-4l12.3-18.7
	c3.4,2.2,10.4,5.5,18.8,4.4c7.4-1,14.5-4.5,20-7.3c0.5-0.3,3.9-1.8,5.7-2.5c1.8-0.7,2.4-0.8,3.6-1c1.2-0.2,4.3,0.3,8.5,0.9
	C79.4,6.6,83.6,6.7,83.6,6.7z"/>
</svg>
