<svg xmlns="http://www.w3.org/2000/svg" width="3.455mm" height="3.048mm" viewBox="0 0 9.795 8.64">
  <title>artstation_1</title>
  <g>
    <path d="M8.8,8.62,3.853.009C3.9.006,3.933,0,3.966,0H5.521a.985.985,0,0,1,.91.53q1.605,2.81,3.213,5.618a.961.961,0,0,1,.021,1c-.266.482-.549.955-.824,1.431A.265.265,0,0,1,8.8,8.62Z"/>
    <path d="M0,6.663H.143q2.9,0,5.8,0a.188.188,0,0,1,.193.109c.33.582.667,1.161,1,1.741l.065.12c-.044,0-.078.009-.112.009H1.735a.981.981,0,0,1-.9-.526Q.454,7.451.07,6.79C.05,6.755.031,6.72,0,6.663Z"/>
    <path d="M.811,5.246,3.032,1.4,5.254,5.246Z"/>
  </g>
</svg>
