<svg xmlns="http://www.w3.org/2000/svg" width="4.627mm" height="2.892mm" viewBox="0 0 13.115 8.198">
  <title>behance</title>
  <g>
    <path d="M6.757,5.818A1.973,1.973,0,0,0,5.284,3.743a1.756,1.756,0,0,0,1.1-1.712C6.386.4,5.188,0,3.806,0H0V8.2H3.912c1.467,0,2.845-.714,2.845-2.38ZM1.774,1.373H3.439c.64,0,1.216.18,1.216.92,0,.683-.448.958-1.082.958h-1.8Zm0,5.306V4.464H3.707c.781,0,1.275.324,1.275,1.148S4.393,6.679,3.671,6.679Z" fill="#010101"/>
    <path d="M10.273,8.2a2.6,2.6,0,0,0,2.735-1.959H11.591A1.329,1.329,0,0,1,10.323,7,1.319,1.319,0,0,1,8.888,5.516H13.1c.134-1.868-.907-3.46-2.831-3.46a2.932,2.932,0,0,0-2.99,3.083A2.843,2.843,0,0,0,10.273,8.2Zm-.05-4.933A1.194,1.194,0,0,1,11.5,4.51H8.89a1.254,1.254,0,0,1,1.333-1.245Z" fill="#010101"/>
    <path d="M8.563.422h3.272v.793H8.563Z" fill="#010101"/>
  </g>
</svg>
