<svg xmlns="http://www.w3.org/2000/svg" width="3.528mm" height="3.528mm" viewBox="0 0 10 10">
  <title>instagram</title>
  <g>
    <path d="M5,0C3.642,0,3.472.006,2.939.03A3.648,3.648,0,0,0,1.725.263,2.438,2.438,0,0,0,.839.839a2.454,2.454,0,0,0-.577.886A3.677,3.677,0,0,0,.03,2.939C.006,3.472,0,3.642,0,5S.006,6.528.03,7.061A3.677,3.677,0,0,0,.262,8.275a2.454,2.454,0,0,0,.577.886,2.454,2.454,0,0,0,.886.577,3.677,3.677,0,0,0,1.214.232c.533.024.7.03,2.061.03s1.528-.006,2.061-.03a3.677,3.677,0,0,0,1.214-.232A2.558,2.558,0,0,0,9.738,8.275,3.677,3.677,0,0,0,9.97,7.061c.024-.533.03-.7.03-2.061s-.006-1.528-.03-2.061a3.677,3.677,0,0,0-.232-1.214A2.454,2.454,0,0,0,9.161.839,2.438,2.438,0,0,0,8.275.263,3.648,3.648,0,0,0,7.061.03C6.528.006,6.358,0,5,0ZM5,.9C6.335.9,6.493.906,7.02.93a2.774,2.774,0,0,1,.929.172,1.556,1.556,0,0,1,.575.374,1.556,1.556,0,0,1,.374.575,2.774,2.774,0,0,1,.172.929c.024.527.029.685.029,2.02S9.094,6.493,9.07,7.02a2.774,2.774,0,0,1-.172.929,1.655,1.655,0,0,1-.949.949,2.774,2.774,0,0,1-.929.172C6.493,9.094,6.335,9.1,5,9.1S3.507,9.094,2.98,9.07A2.774,2.774,0,0,1,2.051,8.9a1.556,1.556,0,0,1-.575-.374A1.556,1.556,0,0,1,1.1,7.949,2.774,2.774,0,0,1,.93,7.02C.906,6.493.9,6.335.9,5S.906,3.507.93,2.98A2.774,2.774,0,0,1,1.1,2.051a1.556,1.556,0,0,1,.374-.575A1.556,1.556,0,0,1,2.051,1.1,2.774,2.774,0,0,1,2.98.93C3.507.906,3.665.9,5,.9Z" fill="#010101"/>
    <path d="M5,6.667A1.667,1.667,0,1,1,6.667,5,1.668,1.668,0,0,1,5,6.667ZM5,2.432A2.568,2.568,0,1,0,7.568,5,2.568,2.568,0,0,0,5,2.432Z" fill="#030404"/>
    <path d="M8.269,2.331a.6.6,0,1,1-.6-.6A.6.6,0,0,1,8.269,2.331Z" fill="#030404"/>
  </g>
</svg>
