<?xml version="1.0" encoding="utf-8"?>
<!-- Generator: Adobe Illustrator 24.0.2, SVG Export Plug-In . SVG Version: 6.00 Build 0)  -->
<svg version="1.1" id="Layer_1" xmlns="http://www.w3.org/2000/svg" xmlns:xlink="http://www.w3.org/1999/xlink" x="0px" y="0px"
	 width="10px" height="10px" viewBox="0 0 10 10" style="enable-background:new 0 0 10 10;" xml:space="preserve">
<style type="text/css">
	.st0{fill:#010101;}
</style>
<path class="st0" d="M8.5,0.6C7.2,0.6,6.2,1.4,5.7,3C6,2.9,6.2,2.8,6.5,2.8c0.5,0,0.7,0.3,0.7,0.9c0,0.3-0.3,0.9-0.7,1.5
	c-0.4,0.7-0.7,1-0.9,1c-0.6,0-1-3-1.1-3.9C4.2,1.2,3.7,0.7,2.9,0.8C2.2,0.8,1,2.1,0,3l0.5,0.6c0.4-0.3,0.7-0.5,0.8-0.5
	C2,3.1,2.4,5.8,3,7.7c0.4,1.1,0.9,1.6,1.5,1.6c0.9,0,2.1-0.9,3.5-2.7c1.3-1.7,2-3.1,2-4l0,0C10.1,1.3,9.6,0.7,8.5,0.6L8.5,0.6z"/>
</svg>
