<svg xmlns="http://www.w3.org/2000/svg" width="3.906mm" height="2.766mm" viewBox="0 0 11.071 7.842">
  <title>youtube</title>
  <path d="M10.826,1.12l.014.091A1.4,1.4,0,0,0,9.886.237l-.01,0A32.854,32.854,0,0,0,5.54,0,32.067,32.067,0,0,0,1.2.234,1.406,1.406,0,0,0,.243,1.2l0,.01A15.42,15.42,0,0,0,.255,6.722L.241,6.63a1.406,1.406,0,0,0,.954.975l.01,0a32.708,32.708,0,0,0,4.336.235,32.792,32.792,0,0,0,4.336-.235,1.406,1.406,0,0,0,.961-.967l0-.01a14.385,14.385,0,0,0,.231-2.6c0-.034,0-.068,0-.1s0-.069,0-.106a14.89,14.89,0,0,0-.245-2.7ZM4.432,5.605V2.241l2.89,1.684Z" fill="#010101"/>
</svg>
