<svg id="Layer_1" data-name="Layer 1" xmlns="http://www.w3.org/2000/svg" viewBox="0 0 257.56 256.81"><defs><style>.cls-1{fill:#010101;}</style></defs><title>logo</title><path class="cls-1" d="M143.28,122.81h48.6c7.18,0,13.29-4.82,13.29-12V15.2C205.17,8,198.06-.92,190.88.08H.17L0,244.06c0,7.18,4.82,12.75,12,12.75H96.32V186.43a2.4,2.4,0,0,1,2.4-2.41h5.64a2.41,2.41,0,0,1,2.41,2.41l.4,70.38h98V134.05H142.28a2.41,2.41,0,0,1-2.41-2.41v-5.42A3.42,3.42,0,0,1,143.28,122.81ZM107.49,65.89A5.51,5.51,0,1,1,101,59.42,5.5,5.5,0,0,1,107.49,65.89Z"/><path class="cls-1" d="M257.05,239.41,247.4,246v7h9.65v3.77H228.47V244.39a8.94,8.94,0,0,1,2.71-6.65,9.3,9.3,0,0,1,6.77-2.67,9.44,9.44,0,0,1,5.71,1.79,8.93,8.93,0,0,1,3.32,4.71l10.07-6.81ZM233.52,253h8.82v-8.52a6.14,6.14,0,0,0-1.23-4A3.83,3.83,0,0,0,238,239a3.93,3.93,0,0,0-3.21,1.54,6.26,6.26,0,0,0-1.22,4Z"/><path class="cls-1" d="M252,226.89V211h5.06v19.66H228.47V211.19h5.05v15.7h6.72V212.51h4.88v14.38Z"/><path class="cls-1" d="M228.47,186.22h5.05v9.12h23.53v3.79H233.52v9.12h-5.05Z"/><path class="cls-1" d="M257.05,164.75l-9.65,6.61v7h9.65v3.78H228.47V169.73a9,9,0,0,1,2.71-6.65,9.29,9.29,0,0,1,6.77-2.66,9.44,9.44,0,0,1,5.71,1.78,9,9,0,0,1,3.32,4.71l10.07-6.81Zm-23.53,13.63h8.82v-8.51a6.15,6.15,0,0,0-1.23-4,3.83,3.83,0,0,0-3.16-1.54,3.93,3.93,0,0,0-3.21,1.54,6.27,6.27,0,0,0-1.22,4Z"/><path class="cls-1" d="M257.56,143.09a13.83,13.83,0,0,1-4.25,10.32,15.48,15.48,0,0,1-21.1,0,14.64,14.64,0,0,1,0-20.63,15.51,15.51,0,0,1,21.1,0A13.83,13.83,0,0,1,257.56,143.09Zm-5.18,0a10.67,10.67,0,0,0-2.75-7.51,9.41,9.41,0,0,0-13.76,0,11.68,11.68,0,0,0,0,15,9.35,9.35,0,0,0,13.76,0A10.63,10.63,0,0,0,252.38,143.09Z"/><path class="cls-1" d="M255,122.59a7.89,7.89,0,0,1-6.37,3.15v-3.93q1.73,0,2.91-2.1a11.87,11.87,0,0,0,.18-10,3,3,0,0,0-2.59-1.95c-1.31,0-2.33,1-3,2.86-.33.94-.57,1.77-.75,2.49s-.34,1.65-.53,2.78a13.91,13.91,0,0,1-2.89,6.75,6.92,6.92,0,0,1-5.56,2.53,7.44,7.44,0,0,1-6.11-3,11.38,11.38,0,0,1-2.35-7.33,11.51,11.51,0,0,1,2.47-7.51,7.55,7.55,0,0,1,6.07-3v3.93a3.1,3.1,0,0,0-2.65,1.9,9.81,9.81,0,0,0-1.07,4.79,9.46,9.46,0,0,0,.93,4.45,2.76,2.76,0,0,0,2.46,1.81c1.91,0,3.26-2.53,4.07-7.57q1.69-9.82,8.48-9.84a7.8,7.8,0,0,1,6.39,3.1,13.44,13.44,0,0,1-.1,15.61Z"/><path class="cls-1" d="M228.47,87.12a9,9,0,0,1,2.71-6.65,9.91,9.91,0,0,1,13.51,0,9,9,0,0,1,2.71,6.65v8.65h9.65v3.78H228.47Zm13.87.14a6.15,6.15,0,0,0-1.23-4A3.83,3.83,0,0,0,238,81.71a3.93,3.93,0,0,0-3.21,1.54,6.27,6.27,0,0,0-1.22,4v8.51h8.82Z"/><path class="cls-1" d="M252,70.05V54.16h5.06V73.82H228.47V54.35h5.05v15.7h6.72V55.67h4.88V70.05Z"/><path class="cls-1" d="M253.31,47.1a15.51,15.51,0,0,1-21.1,0A13.83,13.83,0,0,1,228,36.79a14.06,14.06,0,0,1,11.15-14v4.07a9.21,9.21,0,0,0-4.33,3.81,11.51,11.51,0,0,0-1.64,6.1,10.7,10.7,0,0,0,2.73,7.49,9.37,9.37,0,0,0,13.76,0,10.62,10.62,0,0,0,2.75-7.49,11.51,11.51,0,0,0-1.64-6.1,9.21,9.21,0,0,0-4.33-3.81V22.81a13.7,13.7,0,0,1,8,4.92,14,14,0,0,1,3.12,9.06A13.83,13.83,0,0,1,253.31,47.1Z"/><path class="cls-1" d="M228.47.08h5.05V9.2h23.53V13H233.52v9.12h-5.05Z"/></svg>