<svg id="Layer_1" data-name="Layer 1" xmlns="http://www.w3.org/2000/svg" viewBox="0 0 100 40"><defs><style>.cls-1{fill:#fff;}.cls-2{fill:#010101;}.cls-3{fill:#020202;}.cls-4{fill:#030303;}.cls-5{fill:#040404;}.cls-6{fill:#fefefe;}.cls-7{fill:#fdfdfd;}.cls-8{fill:#fafafa;}.cls-9{fill:#fcfcfc;}.cls-10{fill:#fbfbfb;}.cls-11{fill:#050505;}.cls-12{fill:#080808;}.cls-13{fill:#070707;}.cls-14{fill:#919191;}.cls-15{fill:#939393;}.cls-16{fill:#868686;}.cls-17{fill:#858585;}.cls-18{fill:#9c9c9c;}.cls-19{fill:#696969;}.cls-20{fill:#6d6d6d;}</style></defs><ellipse class="cls-1" cx="50.31" cy="19.99" rx="68.33" ry="16.95"/><path class="cls-2" d="M13.43,26.17s0,0-.06-.07A2.36,2.36,0,0,0,12.21,25c-.3-.15-.61-.26-.92-.39a.26.26,0,0,0-.23,0,2.37,2.37,0,0,1-2.61-.78,2.14,2.14,0,0,1-.5-1.1,4.09,4.09,0,0,1,.19-2.22.4.4,0,0,0,0-.34c-.07-.17-.13-.35-.2-.52s0-.1,0-.15a1.83,1.83,0,0,0,.73-1.27,5.06,5.06,0,0,0,0-.68,1.59,1.59,0,0,0-.61-1.32,1.05,1.05,0,0,0-.21-.12L7.8,16a.15.15,0,0,1,0-.23L8,15.45l.76-1.16c.14-.2.26-.23.47-.1a1.6,1.6,0,0,0,1.41.17,7.14,7.14,0,0,0,.9-.38,2.25,2.25,0,0,1,.68-.27.65.65,0,0,1,.24,0,2.08,2.08,0,0,0,.5.07,7.49,7.49,0,0,0,1.16,0,.76.76,0,0,0,.3,0,.73.73,0,0,1,.44,0,3,3,0,0,1,.49.21,6.36,6.36,0,0,0,.93.4,1.6,1.6,0,0,0,1.44-.17.28.28,0,0,1,.45.1l.94,1.42c.09.14.07.21-.07.3l-.07,0a1.48,1.48,0,0,0-.83,1.39,3.62,3.62,0,0,0,.1,1,1.72,1.72,0,0,0,.67,1,.12.12,0,0,1,0,.17c-.07.19-.14.37-.22.56a.33.33,0,0,0,0,.24A3.87,3.87,0,0,1,19,21.86a3.51,3.51,0,0,1-.21,1.32,2.36,2.36,0,0,1-1.13,1.2,2.21,2.21,0,0,1-1.45.27,2.79,2.79,0,0,1-.39-.1.28.28,0,0,0-.22,0c-.32.13-.63.25-.93.4a2.5,2.5,0,0,0-1.18,1.18A.05.05,0,0,1,13.43,26.17Z"/><path class="cls-3" d="M69,20v6c0,.23,0,.2-.21.2s-.27,0-.27-.26V14.06c0-.25,0-.23.23-.23s.25,0,.25.25Z"/><path class="cls-2" d="M56.15,16a.28.28,0,0,0,.11-.13l1.06-1.41.09-.1a.14.14,0,0,1,.14,0s0,.06,0,.1v2.87c0,.09,0,.11-.11.1H57.2c-.09,0-.11,0-.11-.12v-1.7c-.06,0-.08,0-.1.07l-.68.89s-.06.1-.13.1a.21.21,0,0,1-.18-.09c-.22-.29-.43-.58-.65-.86,0,0-.06-.09-.12-.12a.26.26,0,0,0,0,.15v1.59c0,.06,0,.09-.09.08h-.33s-.07,0-.07-.08V14.55s0-.06,0-.08,0-.1,0-.12a.14.14,0,0,1,.16,0l.07.09,1.07,1.42Z"/><path class="cls-2" d="M25.65,15.4c0-.3,0-.61,0-.91,0-.12,0-.12.11-.12H26c.08,0,.11,0,.11.12,0,.31,0,.61,0,.92s0,.49,0,.73a1.48,1.48,0,0,0,0,.21.7.7,0,0,0,.73.65.68.68,0,0,0,.74-.62,2.28,2.28,0,0,0,0-.26V14.44s0-.07.06-.07h.36a.06.06,0,0,1,.07.07v1.74a1.42,1.42,0,0,1-.13.61,1.11,1.11,0,0,1-.82.62,1.33,1.33,0,0,1-.74,0,1.14,1.14,0,0,1-.79-1.12C25.64,16,25.65,15.69,25.65,15.4Z"/><path class="cls-2" d="M35.32,16.45a.65.65,0,0,0,.58.55.93.93,0,0,0,.68-.18c.11-.08.1-.08.18,0l0,0c.14.2.14.2-.07.34a1.26,1.26,0,0,1-1.64-.2,1.13,1.13,0,0,1-.15-1.3,1.07,1.07,0,0,1,1.1-.64,1,1,0,0,1,1,1.23c0,.1,0,.11-.15.11H35.5A.37.37,0,0,0,35.32,16.45Z"/><path class="cls-2" d="M51,17.23s0,0-.07,0a1,1,0,0,1-1,.15.6.6,0,0,1-.41-.6.55.55,0,0,1,.34-.53,1.13,1.13,0,0,1,.48-.11h.52c.11,0,.12,0,.12-.12a.46.46,0,0,0-.61-.48.75.75,0,0,0-.41.24c-.06.07-.1.08-.16,0a.67.67,0,0,0-.14-.15c-.06-.05-.05-.09,0-.14a1.06,1.06,0,0,1,.68-.39,1.14,1.14,0,0,1,.52,0,.76.76,0,0,1,.59.62,1,1,0,0,1,0,.29v1.2c0,.15,0,.15-.17.15H51.3C51.08,17.42,51.08,17.42,51,17.23Z"/><path class="cls-2" d="M63.88,15.89a.66.66,0,0,1-.17-.15c-.15-.15-.15-.15,0-.31a1.2,1.2,0,0,1,1.23-.24.81.81,0,0,1,.51.8c0,.44,0,.88,0,1.32,0,.08,0,.12-.11.11h-.13c-.2,0-.2,0-.23-.19,0,0-.07,0-.11.06a1,1,0,0,1-1,.08.59.59,0,0,1-.34-.57.57.57,0,0,1,.37-.53.9.9,0,0,1,.42-.1h.54c.14,0,.15,0,.14-.15a.46.46,0,0,0-.62-.45.75.75,0,0,0-.34.18Z"/><path class="cls-2" d="M59.58,17.24s-.06,0-.09.05a1,1,0,0,1-1,.1.61.61,0,0,1,0-1.13,1,1,0,0,1,.45-.09h.5c.12,0,.12,0,.13-.11a.46.46,0,0,0-.6-.49.7.7,0,0,0-.43.25c0,.06-.09.07-.14,0l-.12-.11c-.1-.11-.1-.11,0-.22a1.13,1.13,0,0,1,1.27-.29.77.77,0,0,1,.5.75c0,.46,0,.92,0,1.37,0,.09,0,.11-.11.1h-.23c-.09,0-.13,0-.12-.12a.07.07,0,0,0,0-.05Z"/><path class="cls-2" d="M44.45,15.89a1.83,1.83,0,0,0-.22-.24.1.1,0,0,1,0-.17,1.09,1.09,0,0,1,.68-.38,1.35,1.35,0,0,1,.49,0,.79.79,0,0,1,.63.76c0,.47,0,.95,0,1.42,0,.07,0,.09-.09.09h-.25c-.08,0-.12,0-.11-.11a.12.12,0,0,0,0-.08s-.06,0-.09.06a1,1,0,0,1-1,.09.57.57,0,0,1-.35-.57.55.55,0,0,1,.37-.55,1,1,0,0,1,.44-.09h.54c.08,0,.1,0,.11-.1a.47.47,0,0,0-.61-.51.79.79,0,0,0-.37.2S44.51,15.82,44.45,15.89Z"/><path class="cls-2" d="M29.25,15.3c.05,0,.07,0,.1-.05a1,1,0,0,1,.81-.13.75.75,0,0,1,.53.49,1.28,1.28,0,0,1,.06.34v1.3c0,.14,0,.14-.14.14H30.4c-.14,0-.14,0-.14-.15V16.1a1.11,1.11,0,0,0,0-.19.45.45,0,0,0-.48-.38.49.49,0,0,0-.49.42,1.55,1.55,0,0,0,0,.22v1.09c0,.13,0,.13-.12.13h-.28c-.06,0-.08,0-.08-.08V15.22c0-.06,0-.09.09-.08H29C29.21,15.14,29.21,15.14,29.25,15.3Z"/><path class="cls-2" d="M39.62,20.23s-.07.07-.11.11l-.42.56c-.1.13-.16.12-.27,0l-.51-.67c-.06,0,0,.08,0,.12V21.4c0,.13,0,.14-.14.14s-.22,0-.22-.22V19.4s0-.09,0-.1a.1.1,0,0,1,.12,0l.19.25.6.8s0,.08.1.1.07-.08.11-.12l.71-.95.06-.08a.1.1,0,0,1,.13,0c.05,0,0,.06,0,.1v2c0,.14,0,.15-.14.15s-.21,0-.22-.21v-1S39.65,20.25,39.62,20.23Z"/><path class="cls-2" d="M80.4,19.73s0-.06,0-.08,0-.1.11-.1c.28,0,.24,0,.24.23v1.13c0,.09,0,.19,0,.29a.69.69,0,0,1-.49.58,1.12,1.12,0,0,1-1-.2c-.06,0-.07-.08,0-.14s.12-.17.29-.07a.75.75,0,0,0,.5.12.41.41,0,0,0,.4-.4.19.19,0,0,0,0-.13.86.86,0,0,1-.81.16.74.74,0,0,1-.39-.3.9.9,0,0,1,.07-1.07.82.82,0,0,1,.57-.24A.78.78,0,0,1,80.4,19.73Z"/><path class="cls-2" d="M36.88,23.81c0-.17,0-.17.21-.17s.14,0,.14.15v1.29a.77.77,0,0,1-.95.83,1,1,0,0,1-.57-.22c-.09-.08-.09-.08,0-.17l.06-.06c.07-.1.07-.1.17,0a.91.91,0,0,0,.44.16c.34,0,.53-.17.51-.53a.8.8,0,0,1-.41.18,1.05,1.05,0,0,1-.43,0,.72.72,0,0,1-.35-.29.89.89,0,0,1,.07-1.06A.84.84,0,0,1,36.88,23.81Z"/><path class="cls-2" d="M40,15.08a1,1,0,0,1,.67.26c.1.09.1.09,0,.18s-.11.16-.18.19-.13-.08-.2-.12a.8.8,0,0,0-.43-.07c-.12,0-.19.08-.2.16a.19.19,0,0,0,.12.23l.32.13a2.69,2.69,0,0,1,.38.19.6.6,0,0,1,.29.58.61.61,0,0,1-.39.54,1.13,1.13,0,0,1-1.16-.15l-.14-.13a.08.08,0,0,1,0-.13,1.54,1.54,0,0,0,.17-.19s.07-.05.11,0a1.56,1.56,0,0,0,.2.16A.7.7,0,0,0,40,17l.12,0a.2.2,0,0,0,0-.36.72.72,0,0,0-.25-.12,3,3,0,0,1-.54-.27.6.6,0,0,1,0-1,.85.85,0,0,1,.37-.15Z"/><path class="cls-2" d="M83.05,15.9A.71.71,0,0,1,84,16a.81.81,0,0,1,.41-.21.59.59,0,0,1,.74.57c0,.33,0,.66,0,1,0,.06,0,.09-.09.1-.27,0-.27,0-.27-.25v-.8a.34.34,0,0,0-.68,0c0,.13,0,.26,0,.39v.54c0,.07,0,.11-.1.11-.31,0-.25,0-.25-.25s0-.43,0-.65V16.4a.34.34,0,0,0-.34-.31.35.35,0,0,0-.34.31,1,1,0,0,0,0,.17v.75c0,.12,0,.13-.13.13s-.22,0-.23-.23V15.93c0-.13,0-.13.14-.14h.07C83,15.8,83,15.8,83.05,15.9Z"/><path class="cls-2" d="M72.14,16.34v-1c0-.14,0-.15.15-.14a5.38,5.38,0,0,1,.8,0,1.07,1.07,0,0,1,.85,1.54,1,1,0,0,1-.8.61,5.62,5.62,0,0,1-.92,0c-.09,0-.08-.07-.08-.13Z"/><path class="cls-2" d="M49.21,20.81a2.78,2.78,0,0,0,.26-.37c0-.07.08-.07.14,0,.25.18.22.12.08.34l-.18.25c0,.07-.06.11,0,.17l.28.34a1,1,0,0,1-.33,0c-.14,0-.15-.14-.26-.19l-.13.09a.87.87,0,0,1-.77.08.56.56,0,0,1-.27-.91,1.09,1.09,0,0,1,.24-.24c.07,0,.08-.08,0-.15a.84.84,0,0,1-.13-.27.51.51,0,0,1,.2-.57.59.59,0,0,1,.66,0,.48.48,0,0,1,.1.6.9.9,0,0,1-.22.26c-.08.08-.08.08,0,.17Z"/><path class="cls-2" d="M48,16.23V15.7c0-.08,0-.11-.11-.11h-.17c-.07,0-.1,0-.09-.09v-.05c0-.09,0-.19,0-.26s.16,0,.24,0,.11,0,.11-.11,0-.25,0-.38,0-.1.1-.1h.3c.07,0,.09,0,.09.1v.37c0,.09,0,.12.11.12h.42c.14,0,.14,0,.14.15s0,.12,0,.18,0,.1-.1.09h-.46c-.12,0-.12,0-.12.12v.93a.35.35,0,0,0,.39.39h.26c.07,0,.1,0,.1.08,0,.4.06.32-.32.37a.89.89,0,0,1-.48-.06.67.67,0,0,1-.44-.66v-.52Z"/><path class="cls-2" d="M63,17c.22,0,.22,0,.22.21s0,.19-.19.22a1.27,1.27,0,0,1-.39,0,.68.68,0,0,1-.65-.74c0-.33,0-.65,0-1,0-.14,0-.14-.14-.15s-.22,0-.22-.23h0c0-.19,0-.18.17-.18h.07c.12,0,.12,0,.12-.13a1.93,1.93,0,0,0,0-.34c0-.08,0-.13.11-.12h.3c.06,0,.09,0,.08.09s0,.25,0,.37,0,.13.12.13H63c.12,0,.12,0,.12.12,0,.37,0,.29-.3.3h-.27c-.07,0-.11,0-.11.09,0,.33,0,.66,0,1s.13.35.37.37Z"/><path class="cls-2" d="M76,20.08v-1c0-.13,0-.13.13-.13a5.3,5.3,0,0,1,.89,0,1,1,0,0,1,.88,1.05,1.07,1.07,0,0,1-.86,1.08,1,1,0,0,1-.3,0h-.56c-.18,0-.18,0-.18-.18Z"/><path class="cls-2" d="M43.57,17c.23,0,.23,0,.23.22s0,.18-.18.2a1.48,1.48,0,0,1-.42,0,.69.69,0,0,1-.64-.7c0-.22,0-.44,0-.66v-.23c0-.08,0-.19,0-.25s-.17,0-.25,0-.1,0-.09-.1,0,0,0-.05,0-.18,0-.25.15,0,.23,0,.11,0,.11-.11,0-.25,0-.37,0-.12.1-.12a1.31,1.31,0,0,0,.28,0c.09,0,.11,0,.11.12V15c0,.08,0,.11.11.11h.45c.07,0,.1,0,.1.09,0,.33,0,.33-.3.33h-.26c-.07,0-.1,0-.1.09v1a.33.33,0,0,0,.29.33Z"/><path class="cls-2" d="M21.92,15.88V14.51c0-.14,0-.14.14-.14h.28c.05,0,.08,0,.07.08v2.27a.45.45,0,0,0,0,.11c0,.11,0,.12.12.12H23.7c.07,0,.09,0,.09.1,0,.34,0,.34-.32.34h-1.4c-.15,0-.15,0-.15-.15Z"/><path class="cls-2" d="M34.79,25.09a.73.73,0,0,1-.38.21.78.78,0,0,1-.95-.62,1,1,0,0,1,0-.58.78.78,0,0,1,1.17-.36.15.15,0,0,0,.1,0v-.34c0-.19,0-.37,0-.56s0-.1.11-.1c.32,0,.26,0,.26.26v2.1c0,.14,0,.14-.13.14h0C34.81,25.29,34.81,25.29,34.79,25.09Z"/><path class="cls-2" d="M43.61,20V19.7c0-.19,0-.38,0-.57s0-.1.1-.1c.26,0,.26,0,.26.25v2.18s0,0,0,0-.17,0-.26,0-.06,0-.06-.08v-.07s0,0-.07,0A.78.78,0,0,1,42.33,21a.91.91,0,0,1,.06-.79A.79.79,0,0,1,43.51,20S43.56,20,43.61,20Z"/><path class="cls-2" d="M33.44,16.58a.27.27,0,0,0,.09-.15c.18-.39.35-.78.52-1.18a.17.17,0,0,1,.18-.12h.36a.1.1,0,0,1,0,.12l-1,2.07c0,.06-.05.12-.13.12a.14.14,0,0,1-.13-.1c-.34-.71-.68-1.42-1-2.13a.1.1,0,0,1,0-.08h.44c.07,0,.08.07.1.11.14.31.27.61.41.91Z"/><path class="cls-2" d="M76.66,16a.73.73,0,0,1,.66-.19.74.74,0,0,1,.65.61.92.92,0,0,1,0,.59.79.79,0,0,1-1.17.37l-.07-.05c-.06,0,0,.06,0,.1v.54c0,.07,0,.1-.1.1-.31,0-.26,0-.26-.25V15.87a.07.07,0,0,1,0-.07,1.13,1.13,0,0,1,.26,0s0,0,0,0S76.62,15.93,76.66,16Z"/><path class="cls-2" d="M29.16,24.24c-.15.31-.28.58-.4.85l-.09.18c-.05.08-.12.08-.17,0v0l-.67-1.56s0,0,0,0,0,0,0,0c.31,0,.31,0,.43.28l.31.77.06-.13.38-.84s0-.11.11-.12.1.07.12.12l.39.84s0,.07.06.08a.31.31,0,0,0,.08-.15l.27-.69c.08-.19.05-.16.24-.16a.55.55,0,0,1,.18,0,.12.12,0,0,1,0,.12c-.2.48-.41,1-.62,1.44l0,.06a.09.09,0,0,1-.16,0,.6.6,0,0,1-.08-.16Z"/><path class="cls-2" d="M88.61,21.18h-.07c-.28,0-.29,0-.4-.25a.15.15,0,0,0-.17-.12h-.75a.17.17,0,0,0-.16.11c-.11.27-.12.27-.41.26H86.6c0-.06,0-.1,0-.14l.85-2,0-.09a.09.09,0,0,1,.15,0s0,.05,0,.07l.88,2A.15.15,0,0,1,88.61,21.18Z"/><path class="cls-2" d="M40.61,24.67l.2.17a.6.6,0,0,0,.53.14.29.29,0,0,0,.24-.24.26.26,0,0,0-.15-.28c-.14-.08-.28-.14-.42-.21a1,1,0,0,1-.32-.2.56.56,0,0,1,.07-.88.85.85,0,0,1,1.1.18c0,.06.06.1,0,.15l-.09.07c-.06.05-.1.06-.16,0a.46.46,0,0,0-.46-.18.25.25,0,0,0-.25.2.23.23,0,0,0,.14.28l.35.17a1.86,1.86,0,0,1,.34.19.59.59,0,0,1-.06,1,1,1,0,0,1-1.23-.29c0-.06,0-.1,0-.14S40.56,24.7,40.61,24.67Z"/><path class="cls-2" d="M45.3,24.6a.44.44,0,0,0,.25.34.6.6,0,0,0,.62,0c.13-.08.13-.08.22.05l0,.05s0,.07,0,.11A.87.87,0,1,1,46,23.64a.72.72,0,0,1,.51.86c0,.06,0,.08-.1.08h-1Z"/><path class="cls-2" d="M31.94,24.6a.48.48,0,0,0,.59.4.71.71,0,0,0,.31-.13c.06-.05.09,0,.14,0s.12.18-.06.29a.89.89,0,0,1-1.29-.35.82.82,0,0,1,.12-.92.8.8,0,0,1,.88-.27.74.74,0,0,1,.52.87c0,.08-.07.07-.12.07H32.1A.29.29,0,0,0,31.94,24.6Z"/><path class="cls-2" d="M50.87,24.58c.09.44.5.53,1,.25,0,0,0,0,.06.07s.13.17-.06.29a.89.89,0,0,1-1.33-.48.82.82,0,0,1,.21-.85.78.78,0,0,1,.83-.22.73.73,0,0,1,.53.81c0,.13,0,.13-.15.13H50.87Z"/><path class="cls-2" d="M38,24.59c.06.43.51.53,1,.24a.09.09,0,0,1,.05,0c.15.21.15.23-.09.35a.89.89,0,0,1-1.29-.52.85.85,0,0,1,.22-.84.83.83,0,0,1,.82-.21.73.73,0,0,1,.54.84.12.12,0,0,1-.13.11H38Z"/><path class="cls-2" d="M60.7,15.7V14.09c0-.08,0-.11.1-.11s.27,0,.35,0,0,.23,0,.35v2.84a.57.57,0,0,0,0,.13c0,.07,0,.11-.11.1s-.26,0-.34,0,0-.22,0-.34Z"/><path class="cls-2" d="M85.89,16.76a.47.47,0,0,0,.29.36.65.65,0,0,0,.56-.05l.1-.07a0,0,0,0,1,.07,0l.12.17c0,.05,0,.07,0,.09a.93.93,0,0,1-.64.21A.86.86,0,0,1,85.8,16a.82.82,0,0,1,.86-.15.72.72,0,0,1,.45.83c0,.09-.06.09-.12.09h-.9A.49.49,0,0,0,85.89,16.76Z"/><path class="cls-2" d="M75.67,17c.2.25.26.24-.07.4a.87.87,0,0,1-1.26-.52.85.85,0,0,1,1-1.08.75.75,0,0,1,.59.82c0,.13,0,.14-.15.14H74.69a.39.39,0,0,0,.22.34A.65.65,0,0,0,75.67,17Z"/><path class="cls-2" d="M40.77,20.83a.51.51,0,0,0,.68.4.55.55,0,0,0,.24-.12c.05,0,.08,0,.12,0s.13.2-.05.31A.9.9,0,0,1,40.42,21a.84.84,0,0,1,1-1.07.73.73,0,0,1,.56.84c0,.09-.05.11-.14.11H40.77Z"/><path class="cls-2" d="M79.34,17.29a.78.78,0,0,1-.74.16.47.47,0,0,1-.32-.59.47.47,0,0,1,.31-.29,1.2,1.2,0,0,1,.42,0h.17c.14,0,.16,0,.14-.17a.3.3,0,0,0-.32-.27.48.48,0,0,0-.38.15c-.1.1-.09.09-.2,0l0-.05s0-.08,0-.13a.84.84,0,0,1,1.06-.17.59.59,0,0,1,.25.48c0,.33,0,.66,0,1,0,.08,0,.1-.1.1h-.1C79.37,17.45,79.37,17.44,79.34,17.29Z"/><path class="cls-2" d="M25.94,24.47a.87.87,0,0,1,1.73,0,.87.87,0,1,1-1.73,0Z"/><path class="cls-2" d="M46.26,21.39a.78.78,0,0,1-.72.15.45.45,0,0,1-.36-.45.44.44,0,0,1,.35-.43,1.53,1.53,0,0,1,.43,0h.09c.22,0,.24,0,.18-.24a.33.33,0,0,0-.36-.21.51.51,0,0,0-.35.17c-.05,0-.08.07-.14,0s-.16-.17,0-.31a.83.83,0,0,1,.84-.14.6.6,0,0,1,.38.57c0,.32,0,.64,0,1,0,.07,0,.1-.1.1H46.4C46.31,21.55,46.25,21.52,46.26,21.39Z"/><path class="cls-2" d="M72.89,21.22a.86.86,0,1,1,0-1.71.87.87,0,0,1,.88.87A.85.85,0,0,1,72.89,21.22Z"/><path class="cls-2" d="M34.76,19.86a.86.86,0,1,1-.87.85A.85.85,0,0,1,34.76,19.86Z"/><path class="cls-2" d="M83.54,20.06c-.05,0-.07,0-.1-.08s-.13-.13,0-.25a.82.82,0,0,1,.88-.16.58.58,0,0,1,.36.52c0,.19,0,.37,0,.56v.41c0,.12,0,.12-.13.13a.33.33,0,0,0-.1,0c-.09,0-.12,0-.11-.12a.08.08,0,0,0-.07,0,.72.72,0,0,1-.6.13.46.46,0,0,1-.41-.58.47.47,0,0,1,.41-.33,2.74,2.74,0,0,1,.5,0c.15,0,.16,0,.14-.15a.29.29,0,0,0-.29-.28.47.47,0,0,0-.38.12Z"/><path class="cls-2" d="M38,15.37c.07,0,.1-.07.15-.1a.83.83,0,0,1,.55-.16c.13,0,.13,0,.14.15v.23a.07.07,0,0,1-.08.08h-.2a.58.58,0,0,0-.53.6v1.13c0,.06,0,.08-.09.08h-.29c-.09,0-.11,0-.11-.11v-2c0-.12,0-.12.13-.12h.1C38,15.14,38,15.14,38,15.37Z"/><path class="cls-2" d="M24.59,21.39a.76.76,0,0,1-.72.15.45.45,0,0,1,0-.88.92.92,0,0,1,.29,0h.23c.18,0,.21-.05.17-.22a.32.32,0,0,0-.37-.23.49.49,0,0,0-.34.17c-.06.06-.09,0-.15,0s-.15-.17,0-.3a.83.83,0,0,1,.83-.14.54.54,0,0,1,.38.48,2.84,2.84,0,0,1,0,.41c0,.21,0,.42,0,.62s0,.13-.11.12h-.08C24.63,21.54,24.63,21.54,24.59,21.39Z"/><path class="cls-2" d="M31.1,19.92h0c.33,0,.33,0,.46.28l.28.72s0,.09.06.11.06-.08.08-.12l.36-.89c0-.08.07-.12.15-.11a1.92,1.92,0,0,0,.24,0c0,.06,0,.09,0,.13-.25.56-.49,1.12-.73,1.68a1.71,1.71,0,0,1-.13.23.63.63,0,0,1-.69.21.07.07,0,0,1-.07-.08v0c0-.2,0-.2.19-.2a.42.42,0,0,0,.42-.37.39.39,0,0,0,0-.14l-.51-1.23A.55.55,0,0,1,31.1,19.92Z"/><path class="cls-2" d="M22,20.43v-1c0-.12,0-.12.12-.12h1.18c.12,0,.12,0,.12.12v0c0,.18,0,.18-.18.18h-.76c-.09,0-.12,0-.12.11a3.23,3.23,0,0,1,0,.44c0,.07,0,.1.1.1h.64c.13,0,.13,0,.13.13v.07c0,.12,0,.12-.11.12H22.5c-.12,0-.13,0-.13.13v.65c0,.12,0,.13-.13.13s-.22,0-.23-.23Z"/><path class="cls-2" d="M87.83,15.93a1.13,1.13,0,0,1,.32-.15.6.6,0,0,1,.78.59c0,.33,0,.65,0,1,0,.07,0,.1-.1.1-.32,0-.25,0-.26-.24v-.79a.35.35,0,0,0-.37-.33.36.36,0,0,0-.35.36c0,.21,0,.41,0,.62v.28c0,.1,0,.1-.21.1s-.15,0-.15-.11V15.9c0-.08,0-.11.11-.11a.24.24,0,0,0,.12,0C87.81,15.78,87.85,15.82,87.83,15.93Z"/><path class="cls-2" d="M47.26,23.77a.77.77,0,0,1,.39-.16.58.58,0,0,1,.69.57c0,.34,0,.68,0,1a.09.09,0,0,1-.09.1c-.26,0-.27,0-.27-.25s0-.49,0-.74a.36.36,0,1,0-.71,0v.79c0,.17,0,.17-.18.17h0c-.16,0-.16,0-.16-.16V23.8c0-.16,0-.16.16-.16h0C47.22,23.64,47.22,23.64,47.26,23.77Z"/><path class="cls-2" d="M24.48,23.77a1.14,1.14,0,0,1,.3-.14.6.6,0,0,1,.79.56c0,.33,0,.67,0,1,0,.07,0,.09-.1.1-.26,0-.26,0-.26-.25v-.67a.47.47,0,0,0,0-.17.34.34,0,0,0-.36-.27.34.34,0,0,0-.33.31.71.71,0,0,0,0,.14v.79c0,.08,0,.12-.11.12-.31,0-.25,0-.25-.24V23.84c0-.22,0-.2.21-.2h0C24.47,23.63,24.48,23.68,24.48,23.77Z"/><path class="cls-2" d="M27.22,20.45V20c0-.07,0-.09.09-.09.32,0,.26,0,.26.24s0,.5,0,.75a.35.35,0,0,0,.54.3.36.36,0,0,0,.17-.34c0-.26,0-.52,0-.77s0-.18.18-.18h.1c.06,0,.08,0,.08.09,0,.31,0,.61,0,.91a.7.7,0,0,1-.93.64.66.66,0,0,1-.5-.63c0-.15,0-.31,0-.46Z"/><path class="cls-3" d="M74.2,20.52c0-.18,0-.36,0-.54s0-.12-.11-.12-.12,0-.13-.13a.21.21,0,0,0,0-.08c0-.07,0-.1.11-.1s.12,0,.13-.14a1.22,1.22,0,0,1,0-.38.45.45,0,0,1,.41-.36,1.22,1.22,0,0,1,.27,0c.09,0,.12,0,.11.12v0c0,.21,0,.18-.16.18s-.29.08-.29.29,0,.27.25.28.13,0,.13.13v.08c0,.07,0,.11-.1.11h0c-.08,0-.19,0-.25,0s0,.16,0,.25c0,.31,0,.61,0,.92,0,.11,0,.12-.12.12-.29,0-.24,0-.24-.23Z"/><path class="cls-2" d="M42.26,24.47a.86.86,0,0,1,1.23-.78.63.63,0,0,1,.26.2s0,0,0,.06-.07.11-.12.15-.07.1-.13,0a.6.6,0,0,0-.08-.08.49.49,0,0,0-.69,0,.55.55,0,0,0,0,.73.5.5,0,0,0,.69.05s.07-.11.13-.1.1.06.15.09.09.09,0,.18a.86.86,0,0,1-1.42-.24A.66.66,0,0,1,42.26,24.47Z"/><path class="cls-2" d="M48.71,24.48a.86.86,0,0,1,1.46-.62l0,.06s0,.08,0,.12l0,0c-.14.12-.14.12-.28,0a.51.51,0,0,0-.68,0,.58.58,0,0,0,0,.75.52.52,0,0,0,.7,0s.06-.1.12-.11.11.07.16.11.09.08,0,.18a.81.81,0,0,1-.8.25.82.82,0,0,1-.64-.56A.61.61,0,0,1,48.71,24.48Z"/><path class="cls-2" d="M26.86,21.2a.83.83,0,0,1-1.19.22.88.88,0,0,1-.32-1,.86.86,0,0,1,.86-.57.78.78,0,0,1,.61.31.08.08,0,0,1,0,.13l-.08.06c-.09.07-.09.07-.19,0a.5.5,0,0,0-.6-.09.52.52,0,0,0-.24.59.48.48,0,0,0,.46.4.5.5,0,0,0,.38-.15c.1-.09.1-.09.21,0l.1.08S26.85,21.19,26.86,21.2Z"/><path class="cls-2" d="M92,21.22a.8.8,0,0,1-.61-.24c0-.05-.06-.09,0-.14l.06-.06c.08-.09.08-.09.17,0a.56.56,0,0,0,.32.15.26.26,0,0,0,.15,0,.19.19,0,0,0,.16-.14.16.16,0,0,0-.12-.17l-.29-.13a.8.8,0,0,1-.24-.13.44.44,0,0,1,0-.72.77.77,0,0,1,.88.09.08.08,0,0,1,0,.14l0,.06c0,.07-.1.09-.17,0a.45.45,0,0,0-.32-.09c-.11,0-.18.05-.19.12s0,.14.12.17l.23.1.26.13a.46.46,0,0,1-.05.8A.65.65,0,0,1,92,21.22Z"/><path class="cls-2" d="M52.53,24.79l.16.12a.47.47,0,0,0,.38.09c.1,0,.17-.08.17-.15a.16.16,0,0,0-.12-.17l-.29-.12a1.49,1.49,0,0,1-.24-.14.44.44,0,0,1,0-.71.75.75,0,0,1,.88.08c.06.05.07.09,0,.15l0,0c-.09.11-.09.11-.2,0a.57.57,0,0,0-.28-.08c-.13,0-.19,0-.21.12s0,.13.14.19l.22.09a1.3,1.3,0,0,1,.26.14.46.46,0,0,1,0,.75.84.84,0,0,1-1-.14c-.05-.05-.05-.09,0-.13A.71.71,0,0,1,52.53,24.79Z"/><path class="cls-2" d="M36.07,20.87v-.54c0-.12,0-.12-.11-.12s-.13,0-.13-.13V20c0-.09,0-.11.11-.11s.13,0,.13-.13a2.71,2.71,0,0,1,0-.29.47.47,0,0,1,.4-.47.91.91,0,0,1,.23,0c.16,0,.17,0,.17.18s0,.14-.14.14-.3.08-.31.31h0c0,.26,0,.26.24.26s.14,0,.14.15v.1s0,.05-.06.05h-.09c-.23,0-.23,0-.23.24s0,.64,0,.95c0,.13,0,.14-.13.14s-.22,0-.22-.21Z"/><path class="cls-3" d="M89.47,16.58c0-.12,0-.24,0-.36s0-.11-.12-.11-.12,0-.14,0a.49.49,0,0,1,0-.24c0-.05.07,0,.1,0s.15,0,.15-.16v-.08c0-.19,0-.18.18-.18s.18,0,.18.18,0,.24.25.24h.08c.16,0,.16,0,.16.16s0,.16-.16.16h-.23c-.06,0-.1,0-.1.09,0,.23,0,.45,0,.67s.09.27.29.28h.06c.2,0,.2,0,.19.2s0,.1-.09.11a1,1,0,0,1-.34,0,.5.5,0,0,1-.47-.53c0-.12,0-.24,0-.36Z"/><path class="cls-3" d="M81.46,16.58v-.36c0-.08,0-.11-.11-.11s-.12,0-.14,0a.49.49,0,0,1,0-.24c0-.05.06,0,.1,0s.15,0,.15-.16v-.08c0-.19,0-.18.18-.18s.18,0,.18.18,0,.24.25.24h0c.22,0,.24,0,.21.25,0,.05,0,.07-.08.07h-.31c-.07,0-.1,0-.1.09,0,.23,0,.45,0,.67s.1.27.29.28a.75.75,0,0,0,.15,0c.1,0,.1,0,.1.1a.33.33,0,0,1,0,.1c0,.07,0,.1-.09.11a.9.9,0,0,1-.46,0,.49.49,0,0,1-.35-.5v-.36Z"/><path class="cls-3" d="M82.16,20.34V20c0-.09,0-.12-.11-.11H82a.05.05,0,0,1-.06-.06v-.16c0-.06,0-.1.08-.09h.1c.07,0,.09,0,.09-.09V19.2c0-.14.13-.07.19-.08s.17-.05.17.08a1,1,0,0,1,0,.25c0,.08,0,.1.11.1a2.62,2.62,0,0,1,.28,0c.07,0,.09,0,.1.09,0,.22,0,.23-.21.23s-.27,0-.27.28,0,.32,0,.48.07.26.27.27h.08c.05,0,.14,0,.17,0a.49.49,0,0,1,0,.24s0,.05-.07.06a1.24,1.24,0,0,1-.47,0,.45.45,0,0,1-.34-.41c0-.15,0-.3,0-.44Z"/><path class="cls-2" d="M90.25,20.34V20c0-.07,0-.12-.1-.12s-.12,0-.15,0a.46.46,0,0,1,0-.26s0,0,0,0h.11c.06,0,.09,0,.09-.09v-.24c0-.07,0-.1.09-.1.28,0,.28,0,.28.25v.05c0,.12,0,.13.13.13H91c.06,0,.09,0,.09.08v0c0,.2,0,.19-.19.2s-.2,0-.27,0,0,.17,0,.27a3.68,3.68,0,0,0,0,.47c0,.18.08.25.26.26H91c.09,0,.12,0,.11.11v.09c0,.08,0,.12-.11.12a1.45,1.45,0,0,1-.36,0,.47.47,0,0,1-.42-.45c0-.14,0-.28,0-.42Z"/><path class="cls-3" d="M31.38,16.24v-.95c0-.15,0-.15.17-.15h.24c.06,0,.08,0,.08.07v2.1c0,.06,0,.08-.09.08s-.28.05-.37,0,0-.22,0-.34Z"/><path class="cls-3" d="M41.29,16.24v-1c0-.12,0-.12.13-.12h.27c.07,0,.09,0,.09.08v2.11a.06.06,0,0,1-.06.06h-.36s-.07,0-.07-.07V16.24Z"/><path class="cls-2" d="M30,20.67v-.32c0-.14,0-.14-.13-.14s0,0,0,0-.09,0-.08-.09v-.07c0-.14,0-.15.15-.15s.11,0,.11-.12,0-.16,0-.23,0-.09.2-.08.16,0,.16.08v.26c0,.07,0,.09.09.09h.31c.06,0,.08,0,.08.09,0,.21,0,.22-.2.22s-.28,0-.28.28V21c0,.21.08.29.3.3h.05c.2,0,.2,0,.19.2s0,.09-.09.1a1,1,0,0,1-.38,0,.49.49,0,0,1-.43-.49c0-.13,0-.27,0-.4Z"/><path class="cls-2" d="M22.41,24.09c.27-.33.56-.64.84-1a.17.17,0,0,1,.12-.05h.33c0,.07-.05.1-.08.14l-.71.8c-.08.09-.08.09,0,.19l.83,1a.13.13,0,0,1,.06.11h-.38s-.06,0-.08-.05c-.28-.34-.59-.66-.86-1,0,0,0-.07-.08-.09h0A0,0,0,0,1,22.41,24.09Z"/><path class="cls-3" d="M29.47,20.3v1.09c0,.14,0,.15-.13.15s-.23,0-.23-.23v-2.1c0-.2,0-.18.18-.18s.18,0,.18.18Z"/><path class="cls-3" d="M31.17,24.05v1.1c0,.13,0,.13-.13.13h0c-.25,0-.22,0-.22-.2V22.86c0-.05,0-.07.08-.08.27,0,.28,0,.28.25Z"/><path class="cls-3" d="M85.51,20c0,.37,0,.74,0,1.11,0,.12,0,.13-.12.13s-.23,0-.23-.22c0-.69,0-1.39,0-2.08v-.11c0-.06,0-.09.08-.09.27,0,.27,0,.27.24Z"/><path class="cls-3" d="M80.5,16l.14-.09a.44.44,0,0,1,.19-.07c.23-.06.29,0,.26.24,0,.06,0,.08-.08.08h-.09a.43.43,0,0,0-.41.46v.74c0,.12,0,.13-.13.13s-.23,0-.23-.22V16c0-.16,0-.16.16-.16a.16.16,0,0,0,.07,0c.07,0,.11,0,.1.11S80.47,15.94,80.5,16Z"/><path class="cls-3" d="M89.29,19.72a.67.67,0,0,1,.46-.19c.12,0,.13,0,.14.14v0c0,.15,0,.15-.15.16a.42.42,0,0,0-.44.47v.71c0,.13,0,.14-.12.14-.29,0-.24,0-.24-.23V19.68c0-.13,0-.13.14-.13h0C89.26,19.55,89.26,19.55,89.29,19.72Z"/><path class="cls-3" d="M22.41,24.09v.05c-.06,0,0,.1,0,.15v.85c0,.14,0,.14-.13.14s-.22,0-.23-.22V23.29a.62.62,0,0,1,0-.13s0,0,0,0,.19,0,.28,0,.07.05.07.1V24A.08.08,0,0,0,22.41,24.09Z"/><path class="cls-4" d="M44.46,20.71V20c0-.08,0-.11.1-.11.32,0,.25,0,.26.24V21.4c0,.13,0,.14-.14.14s-.22,0-.22-.23Z"/><path class="cls-3" d="M81.23,20.36v-.7c0-.08,0-.12.11-.11.3,0,.25,0,.25.23v1.28c0,.12,0,.13-.12.13-.28,0-.23,0-.24-.24Z"/><path class="cls-4" d="M44.55,24.48v.69c0,.08,0,.12-.11.12-.31,0-.25,0-.26-.24V23.8c0-.16,0-.16.16-.16s.21,0,.21.21Z"/><path class="cls-4" d="M78.67,20.39c0,.23,0,.45,0,.68,0,.08,0,.12-.11.12-.31,0-.26,0-.26-.25V19.72c0-.17,0-.17.17-.17s.19,0,.2.2Z"/><path class="cls-3" d="M52.21,15V14.5c0-.07,0-.1.09-.1h.39c.06,0,.08,0,.07.08-.07.36-.13.72-.2,1.07a.09.09,0,0,1-.07.08c-.28,0-.32,0-.32-.27,0-.11,0-.23,0-.34Z"/><path class="cls-4" d="M24.53,16.14h-.47c-.08,0-.1,0-.1-.11,0-.31,0-.31.29-.31H25c.13,0,.14,0,.14.12,0,.35,0,.28-.29.29Z"/><path class="cls-4" d="M44.73,14c.34,0,.24-.06.37.26l.15.41c0,.13,0,.13-.1.14h0a.3.3,0,0,1-.32-.17l-.32-.45a.33.33,0,0,1-.06-.1A.06.06,0,0,1,44.5,14Z"/><path class="cls-3" d="M41.54,14.62a.33.33,0,0,1-.34-.32.34.34,0,0,1,.67,0A.33.33,0,0,1,41.54,14.62Z"/><path class="cls-3" d="M31.63,14a.32.32,0,1,1,0,.64.32.32,0,0,1-.33-.31A.32.32,0,0,1,31.63,14Z"/><path class="cls-5" d="M44.64,19.05a.24.24,0,0,1,.24.24.22.22,0,0,1-.24.23.23.23,0,0,1-.24-.23A.24.24,0,0,1,44.64,19.05Z"/><path class="cls-5" d="M81.43,18.7a.24.24,0,1,1,0,.48.26.26,0,0,1-.22-.26A.27.27,0,0,1,81.43,18.7Z"/><path class="cls-5" d="M44.36,23.27a.22.22,0,0,1-.23-.23.22.22,0,0,1,.24-.23.23.23,0,0,1,.24.23A.24.24,0,0,1,44.36,23.27Z"/><path class="cls-5" d="M78.49,19.18a.24.24,0,0,1-.25-.23.25.25,0,0,1,.23-.25.27.27,0,0,1,.26.24A.26.26,0,0,1,78.49,19.18Z"/><path class="cls-3" d="M22.4,24.13a.14.14,0,0,1,.08.09A.14.14,0,0,1,22.4,24.13Z"/><path class="cls-1" d="M8.19,15.77a.23.23,0,0,1,.07-.14l.65-1c.09-.13.09-.13.22-.06a1.86,1.86,0,0,0,1.11.23,2.7,2.7,0,0,0,.69-.18,5.24,5.24,0,0,0,.64-.29l.22-.1a1.31,1.31,0,0,1,1-.13,3.43,3.43,0,0,0,1.39,0,1.24,1.24,0,0,1,.89.11l.38.19a5.15,5.15,0,0,0,.82.32,1.92,1.92,0,0,0,1.5-.15c.13-.07.13-.07.2,0l.69,1.05c0,.06.06.1,0,.14a1.76,1.76,0,0,0-.81,1.3,3.23,3.23,0,0,0,.14,1.6,2.14,2.14,0,0,0,.51.84.14.14,0,0,1,0,.19l-.17.42a.36.36,0,0,0,0,.25,4,4,0,0,1,.25.83,3.63,3.63,0,0,1,0,1.14,5.23,5.23,0,0,1-.12.54,1.71,1.71,0,0,1-.48.78,2.44,2.44,0,0,1-1.27.61,1.52,1.52,0,0,1-.7-.08.92.92,0,0,0-.69.05c-.23.11-.48.2-.72.31a3.86,3.86,0,0,0-.77.49,1.47,1.47,0,0,0-.35.43l0,0a1.9,1.9,0,0,0-.56-.57,3.84,3.84,0,0,0-.85-.45l-.47-.2a.78.78,0,0,0-.58,0l-.27.07a1.43,1.43,0,0,1-.65,0,2.49,2.49,0,0,1-1-.52A1.63,1.63,0,0,1,8.44,23a4.86,4.86,0,0,1-.19-1.13,3.27,3.27,0,0,1,.27-1.38.37.37,0,0,0,0-.34c-.06-.13-.1-.27-.15-.4a.12.12,0,0,1,0-.16,2.47,2.47,0,0,0,.67-1.47,3.17,3.17,0,0,0,0-1.15,1.76,1.76,0,0,0-.78-1.13Z"/><path class="cls-6" d="M35.92,16h-.51c-.08,0-.09,0-.07-.1a.65.65,0,0,1,.95-.34.52.52,0,0,1,.17.19c.1.21.08.25-.15.25Z"/><path class="cls-6" d="M50.63,16.53h.31c.06,0,.08,0,.08.09a.55.55,0,0,1-.43.46.59.59,0,0,1-.37,0,.25.25,0,0,1-.16-.26.23.23,0,0,1,.19-.23A1.76,1.76,0,0,1,50.63,16.53Z"/><path class="cls-6" d="M64.56,16.53h.32c.07,0,.08,0,.08.09a.58.58,0,0,1-.8.43.29.29,0,0,1-.17-.28.27.27,0,0,1,.21-.22A2.36,2.36,0,0,1,64.56,16.53Z"/><path class="cls-6" d="M59.16,16.53h.34s.07,0,.07.08a.54.54,0,0,1-.09.24.61.61,0,0,1-.69.21.28.28,0,0,1-.19-.27.26.26,0,0,1,.22-.24A2.25,2.25,0,0,1,59.16,16.53Z"/><path class="cls-6" d="M45.16,16.5h.28c.1,0,.11,0,.1.13a.46.46,0,0,1-.07.16.59.59,0,0,1-.7.23.27.27,0,0,1-.19-.27.24.24,0,0,1,.22-.23A1.48,1.48,0,0,1,45.16,16.5Z"/><path class="cls-1" d="M79.42,20.33a.47.47,0,0,1,.49-.49.46.46,0,0,1,.49.49.48.48,0,0,1-.48.51A.49.49,0,0,1,79.42,20.33Z"/><path class="cls-1" d="M36.87,24.44a.47.47,0,0,1-.48.5.5.5,0,0,1-.5-.51.49.49,0,0,1,.51-.5A.45.45,0,0,1,36.87,24.44Z"/><path class="cls-1" d="M72.52,16.33c0-.2,0-.41,0-.62s0-.14.15-.15a1.93,1.93,0,0,1,.42,0,.72.72,0,0,1,.58.76.74.74,0,0,1-.61.73,2,2,0,0,1-.42,0c-.12,0-.12,0-.12-.12S72.52,16.56,72.52,16.33Z"/><path class="cls-7" d="M48.61,21.25a.36.36,0,0,1-.22-.07.27.27,0,0,1-.1-.35l.06-.1c.17-.2.2-.2.36,0L49,21s0,.07,0,.1A.53.53,0,0,1,48.61,21.25Z"/><path class="cls-8" d="M48.85,19.76a.35.35,0,0,1-.18.32s0,0-.06,0a.38.38,0,0,1-.12-.29.18.18,0,0,1,.2-.17A.16.16,0,0,1,48.85,19.76Z"/><path class="cls-1" d="M76.69,19.32a1.18,1.18,0,0,1,.26,0,.74.74,0,0,1,.61.76.75.75,0,0,1-.64.75,3.27,3.27,0,0,1-.44,0c-.06,0-.08,0-.08-.08v-1.3c0-.16,0-.16.16-.16Z"/><path class="cls-1" d="M34.78,24.47a.48.48,0,0,1-.49.52.49.49,0,0,1-.49-.54.5.5,0,0,1,.49-.52A.5.5,0,0,1,34.78,24.47Z"/><path class="cls-1" d="M43.62,20.72a.47.47,0,0,1-.48.52.5.5,0,0,1-.51-.52.5.5,0,0,1,.51-.53A.48.48,0,0,1,43.62,20.72Z"/><path class="cls-1" d="M77.63,16.62a.5.5,0,0,1-.66.5.53.53,0,0,1-.32-.6.47.47,0,0,1,.53-.42A.49.49,0,0,1,77.63,16.62Z"/><path class="cls-9" d="M88,20.49a.51.51,0,0,1-.24,0,2.39,2.39,0,0,1-.46,0l.33-.83h0Z"/><path class="cls-6" d="M45.32,24.3A.44.44,0,0,1,46,24a.37.37,0,0,1,.14.2c0,.06,0,.1-.08.1s-.28,0-.42,0Z"/><path class="cls-6" d="M31.94,24.29a.45.45,0,0,1,.57-.36.35.35,0,0,1,.27.28c0,.05,0,.09-.07.09s-.43,0-.65,0Z"/><path class="cls-7" d="M51.73,24.29h-.84a.44.44,0,0,1,.46-.38A.37.37,0,0,1,51.73,24.29Z"/><path class="cls-7" d="M38.85,24.28a.2.2,0,0,1-.11,0H38a.44.44,0,0,1,.46-.39A.37.37,0,0,1,38.85,24.28Z"/><path class="cls-8" d="M86.33,16.46H86s-.07,0-.06-.07a.46.46,0,0,1,.35-.31.41.41,0,0,1,.44.17.61.61,0,0,1,0,.12q0,.09-.06.09Z"/><path class="cls-8" d="M74.69,16.46a.46.46,0,0,1,.53-.38.38.38,0,0,1,.33.29q0,.09-.06.09Z"/><path class="cls-9" d="M40.78,20.54a.45.45,0,0,1,.65-.33.38.38,0,0,1,.16.15c.09.16.06.2-.11.2h-.57A.3.3,0,0,1,40.78,20.54Z"/><path class="cls-6" d="M79,16.79a1.74,1.74,0,0,0,.23,0c.08,0,.09,0,.08.11a.43.43,0,0,1-.57.27.2.2,0,0,1-.12-.2.19.19,0,0,1,.14-.16C78.86,16.79,79,16.8,79,16.79Z"/><path class="cls-1" d="M26.81,25a.49.49,0,0,1-.51-.52.51.51,0,0,1,.51-.53.53.53,0,0,1,.5.52A.5.5,0,0,1,26.81,25Z"/><path class="cls-7" d="M46.24,20.89a.41.41,0,0,1-.53.39.2.2,0,0,1-.16-.2.18.18,0,0,1,.17-.18A3,3,0,0,1,46.24,20.89Z"/><path class="cls-1" d="M73.39,20.37a.5.5,0,1,1-1,0,.5.5,0,0,1,.5-.53A.51.51,0,0,1,73.39,20.37Z"/><path class="cls-1" d="M34.76,20.19a.5.5,0,0,1,.5.53.5.5,0,1,1-1,0A.5.5,0,0,1,34.76,20.19Z"/><path class="cls-10" d="M83.92,21h0c-.14,0-.23-.09-.23-.2s.06-.19.22-.2h.39c.07,0,.09,0,.08.1A.41.41,0,0,1,83.92,21Z"/><path class="cls-9" d="M24.14,21.29l-.11,0a.19.19,0,0,1-.14-.2A.18.18,0,0,1,24,20.9a.89.89,0,0,1,.23,0,1.47,1.47,0,0,1,.21,0c.09,0,.11,0,.09.12A.41.41,0,0,1,24.14,21.29Z"/><path class="cls-2" d="M13.41,18.67h4c.14,0,.14,0,.19.13a2.57,2.57,0,0,0,.45.83.16.16,0,0,1,0,.2c0,.12-.09.25-.14.37a.22.22,0,0,0,0,.21,3.51,3.51,0,0,1,.3,1.63A3.18,3.18,0,0,1,18,23a1.19,1.19,0,0,1-.45.59,2.26,2.26,0,0,1-.86.4,1.37,1.37,0,0,1-.57,0l-.13,0a1,1,0,0,0-.82,0l-.85.37a3,3,0,0,0-.79.52l-.08.07s-.07,0-.07,0a.41.41,0,0,1,0-.11c0-.38,0-.75,0-1.13a.22.22,0,0,0-.14-.23,1.26,1.26,0,0,0-1.07-.1,7.75,7.75,0,0,1-1.26.32,2,2,0,0,1-.73,0c-.14,0-.14,0-.14-.16V19.9c0-.13,0-.13.12-.13a2,2,0,0,0,.76-.11,3.58,3.58,0,0,0,.82-.32A1.41,1.41,0,0,1,13,19.28a4.59,4.59,0,0,1,.47.21c0-.29,0-.56,0-.83Z"/><path class="cls-2" d="M12.4,15.54h-.9c-.14,0-.14,0-.14-.14v-.49a.16.16,0,0,1,.09-.16l.6-.29a.83.83,0,0,1,.49-.06,4.43,4.43,0,0,0,.72.09c.16,0,.16,0,.16.18v.7c0,.17,0,.17-.16.17Z"/><path class="cls-2" d="M13.41,18.53c0-.23,0-.46,0-.68s0-.14.13-.14h1.73c.14,0,.14,0,.14.15s0,.38,0,.57,0,.11-.1.11H13.41Z"/><path class="cls-3" d="M15.41,17.29c0,.05-.06,0-.09,0H13.54c-.12,0-.12,0-.12-.13v-.44c0-.13,0-.13-.14-.13H11.61c-.29,0-.24,0-.25-.25v-.33c0-.13,0-.13.14-.13h1.78c.14,0,.14,0,.14.13v.47a.14.14,0,0,0,0,.11c.09.08.07.19.08.29s.07.29.3.29h1.31C15.24,17.21,15.34,17.2,15.41,17.29Z"/><path class="cls-3" d="M8.9,15.94a.36.36,0,0,1,.17,0h1.84c.06,0,.08,0,.08.08v.54c0,.06,0,.09-.09.09H9.42c-.1,0-.15,0-.18-.12A2.1,2.1,0,0,0,8.9,15.94Z"/><path class="cls-2" d="M17.48,18.51a.15.15,0,0,1-.12,0H16c-.13,0-.14,0-.14-.13v-.59c0-.08,0-.11.1-.11h1.41s.09,0,.09.06A6,6,0,0,0,17.48,18.51Z"/><path class="cls-2" d="M15.41,17.29H13.62c-.15,0-.17,0-.17-.17v-.49h1.9c.05,0,.07,0,.07.08A3.88,3.88,0,0,1,15.41,17.29Z"/><path class="cls-2" d="M17.53,16.64c0,.07,0,.12,0,.18a2.57,2.57,0,0,0-.07.4c0,.07,0,.11-.12.11H15.94c-.12,0-.13,0-.13-.14v-.44c0-.12,0-.13.13-.13h1.42A.32.32,0,0,1,17.53,16.64Z"/><path class="cls-2" d="M11,15v.47c0,.06,0,.08-.08.09h-2a.2.2,0,0,1-.16,0L9.08,15c0-.06.07,0,.11,0l.44.13A2.49,2.49,0,0,0,10.81,15,.32.32,0,0,1,11,15Z"/><path class="cls-11" d="M13.41,18.53a.17.17,0,0,1,0,.14H9.49a.55.55,0,0,1-.18,0c0-.09,0-.13.13-.13h4Z"/><path class="cls-4" d="M15.91,15.38a.34.34,0,0,1,0,.52.42.42,0,0,1-.59,0,.36.36,0,0,1,0-.55c0,.12,0,.23.1.3a.26.26,0,0,0,.19.05C15.82,15.72,15.9,15.61,15.91,15.38Z"/><path class="cls-4" d="M11.47,17.2a.35.35,0,0,1,0,.53.43.43,0,0,1-.6,0,.36.36,0,0,1,0-.53.31.31,0,0,0,.09.28.31.31,0,0,0,.2.07C11.38,17.54,11.46,17.43,11.47,17.2Z"/><path class="cls-12" d="M9.66,16.9a.19.19,0,0,0,.17.2.18.18,0,0,0,.22-.1s0-.12.06-.13a.3.3,0,0,1,0,.4.33.33,0,0,1-.39,0,.27.27,0,0,1,0-.43s0,0,0,0Z"/><path class="cls-12" d="M12.34,16.9c0,.13.07.19.17.21a.22.22,0,0,0,.2-.08.22.22,0,0,0,0-.18c.13.14.14.26,0,.38a.32.32,0,0,1-.38.09.31.31,0,0,1-.17-.34l.06-.11S12.35,16.87,12.34,16.9Z"/><path class="cls-13" d="M12.33,17.71c0,.18.09.24.22.24s.18-.06.2-.23a.24.24,0,0,1,0,.36.32.32,0,0,1-.44,0A.26.26,0,0,1,12.33,17.71Z"/><path class="cls-13" d="M14.09,14.77c0,.18.12.26.23.26s.17-.08.22-.24a.25.25,0,0,1,0,.38.32.32,0,0,1-.42,0A.29.29,0,0,1,14.09,14.77Z"/><path class="cls-13" d="M14.53,16a.26.26,0,0,1,0,.36.31.31,0,0,1-.39.09.29.29,0,0,1-.15-.34.31.31,0,0,1,.05-.1c.09,0,0,.09.06.13a.21.21,0,0,0,.23.1.2.2,0,0,0,.16-.2S14.51,16,14.53,16Z"/><path class="cls-13" d="M16.77,15.14c0,.17.11.25.23.25s.17-.08.2-.25a.25.25,0,0,1,0,.38.32.32,0,0,1-.44,0A.27.27,0,0,1,16.77,15.14Z"/><path class="cls-13" d="M16.77,16c0,.18.1.26.21.26s.19-.07.22-.24a.25.25,0,0,1,0,.38.32.32,0,0,1-.43,0C16.66,16.29,16.65,16.14,16.77,16Z"/><path class="cls-13" d="M9.66,17.75c0,.16.09.2.21.2s.17-.05.2-.2,0,0,0,0a.27.27,0,0,1,0,.36.31.31,0,0,1-.35.09.29.29,0,0,1-.14-.45S9.67,17.72,9.66,17.75Z"/><path class="cls-14" d="M14.13,16.12c-.05,0,0-.1-.06-.13s0,0,0,0A.57.57,0,0,1,14.13,16.12Z"/><path class="cls-15" d="M10.11,16.87s0,.1-.06.13a.49.49,0,0,1,0-.12S10.09,16.85,10.11,16.87Z"/><path class="cls-16" d="M10.11,17.72l0,0s0,0,0-.05S10.1,17.7,10.11,17.72Z"/><path class="cls-17" d="M9.66,17.75l0,0s0,0,.05,0S9.67,17.73,9.66,17.75Z"/><path class="cls-18" d="M12.34,16.9l0,0s0,0,0,0S12.35,16.88,12.34,16.9Z"/><path class="cls-19" d="M14.53,16v0s0,0,0,0Z"/><path class="cls-20" d="M9.66,16.9v0s0,0,0,0A0,0,0,0,1,9.66,16.9Z"/><path class="cls-1" d="M13.26,23.06a1.94,1.94,0,0,0-.58-.12,1.7,1.7,0,0,0-.59.1,7.27,7.27,0,0,1-1.32.32l-.3,0c-.07,0-.11,0-.1-.1V20.21c0-.14,0-.15.13-.16a4.16,4.16,0,0,0,1.2-.36l.25-.11a1,1,0,0,1,.61-.1,1.87,1.87,0,0,1,.65.23.1.1,0,0,1,.07.12v3.08A.27.27,0,0,1,13.26,23.06Z"/><path class="cls-1" d="M13.51,23.13V23c0-1,0-2,0-3.06a.23.23,0,0,1,.15-.25,1.91,1.91,0,0,1,.65-.21.94.94,0,0,1,.49.12A3.73,3.73,0,0,0,16,20h.06c.07,0,.16,0,.21,0s0,.15,0,.23V23.2c0,.16,0,.17-.17.17a3.13,3.13,0,0,1-.9-.14L14.61,23a1.11,1.11,0,0,0-1,.08l0,0Z"/></svg>