<svg id="Layer_1" data-name="Layer 1" xmlns="http://www.w3.org/2000/svg" viewBox="0 0 400 400"><defs><style>.cls-1{fill:#231f20;}.cls-2{fill:#3a3738;}.cls-3{fill:#2f2b2c;}.cls-4{fill:#494646;}.cls-5{fill:#474344;}.cls-6{fill:#2a2627;}.cls-7{fill:#262223;}.cls-8{fill:#454243;}.cls-9{fill:#4b4849;}.cls-10{fill:#292627;}.cls-11{fill:#403d3e;}.cls-12{fill:#4e4b4b;}.cls-13{fill:#2b2728;}.cls-14{fill:#2e2b2c;}.cls-15{fill:#545152;}.cls-16{fill:#535051;}.cls-17{fill:#282425;}.cls-18{fill:#363334;}.cls-19{fill:#fefefe;}.cls-20{fill:#322e2f;}.cls-21{fill:#242021;}.cls-22{fill:#3e3b3c;}.cls-23{fill:#4d494a;}.cls-24{fill:#4d4a4b;}.cls-25{fill:#292526;}.cls-26{fill:#484546;}.cls-27{fill:#524f50;}.cls-28{fill:#232020;}.cls-29{fill:#5b5858;}.cls-30{fill:#413e3f;}.cls-31{fill:#565354;}.cls-32{fill:#5c595a;}.cls-33{fill:#2b2829;}.cls-34{fill:#333031;}.cls-35{fill:#454142;}.cls-36{fill:#474445;}.cls-37{fill:#343031;}.cls-38{fill:#595657;}.cls-39{fill:#403d3d;}.cls-40{fill:#4e4a4b;}.cls-41{fill:#504d4d;}.cls-42{fill:#494546;}.cls-43{fill:#322f30;}.cls-44{fill:#646162;}.cls-45{fill:#3d393a;}.cls-46{fill:#373334;}.cls-47{fill:#252122;}.cls-48{fill:#434041;}.cls-49{fill:#e6e5e5;}.cls-50{fill:#4b4748;}.cls-51{fill:#403c3d;}.cls-52{fill:#353233;}.cls-53{fill:#363233;}.cls-54{fill:#2f2c2c;}.cls-55{fill:#fdfdfd;}.cls-56{fill:#f9f9f9;}.cls-57{fill:#fbfbfb;}</style></defs><path class="cls-1" d="M354.22,20.23c2.52-.2.75,1.76,1.27,2.56-1.22,2.2-.62,4.6-.62,6.9q0,148,0,296c0,2.3-.6,4.69.62,6.9v1.28c-3.83,3.3-8.49,2.33-12.87,2.33q-133,.09-266,0c-8.53,0-17,.05-25.58,0-3.19,0-6.46.1-9-2.34v-1.28c1.23-2.21.62-4.6.62-6.9q.06-148,0-296c0-2.3.61-4.7-.62-6.9.53-.8-1.24-2.76,1.28-2.56,2.21,1.22,4.6.62,6.9.62q148.57,0,297.15,0C349.62,20.85,352,21.45,354.22,20.23Z"/><path class="cls-2" d="M354.22,20.23c-1.91,2-4.4,1.25-6.65,1.25q-148.83,0-297.65,0c-2.25,0-4.74.77-6.65-1.25Z"/><path class="cls-2" d="M42,22.79c2,1.9,1.25,4.4,1.25,6.64q.06,148.27,0,296.55c0,2.25.79,4.74-1.25,6.65Z"/><path class="cls-2" d="M355.49,332.63c-2-1.91-1.24-4.4-1.24-6.65q-.06-148.28,0-296.55c0-2.24-.8-4.74,1.24-6.64Z"/><path class="cls-3" d="M141.8,380c.36-5.79-1.05-11.77.74-17.42l1.82.1V380Z"/><path class="cls-4" d="M258.32,377.29c2.8,1.16,6.19-1.28,8.74,1.43-2.31,1.61-5.23-.37-7.53,1.28h-3.84c1.21-5.92-1.26-12.1,1.27-17.93l.61.71C258,367.6,256.81,372.52,258.32,377.29Z"/><path class="cls-5" d="M285.12,380l.17-1.35c1-2.15.19-4.45.56-6.66.46-1,1-1.63,2.16-.77-1.74,4.32-1.22,7,4.38,6.34,1.9-.23,3.95-.32,4.24,2.44Z"/><path class="cls-6" d="M303.93,367.43c-1.36-.95-2.11-1-2.07,1.06.07,3.84-.06,7.67-.11,11.51h-1.28a78.38,78.38,0,0,1,.26-18.34c2.79,1.34,3.61,3.5,4.63,5.5C305,368,304.55,368.09,303.93,367.43Z"/><path class="cls-7" d="M322.23,380c-2-5.56,1.63-11.75-2-17.18-.72-1.07.76-1.09,1.49-1.11,1.57,0,2.17.77,2.12,2.36-.15,5.31-.22,10.62-.32,15.93Z"/><path class="cls-8" d="M196.82,380a4.8,4.8,0,0,1-.33-.73c0-.11.06-.27.09-.41a2,2,0,0,1,1.6-1.55c2.74,1.61,7.17-2.35,8.88,2.69Z"/><path class="cls-9" d="M97.08,378.75,97,380h-9l.22-1.32A6.29,6.29,0,0,1,91,376.4a6.38,6.38,0,0,1,4.51.18A2.9,2.9,0,0,1,97.08,378.75Z"/><path class="cls-10" d="M333.74,380c.11-.84-2.28-2.12.31-2.46a26.2,26.2,0,0,1,4.83.21,1.39,1.39,0,0,1,1.2.95l.06,1.3Z"/><path class="cls-11" d="M233.93,380c-.49-.65-1-1.31-1.48-2a2.45,2.45,0,0,1,0-2c2.51-1.13,4.74-.49,6.82,1.09a2.35,2.35,0,0,1-.21,2.87Z"/><path class="cls-12" d="M274.88,380c-.28-1.72-1.9-3.22-.86-5.17l.86.05a2.86,2.86,0,0,1,1.09-.06,1.1,1.1,0,0,1,1.71.15,9.17,9.17,0,0,1-1.52,5Z"/><path class="cls-13" d="M212.18,380c-.1-.88-1.25-2.62-.6-2.37,1.89.72,5.47-2.06,5.72,2.37Z"/><path class="cls-14" d="M150.76,380c-.13-.84-1.27-2.63-.42-2.29,1.82.75,5.5-2.39,5.54,2.29Z"/><path class="cls-15" d="M166,377.58c2.58-.32,5.17-.67,6.47,2.42h-5.12l-1.23-2.54Z"/><path class="cls-16" d="M120.13,379a1.06,1.06,0,0,1-.08,1.05h-5.12l.1-2.52c1.52-1.56,3.19-1.52,5-.48A1.43,1.43,0,0,1,120.13,379Z"/><path class="cls-17" d="M74,380c.6-2,2-2.4,3.91-2.25,1.71.13,1.33,1.22,1.21,2.25Z"/><path class="cls-18" d="M312,380l-2.48-4c-.35-1.29.16-1.65,1.35-1.25a3.5,3.5,0,0,1,.95-.2c.8.2.88,1,1.28,1.54l.18,3.88Z"/><path class="cls-11" d="M56.08,374.78A6.23,6.23,0,0,1,54.79,380H53.51C53.52,377.84,54,375.91,56.08,374.78Z"/><path class="cls-19" d="M336.37,177.06c0,43.95-.06,87.9.09,131.84,0,4.62-.58,6.46-6,6.45q-131.77-.32-263.55,0c-4.84,0-5.9-1.17-5.89-5.93q.24-132.16,0-264.33c0-5.07,1.54-5.78,6.07-5.77q131.77.2,263.54,0c4.82,0,5.93,1.17,5.9,5.94C336.29,89.16,336.37,133.11,336.37,177.06Z"/><path class="cls-20" d="M90.62,363.35a56.55,56.55,0,0,0-.05,14.18l-2.29,1.15q-.11-8.31-.23-16.62a2.33,2.33,0,0,1,2.57-.3,1.1,1.1,0,0,1,.31,1.06C90.82,363.17,90.72,363.35,90.62,363.35Z"/><path class="cls-21" d="M198.18,377.31l-1.6,1.55c-1.13-5.61-.69-11.15-.32-16.7h1.92Z"/><path class="cls-16" d="M105.83,363.3c2,5.06,1.38,10.12.36,15.2C104.08,373.49,104.68,368.4,105.83,363.3Z"/><path class="cls-7" d="M72.59,362.15v14.46C69.82,372,70.43,367.12,72.59,362.15Z"/><path class="cls-22" d="M174.15,375.91V362.07A14.41,14.41,0,0,1,174.15,375.91Z"/><path class="cls-23" d="M238,372.36c-1.44-.15-2.37-1.85-4-1.32.69-2-.93-3.49-1.18-5.27-.37-2.55,1.31-3.88,3.33-4.51,1.74-.54,2.06.7,1.61,2.17,0,.24-.07.48-.1.73a5.33,5.33,0,0,0,0,3.57l.15.72C237.78,369.75,237.86,371.06,238,372.36Z"/><path class="cls-24" d="M113.67,364.55c0,3.88,0,7.75,0,11.63C110.05,373,110.06,368.23,113.67,364.55Z"/><path class="cls-7" d="M166.16,377.46c-5.93-4.36-1.21-10.13-2.87-15.06l1.73-.23,1,15.41Z"/><path class="cls-25" d="M81.48,376.74V362.31A18.06,18.06,0,0,1,81.48,376.74Z"/><path class="cls-26" d="M98.55,373.68c.3-2.83-1.4-5.91,1-8.47a11.52,11.52,0,0,1,0,11C98.57,375.67,99.18,374.42,98.55,373.68Z"/><path class="cls-27" d="M120.08,377.57c2.37-3.67,1.36-7.74,1.43-11.69a1,1,0,0,1,1.59.38c.55,2.83-.49,5.78.64,8.56,0,2.45-1.66,3.4-3.61,4.13Z"/><path class="cls-28" d="M313.09,376.12l-1.28-1.54V362.31l1.28-.1Z"/><path class="cls-29" d="M274.88,374.88l-.44,0-.42-.09c-2.31-2.05-2.87-4.74-2.8-7.66a.74.74,0,0,1,1.28-.05C274.39,369.37,274.6,372.14,274.88,374.88Z"/><path class="cls-30" d="M135.34,370.85a10.45,10.45,0,0,1,2.65-9.1C138.75,365.27,136.85,368,135.34,370.85Z"/><path class="cls-3" d="M134.43,372.43c.72,2.76.06,4.78-2.05,6-.29.17-1.54-.62-1.78-1.2C129,373.42,134.64,375.32,134.43,372.43Z"/><path class="cls-31" d="M277.57,369.79c.61-2,1.22-4.06,2.24-7.5,1.91,4.41.41,6.76-.83,9.14C278.09,371.25,278,370.35,277.57,369.79Z"/><path class="cls-32" d="M333.41,370.23a7.2,7.2,0,0,1-1.08-.62c-1.77-1.42-1.68-3.27-1-5.12.15-.37,1.29-.8,1.52-.62,1.59,1.23.16,3.13.85,4.61A1,1,0,0,1,333.41,370.23Z"/><path class="cls-2" d="M157.54,370.86c2.68,1.54,2.89,3.67,1.5,6.31-3.07-.56-.45-4.46-3.1-5.11C155.85,370.83,156.26,370.26,157.54,370.86Z"/><path class="cls-33" d="M288,371.22l-2,1.16-.74-.06v-2.59c.43-.55.48-1.4,1.33-1.6,2,3.07,5.76.12,8.1,2.36C292.58,372.17,290.24,371.24,288,371.22Z"/><path class="cls-21" d="M286.6,368.13c-.44.54-.88,1.07-1.33,1.6.76-2.62-2.91-6.6,2.42-7.8.74.48.73.95,0,1.41C287.31,364.94,287,366.53,286.6,368.13Z"/><path class="cls-34" d="M183.87,365.6c.19-1.45.24-3.51,1.9-3.53,2.23,0,1.77,2.33,2.11,3.84a3.23,3.23,0,0,1-1,1.21,3.1,3.1,0,0,1-2.33.46C183.73,367.1,183.37,366.49,183.87,365.6Z"/><path class="cls-24" d="M130.53,373.5c-1.64-1.83-3.16-3.76-1.71-7.31A8.52,8.52,0,0,1,130.53,373.5Z"/><path class="cls-35" d="M157.54,370.86l-1.6,1.2c-2.12-.85-5.07.24-6.28-2.71l.39-.53C152.58,369.36,155.37,369,157.54,370.86Z"/><path class="cls-36" d="M218.39,372.57c-2.11-1.49-5.42-.13-7-2.94a1.06,1.06,0,0,1,.71-1c1.8,1.72,6.77-1.35,6.13,4.06Z"/><path class="cls-37" d="M333.41,370.23l.33-1.75c2.38,1.77,6.51-.12,7.88,3.77a.92.92,0,0,1-1.62.12Z"/><path class="cls-38" d="M63.48,371.08c-1.55-1.38-1.57-3.42-2.24-5.19a1.54,1.54,0,0,1,1.29-1.38,11.08,11.08,0,0,1,2.31,6.59C64.38,371.68,63.93,371.67,63.48,371.08Z"/><path class="cls-1" d="M182.84,375.11l-2.69,1.2a5.86,5.86,0,0,1,1.19-5.35c1-.55,1.63.05,2.15.84a4.09,4.09,0,0,1,.23,1.77A4.54,4.54,0,0,1,182.84,375.11Z"/><path class="cls-31" d="M212.13,368.67l-.71,1c-3.44-1.77-2.33-3.82-.16-7.05Z"/><path class="cls-36" d="M62.53,364.51l-1.29,1.38H59.86c-.43.72-.91.75-1.43.09-1-2.24,1-3.47,2.18-4C61.93,361.41,62.44,363.19,62.53,364.51Z"/><path class="cls-39" d="M240.43,376l-1.33-2.26c2.52.79,3.65-1.19,4.92-3.24,1.36,2.92-.44,4.52-1.07,6.37Z"/><path class="cls-3" d="M57.3,373.06c2.08.93,4.26.64,6.43.49a1.13,1.13,0,0,1-.06,1.53c-2.59,1.05-5.14.23-7.7-.18C56.42,374.29,56.86,373.67,57.3,373.06Z"/><path class="cls-40" d="M186.76,365.85a1.79,1.79,0,0,1,1.12.06c1.9,1.24,1.76,3.38,2.3,5.22-.36.95-.85,1.71-2.07,1.42C185.81,370.7,185.06,368.52,186.76,365.85Z"/><path class="cls-41" d="M150.05,368.82a2.9,2.9,0,0,0-.39.53c-3-2.49-3.42-4.61.87-6.07l-.16-.14Z"/><path class="cls-42" d="M58.43,366l1.43-.09c-.31,2.54-.8,5-2.55,7C54.64,370.12,58.31,368.34,58.43,366Z"/><path class="cls-43" d="M287.67,363.34l0-1.41a20.51,20.51,0,0,1,8.25-.18c0,.53,0,1.06,0,1.59Z"/><path class="cls-44" d="M272.5,367.12l-1.28.05a4.53,4.53,0,0,1-1.09-6.13C272.06,362.62,272.39,364.83,272.5,367.12Z"/><path class="cls-45" d="M150.53,363.28c1.79-3.28,3.93-2.33,6.16-.14h-6.31Z"/><path class="cls-4" d="M266.72,361a4.4,4.4,0,0,1,.11,1.08c-3.12,1.07-6.3.57-9.47.36l-.4-.41C260.07,360.38,263.53,361.93,266.72,361Z"/><path class="cls-46" d="M340,372.37l1.62-.12c2.55,2.88,1.69,4.95-1.54,6.45l-1.2-.95C340.87,376.3,341.56,374.57,340,372.37Z"/><path class="cls-26" d="M218.26,372.73c3.7.39,3.7.39,1.42,4.81-1.67-1.42.43-3.77-1.28-5Z"/><path class="cls-47" d="M189.08,372.42l1.1-1.29c.56,2,2.1,3.83,1.43,6.15L189,375.21a2.59,2.59,0,0,1-.68-1.42A2.22,2.22,0,0,1,189.08,372.42Z"/><path class="cls-1" d="M63.67,375.08l.06-1.53c-.08-.82-.16-1.65-.25-2.47l1.36,0c-.13,2.18,2.3,3.79,1.35,6.14Z"/><path class="cls-40" d="M303.93,367.43l1.43-.27,3.56,4.95a1.06,1.06,0,0,1-1.74.11A7.22,7.22,0,0,1,303.93,367.43Z"/><path class="cls-48" d="M182.79,372.4,181.34,371c.84-1.79,1.69-3.57,2.53-5.36l1.06,1.56C186.09,369.67,186.11,371.72,182.79,372.4Z"/><path class="cls-1" d="M120,363.53l-6.27-.33c1.84-2.16,4-2.36,6.29-.84.36.26.48.52.35.79S120.13,363.53,120,363.53Z"/><path class="cls-25" d="M123.74,374.82c-1.93-2.79-.53-6-1-8.91.31-.53.61-.53.9,0Q123.67,370.38,123.74,374.82Z"/><path class="cls-49" d="M97.05,361.88a6.24,6.24,0,0,1-6.43.12l-2.57.06"/><path class="cls-50" d="M237.68,363.43c1.08-.26,2.42-1.25,2.88.7.57,2.39-.3,3.95-2.86,4.32l.12.09c-1.58-1.75-1-3.5,0-5.25Z"/><path class="cls-6" d="M98.55,373.68l1.07,2.56a3,3,0,0,1-2.54,2.51l-1.27-1.11A5.23,5.23,0,0,0,98.55,373.68Z"/><path class="cls-22" d="M232.52,371.12c.08,1.59.17,3.18.26,4.77l-.33,2.15C230.15,375.71,230,373.4,232.52,371.12Z"/><path class="cls-51" d="M277.57,369.79l1.41,1.64c-.2,1.27,0,2.69-1.3,3.54l-1.71-.15C276.51,373.14,277,371.47,277.57,369.79Z"/><path class="cls-38" d="M126.67,361.56c2,1,2.45,2.27,2,3.83-.09.31-1.45.65-1.52.53C126.39,364.71,125.6,363.44,126.67,361.56Z"/><path class="cls-52" d="M90.62,362l6.43-.12,1.14,1.3-7.57.17Z"/><path class="cls-31" d="M307.18,372.22l1.74-.11,1.94,2.67L309.51,376C308.25,375.06,307.08,374,307.18,372.22Z"/><path class="cls-47" d="M285.26,372.32l.74.06c0,2.11.93,4.34-.71,6.27Z"/><path class="cls-53" d="M123.61,365.94h-.45l-.45,0h-.6l-.6,0L120,363.53a5.09,5.09,0,0,1,0-1.17C122.2,362.57,123.13,364,123.61,365.94Z"/><path class="cls-20" d="M257.36,362.48l9.47-.36c-.75,2.4-2.73,1.12-4.12,1.24-2.29.2-4.62-.5-4.51,3.35.1,3.53,2.25,2.84,4.28,2.9,1,0,2,.13,5.08.34-5.11,1.95-11.37.42-9.24,7.34C255.66,372.51,257.52,367.43,257.36,362.48Z"/><path class="cls-54" d="M189.05,373.38l0,1.83a10.75,10.75,0,0,1-6.18-.1V373.4A5.55,5.55,0,0,1,189.05,373.38Z"/><path class="cls-1" d="M211.16,197.59c2.71-11,5-20.14,7.27-29.31,1-4.06,7.21-6.75,10.78-4.78,1.62.9.88,2.16.58,3.28-4.22,15.85-8.56,31.66-12.64,47.54-.88,3.45-3,3.31-5.7,3.47-3,.19-4.61-.77-5.46-3.8-2.6-9.21-5.45-18.35-8.68-29.15-3.08,10.19-5.79,18.94-8.33,27.74-1,3.31-2,5.41-6.32,5.33-4.12-.09-4.77-2.09-5.59-5.25-4.2-16.23-8.6-32.42-12.95-48.68,10.84-1.33,10.85-1.33,13.17,8.31,1.9,7.86,3.77,15.72,6.06,25.31,3.11-10.68,5.78-19.82,8.42-29,.82-2.85,1.21-5.38,5.52-5.41s4.7,2.58,5.51,5.42C205.42,177.74,208.06,186.85,211.16,197.59Z"/><path class="cls-21" d="M119.8,266.15c0,8.32-.29,16.64.11,24.94.24,5-2.74,4.31-5.68,4.19-2.69-.11-6.23,1.3-5.87-3.93s-.09-10.66.14-16c.13-3.17-.55-4.4-4.12-4.51-15.54-.48-15.53-.62-15.54,14.7a31.1,31.1,0,0,0,0,5.11c.88,5.27-2.64,4.5-5.87,4.69-3.72.21-5.73-.26-5.64-5q.48-24.28,0-48.6c-.1-4.94,2.29-4.89,5.8-4.87s6.26-.12,5.78,4.89,0,10.23-.15,15.34c-.09,2.67.66,4.1,3.54,3.72a3.42,3.42,0,0,1,.64,0c15.45.75,15.45.75,15.46-14.77a22.23,22.23,0,0,0,0-3.83c-.84-4.89,1.72-5.36,5.81-5.43,4.4-.07,5.94,1,5.7,5.66C119.51,250.36,119.8,258.26,119.8,266.15Z"/><path class="cls-1" d="M170.78,266.15c-.17,3.39-.24,6.58-.51,9.76-1,12.14-8.87,19.61-20.69,19.77-12.24.17-20.67-7.21-21.56-19.53a134.87,134.87,0,0,1,0-20.4c1-12,9.32-19.21,21.27-19.16s19.85,7.5,20.91,19.56C170.54,259.54,170.62,262.94,170.78,266.15Z"/><path class="cls-21" d="M281.77,265.72c0-7.88.17-15.76-.08-23.63-.11-3.7.6-5.35,4.82-5.21,9.78.31,19.58.29,29.36,0,4.3-.13,4.22,2.16,4.16,5.17,0,2.83.48,5.44-4,5.17-6.15-.38-12.35,0-18.51-.15-3.1-.09-4.48.5-4.53,4.12-.14,9.66-.35,9.66,9.17,9.66,2.55,0,5.17.35,7.65-.07,5.79-1,6.71,1.82,6.3,6.75-.24,2.81-1.09,3.64-3.79,3.55-4.89-.17-9.8.17-14.68-.12-3.65-.22-5.11,1-4.58,4.65a14.5,14.5,0,0,1,0,4.46c-.78,4.55,1.48,5.3,5.41,5.12,5.94-.29,11.93.17,17.87-.16,4.15-.24,3.79,2.19,3.65,4.81s1.05,5.64-3.7,5.53c-10.21-.25-20.43-.19-30.65,0-3.16.05-4-1.11-3.92-4.09C281.87,282.76,281.77,274.24,281.77,265.72Z"/><path class="cls-1" d="M319.85,217.41c-12,.7-12,.69-16.83-9.34-1.58-3.25-3.37-6.4-4.74-9.73s-4.22-2.3-6.57-2.28c-3.06,0-2.13,2.58-2.16,4.32-.08,3.83-.24,7.68,0,11.5s-.1,6.18-5.18,6c-4.44-.14-5.68-1.27-5.59-5.72.29-14.7.21-29.4,0-44.1,0-3.49.71-5,4.52-4.76,6.16.31,12.36-.1,18.52.18,7.54.34,13.3,4.88,15.24,11.51,2.07,7,.13,13.36-6.39,17.77-2.56,1.74-2.25,2.79-1.11,4.91C313,204,316.25,210.44,319.85,217.41Z"/><path class="cls-1" d="M178.45,258.6c0-6,.17-11.93-.06-17.89-.22-5.35,3.6-3.45,6.15-3.69,2.79-.27,5.37-.63,5.24,3.92-.32,11.07-.26,22.16-.05,33.23.14,7.82,4,11.64,10.71,11.3,5.89-.3,9.23-3.91,9.32-10.67.15-11.07.36-22.16-.08-33.22-.22-5.31,2.76-4.61,6-4.62,3,0,5.76-.61,5.59,4.29-.38,11.5.07,23-.19,34.51-.27,11.92-9,19.9-21.23,19.93s-20.88-7.92-21.32-19.83C178.28,270.11,178.46,264.35,178.45,258.6Z"/><path class="cls-1" d="M249,295.67c-5.41,0-10.74-.74-15.2-4-1.55-1.12-6.29-1.68-3.23-5,2-2.12,3.27-7.88,8.71-3.91,4.37,3.19,9.66,3.11,14.78,2.36,3.68-.55,6.39-2.62,6.54-6.68s-2.46-6.14-6.21-6.83c-3.35-.62-6.75-1-10.08-1.67-8.05-1.73-12.34-6.33-13-13.65-.71-8.28,3-15.18,10.41-18a27.59,27.59,0,0,1,23.48,1.38c1.7.91,5.69,2.11,3.74,4.39s-3.2,8-8.63,4.39c-3.35-2.23-7.29-2.24-11.14-1.82s-6.41,2.43-6.79,6.43c-.4,4.29,2.35,6.09,6.06,6.82,3.34.65,6.74,1,10.06,1.76,8.38,1.86,12.35,6.29,13,14.28s-2.81,14.18-10.1,17.48A27.23,27.23,0,0,1,249,295.67Z"/><path class="cls-21" d="M161.92,190.57c0,3,.23,6,0,8.92-1.08,11.69-8.83,18.89-20,18.79S123,211,122.28,199.18a134,134,0,0,1,.19-19.11c.85-10.13,8.38-16.77,18.74-17.22,10.18-.43,18.4,5.81,20.15,15.66.7,4,.71,8,1,12Z"/><path class="cls-1" d="M235.16,190.62c0-7.67.17-15.36-.08-23-.11-3.45,1-4.34,4.33-4.26,9.16.2,18.33.3,27.49,0,4.39-.16,4,2.23,4.11,5.15.16,3.24-.65,4.61-4.18,4.42-5.32-.29-10.69.29-16-.18-5.12-.46-5.55,2.12-5.19,6,.3,3.31-1.44,7.69,4.88,6.92a79.16,79.16,0,0,1,10.22-.06c3.18,0,6.53-1.27,6.63,4.61.11,6.31-3.57,4.89-7,5-2.13,0-4.26,0-6.39,0-8.18,0-10.4,3.05-8.42,11,.63,2.51,2.26,2.09,3.87,2.1,6,0,11.95.23,17.9-.06,4.29-.21,3.39,2.51,3.57,5,.22,3-.25,4.68-4,4.58-9.37-.26-18.75-.23-28.12,0-3.32.08-3.81-1.3-3.75-4.13C235.26,206,235.16,198.3,235.16,190.62Z"/><path class="cls-21" d="M78.17,190c0-7.25.14-14.51-.07-21.76-.1-3.37.48-5.1,4.43-4.89,6.38.34,12.81-.17,19.18.27a16.42,16.42,0,0,1,15.54,17.11c-.19,8.85-6.56,15.36-15.6,16.52-4.21.54-9.91-2.42-12.28,1.81-1.82,3.26-.55,8.33-.42,12.58.12,3.66.39,6.4-5,6.32-5-.06-6.09-1.57-5.84-6.2C78.45,204.49,78.17,197.22,78.17,190Z"/><path class="cls-55" d="M159.56,266c-.32,3.83-.4,7.67-1,11.42-.81,5-3.94,7.92-9.13,8-5.48.1-9-2.82-9.75-8.1a79.59,79.59,0,0,1,.09-22.86c.78-5,4.3-7.71,9.44-7.7s8.45,2.75,9.31,7.81C159.15,258.35,159.23,262.2,159.56,266Z"/><path class="cls-56" d="M289.5,179.21c-.84-4.26.11-7.09,6.41-6.58,7.71.63,11.23,2.38,11.26,7.35s-3.26,7.16-11.18,7.16C289.5,187.14,289.5,187.14,289.5,179.21Z"/><path class="cls-55" d="M132.55,190.5c.16-3.41.06-6.85.55-10.21.76-5.16,4-8,9.26-7.8,4.92.16,7.85,3,8.52,7.89a74.28,74.28,0,0,1,0,20.42c-.68,4.9-3.68,7.71-8.59,7.82-5.2.11-8.46-2.75-9.2-7.9C132.6,197.36,132.71,193.92,132.55,190.5Z"/><path class="cls-57" d="M89,179.74c-.94-4.88,0-7.65,6.33-7.1,7.51.66,11,2.41,11.23,7.41.2,5.31-3.42,7.08-11.34,7.9C87.75,188.73,88.66,184.42,89,179.74Z"/></svg>