<svg id="Layer_1" data-name="Layer 1" xmlns="http://www.w3.org/2000/svg" viewBox="0 0 100 40"><path d="M68.9,24.3H65.61V11.44l-.07,0a2.48,2.48,0,0,0-.19.26,16.6,16.6,0,0,0-2.29,7.5,13.74,13.74,0,0,0,1.42,7.54,9.14,9.14,0,0,0,2.69,3.17,1.19,1.19,0,0,0,1.08.2,8.94,8.94,0,0,0,3.94-2.25A23.12,23.12,0,0,0,74,25.91a2.9,2.9,0,0,1-2.47-1.84L73,23.42c0-.07-.06-.11-.09-.13C71.05,22,70.64,20.09,70.72,18c0-1.25.09-2.5.14-3.75v-.48H69.27V11h1.6V7.83c0-.1.08-.28.17-.3.91-.26,1.83-.5,2.8-.76V11h2.29v2.76H74.36c-.52,0-.53,0-.52.53,0,1.74,0,3.49,0,5.24a2.46,2.46,0,0,0,1.65,2.23.53.53,0,0,0,.42-.1,26.65,26.65,0,0,0,5.88-5.23,1,1,0,0,1,.84-.44,3.82,3.82,0,0,0,.68-.06l.75,0c1.22,4.31,1.7,8.62.25,13-.59-.17-1.13-.32-1.66-.5a.56.56,0,0,0-.67.16,13.74,13.74,0,0,1-7.49,4,12.09,12.09,0,0,1-4.68-.19c-1.38-.31-2.79-.53-4.17-.85a6.62,6.62,0,0,1-4.69-4,12.69,12.69,0,0,1-1-6.52A20.91,20.91,0,0,1,64.4,9.89a3.16,3.16,0,0,1,.48-.55,1.88,1.88,0,0,0,.72-1.91,1.62,1.62,0,0,1,0-.31,8.83,8.83,0,0,0,1.15,0,1.63,1.63,0,0,0,.77-.25,12.48,12.48,0,0,1,5.91-2.48,8.55,8.55,0,0,1,2.94.12c-.46,0-.86,0-1.26,0a8.46,8.46,0,0,0-1.23.17A11.4,11.4,0,0,0,69.23,7a.82.82,0,0,0-.34.71q0,8.07,0,16.13Z"/><path d="M32.65,27,35,25.34c1.65,1.92,3.64,2.07,5.77,1a4,4,0,0,0,1.76-3.92,2.73,2.73,0,0,0-.25.2A6.1,6.1,0,0,1,35.87,24a6,6,0,0,1-4.21-4.87,6.64,6.64,0,0,1,2.46-7A6.77,6.77,0,0,1,40.27,11a4.17,4.17,0,0,1,1.95,1.17l.26.25h.08c0-.44,0-.88.08-1.35h2.74c0,.13,0,.24,0,.36,0,3.79,0,7.58,0,11.37a6.6,6.6,0,0,1-3.62,6.16,7.47,7.47,0,0,1-8.95-1.67A1.75,1.75,0,0,1,32.65,27Zm10-9.5a4,4,0,0,0-3.94-4.12h-.11a4,4,0,0,0-3.93,4,4,4,0,0,0,4,4.12,3.92,3.92,0,0,0,4-4Z"/><path d="M46.33,11.05h2.89v1.5l.22-.18a5.25,5.25,0,0,1,9.11,3.32c.14,2.67.06,5.35.07,8v.58h-3v-7a8.11,8.11,0,0,0-.07-1.21,2.78,2.78,0,0,0-3.28-2.44A3.08,3.08,0,0,0,49.23,17c0,2.26,0,4.52,0,6.77v.52h-2.9Z"/><path d="M27.24,12.57l-1.62,2c-.75-.4-1.44-.83-2.17-1.13a3.66,3.66,0,0,0-2.76-.06,1.65,1.65,0,0,0-1.06.92,1,1,0,0,0,.52,1.39,11,11,0,0,0,2,.6c1,.24,1.95.39,2.91.63a3.52,3.52,0,0,1,1.76,5.9,5.85,5.85,0,0,1-3.62,1.84A8.92,8.92,0,0,1,16,22.37l2-2A5.76,5.76,0,0,0,20.34,22a4.45,4.45,0,0,0,3.38,0,2.62,2.62,0,0,0,.49-.27,1.11,1.11,0,0,0-.05-2A8.12,8.12,0,0,0,22.32,19c-1.05-.29-2.11-.51-3.16-.79a3.45,3.45,0,0,1-1.57-5.84,5.69,5.69,0,0,1,3.79-1.66A8.77,8.77,0,0,1,27.24,12.57Z"/><path d="M28,11.05h2.9V24.28H28Z"/><path d="M29.43,10a1.61,1.61,0,1,1,.06-3.21,1.64,1.64,0,0,1,1.64,1.65v0A1.6,1.6,0,0,1,29.43,10Z"/><path d="M46.05,32.76H44.83V31.54h1.22Z"/><path d="M29.29,32.76H28.05V31.53h1.24Z"/><path d="M20,32.93V31.28h1.09v.08h-.93V32H21v.13h-.9v.66h1.1c.17-.42.33-.85.52-1.28a.87.87,0,0,1,.19-.23.71.71,0,0,1,.19.23c.19.46.37.93.55,1.4l-.14.11a1.72,1.72,0,0,1-.07-.21c-.07-.25-.17-.42-.5-.41s-.48.06-.57.37a.35.35,0,0,1-.25.17C20.77,32.94,20.38,32.93,20,32.93Zm2.3-.68c-.12-.29-.21-.51-.33-.82l-.32.82Z"/><path d="M32.4,31.29V32.9l-.11.07-1-1.34-.08,0V32.9h-.1V31.21c.49.34.64.93,1.13,1.37V31.29Z"/><path d="M32.78,32.9V31.2c.5.37.67.93,1.12,1.38v-1.3H34V32.9l-.09.08-1-1.43v1.34Z"/><path d="M18.58,32.15c0,.3,0,.53,0,.75h-.08V31.26c.28,0,.57,0,.85,0s.47.28.35.47,0,.62,0,.92a.45.45,0,0,1-.06.28c-.08-.22-.09-.53-.24-.65S18.87,32.19,18.58,32.15Zm0-.83v.81a6.45,6.45,0,0,0,.85-.27s0-.3,0-.31A8,8,0,0,0,18.59,31.32Z"/><path d="M35.93,32.08a.78.78,0,0,1-.79.87.77.77,0,0,1-.78-.87.79.79,0,0,1,.78-.88A.81.81,0,0,1,35.93,32.08Zm-1.41,0a.64.64,0,0,0,.64.72c.38,0,.61-.31.61-.74a.63.63,0,1,0-1.25,0Z"/><path d="M27,32.11h-.9v.69h1v.1H26V31.28H27v.07l-.93,0V32H27Z"/><path d="M47.48,31.27h1.08v.08l-.93,0V32h.9v.11l-.9,0v.64h1v.1H47.47Z"/><path d="M58,32.81h1v.08H57.81V31.28h1.07v.07l-.93,0V32h.9v.11l-.91,0Z"/><path d="M42.54,32h.84v.1l-.85,0v.64h.92v.11H42.37V31.27h1v.07l-.89.06Z"/><path d="M52.57,32.91H51.48V31.27h1.06v.08l-.9,0V32l.84,0v.09l-.86,0v.66h.94Z"/><path d="M54.2,31.76c-.44-.47-.76-.53-1.05-.22a.84.84,0,0,0,0,1.13c.31.27.59.17,1-.34a.54.54,0,0,1-.56.63.76.76,0,0,1-.84-.77.86.86,0,0,1,.69-1A.6.6,0,0,1,54.2,31.76Z"/><path d="M18,31.71c-.61-.41-.89-.43-1.12-.09a.84.84,0,0,0,.17,1.09c.3.22.57.12,1-.39a.52.52,0,0,1-.42.61h-.06a.74.74,0,0,1-.89-.57.17.17,0,0,1,0-.07.85.85,0,0,1,.59-1.08.61.61,0,0,1,.77.39A.36.36,0,0,1,18,31.71Z"/><path d="M38.81,33c-.21-.21-.2-.6-.68-.59s-.41.42-.72.53c.2-.5.41-1,.63-1.53,0,0,.23-.06.23,0,.22.52.43,1,.64,1.57Zm-.32-.71-.35-.8c-.12.34-.21.56-.3.8Z"/><path d="M25.06,32.72l.55-1.48.14.05-.61,1.65H25a8.74,8.74,0,0,1-.66-1.65l.13-.05C24.66,31.7,24.84,32.16,25.06,32.72Z"/><path d="M36.75,32.73l.55-1.49.14.06L36.83,33l-.17,0-.61-1.68.14-.05C36.36,31.7,36.53,32.16,36.75,32.73Z"/><path d="M40.91,31.24l.55,1.49L42,31.24l.14.06L41.55,33h-.16c-.2-.55-.42-1.1-.63-1.65Z"/><path d="M56.82,33l-.62-1.67.14-.05.57,1.47.55-1.47.14.06L57,32.94Z"/><path d="M48.91,32.9V31.27h1v.07l-.81.06V32l.74,0v.1l-.76,0c0,.27,0,.51,0,.76Z"/><path d="M50.34,32.14c0,.28,0,.52,0,.76h-.1V31.28h1v.07l-.82,0V32h.74v.11Z"/><path d="M39.54,31.42,39,31.34v-.06h1.2v.06l-.53.07v1.5h-.13Z"/><path d="M55.6,31.35l-.52.06V32.9H55V31.42l-.56-.07v-.06h1.2Z"/><path d="M23.76,31.34l-.54.07v1.5H23.1V31.42l-.56-.07v-.07h1.2Z"/><path d="M55.89,32.91V31.29H56v1.62Z"/><path d="M30.71,31.29v1.62h-.08V31.29Z"/><path d="M24,32.9V31.29h.08v1.62Z"/><path d="M40.54,31.29v1.62h-.07V31.29Z"/></svg>