<?xml version="1.0" encoding="utf-8"?>
<!-- Generator: Adobe Illustrator 24.0.2, SVG Export Plug-In . SVG Version: 6.00 Build 0)  -->
<svg version="1.1" id="Layer_1" xmlns:serif="http://www.serif.com/"
	 xmlns="http://www.w3.org/2000/svg" xmlns:xlink="http://www.w3.org/1999/xlink" x="0px" y="0px" width="221.1px" height="147.4px"
	 viewBox="0 0 221.1 147.4" style="enable-background:new 0 0 221.1 147.4;" xml:space="preserve">
<path d="M184.2,147.1V93.3c0-26.4-5.7-46.8-36.6-46.8c-14.8,0-24.9,8.1-28.9,15.9h-0.4V49H88.9v98.4h30.5V98.5
	c0-12.9,2.4-25.3,18.3-25.3c15.6,0,15.9,14.7,15.9,26.1v47.8C153.7,147.1,184.2,147.1,184.2,147.1z M69.8,48.9H39.2v98.4h30.6V48.9z
	 M54.5,0c-9.8,0-17.7,8-17.7,17.7s8,17.7,17.7,17.7s17.7-8,17.7-17.7S64.3,0,54.5,0z"/>
</svg>
