<svg xmlns="http://www.w3.org/2000/svg" width="150" height="150" viewBox="0 0 150 150">
  <title>vgb</title>
  <path d="M108.029,70.323h5.29a1.193,1.193,0,0,1,.747,1.263,1.161,1.161,0,0,1-.747,1.029h-5.29Zm0,8.18V76.186h6.037a1.271,1.271,0,0,1,0,2.317Zm-31.546-8.18V67.589H62.5c-2.151,0-3.694.207-5.14,1.755A5.3,5.3,0,0,0,55.806,73.4V78.5a4.588,4.588,0,0,0,1.478,2.673c1.5,1.453,3.346,1.222,5.215,1.222h8.263c2,0,3.443.075,4.675-1.371A3.922,3.922,0,0,0,76.483,78.5V73.4H70.762v2.788a2.573,2.573,0,0,1-.748,1.42,2.773,2.773,0,0,1-2.375.9H65.023a2.132,2.132,0,0,1-2.075-.9,2.069,2.069,0,0,1-.449-1.719V73.4a2.4,2.4,0,0,1,.747-2.335,2.355,2.355,0,0,1,1.927-.74Zm1.013,0H98.961V67.589H77.5Zm42.74-2.734H139.2v2.734H121.955a3.3,3.3,0,0,0-1.719-2.734Zm-19.124,0h16.749a3.067,3.067,0,0,1,2.973,3.175,2.849,2.849,0,0,1-1.719,2.634,4.523,4.523,0,0,1,2.616,4.507,4.645,4.645,0,0,1-3.87,4.493H101.112ZM139.2,82.4h-7.291V80.176h-3.133v-.8h3.133V76.531h-3.133v-.854h3.133V73.4H139.2v1.595h-4.386v2.165H139.2v1.594h-4.386V80.8H139.2Zm-17.842,0a6.154,6.154,0,0,0,2.076-4.493,5.644,5.644,0,0,0-2.076-4.507H130.8v1.595h-4.443v2.165H130.8v1.594h-4.443V80.8H130.8V82.4Zm-28.111,0H85.954V80.176H82.822v-.8h3.132V76.531H82.822v-.854h3.132V73.4h7.292v1.595H88.86v2.165h4.386v1.594H88.86V80.8h4.386Zm-17.667,0A5.089,5.089,0,0,0,77.287,80.8a5.051,5.051,0,0,0,.228-2.051L77.5,73.4h7.86v1.595H80.914v2.165h4.442v1.594H80.914V80.8h4.442V82.4Zm-27.639,0H40.649V80.176H37.516v-.8h3.133V76.531H37.516v-.854h3.133V73.4H47.94v1.595H43.554v2.165H47.94v1.594H43.554V80.8H47.94Zm-18.684,0v-5.24l2.621-3.76h7.86v1.595H35.294v2.165h4.443v1.594H35.294V80.8h4.443V82.4ZM10.8,67.589h7.975l5.24,9.341,6.152-9.341h26.4a8.741,8.741,0,0,0-2.621,2.734H32.56L24.586,82.4h-5.81Z" fill-rule="evenodd"/>
</svg>
