<svg xmlns="http://www.w3.org/2000/svg" xmlns:xlink="http://www.w3.org/1999/xlink" width="70.856" height="15.525" viewBox="0 0 70.856 15.525">
  <defs>
    <clipPath id="a" transform="translate(0.012)">
      <rect width="70.845" height="15.525" fill="none"/>
    </clipPath>
  </defs>
  <title>bloom-l</title>
  <g>
    <g clip-path="url(#a)">
      <path d="M7.952,7.669a3.649,3.649,0,0,1,2.662,3.573c0,2.487-2.129,4.279-4.838,4.279H.41A.418.418,0,0,1-.012,15.1V.417A.42.42,0,0,1,.41,0H5.489C8.128,0,10.17,1.774,10.17,4.1A3.894,3.894,0,0,1,7.952,7.561v.108M5.269,6.519A1.865,1.865,0,0,0,7.13,4.524,1.775,1.775,0,0,0,5.269,2.636H2.85V6.519Zm.31,6.386A1.94,1.94,0,0,0,7.531,10.89,1.9,1.9,0,0,0,5.579,8.956H2.85v3.949Z" transform="translate(0.012)"/>
      <path d="M11.817.486A.52.52,0,0,1,12.3,0h1.8a.52.52,0,0,1,.487.486V15.035a.507.507,0,0,1-.487.49H12.3a.506.506,0,0,1-.487-.49V.486" transform="translate(0.012)"/>
    </g>
    <path d="M37.473,12.752a.532.532,0,0,1,.507.486v1.8a.532.532,0,0,1-.507.486H27.989a.513.513,0,0,1-.5-.486v-1.8a.513.513,0,0,1,.5-.486h9.484" transform="translate(0.012)"/>
    <path d="M21.026,4.811a5.356,5.356,0,1,1-5.236,5.321,5.322,5.322,0,0,1,5.236-5.321m0,8.182a2.779,2.779,0,0,0,2.685-2.861,2.675,2.675,0,1,0-5.345,0,2.759,2.759,0,0,0,2.66,2.861" transform="translate(0.012)"/>
    <path d="M44.419,4.811a5.356,5.356,0,1,1-5.236,5.321,5.322,5.322,0,0,1,5.236-5.321m0,8.182A2.778,2.778,0,0,0,47.1,10.132a2.675,2.675,0,1,0-5.345,0,2.759,2.759,0,0,0,2.66,2.861" transform="translate(0.012)"/>
    <path d="M50.88,5.765a.491.491,0,0,1,.488-.49h.8a.4.4,0,0,1,.421.291l.375.973a3.9,3.9,0,0,1,3.13-1.483A3.5,3.5,0,0,1,59.151,6.6a4.387,4.387,0,0,1,3.305-1.548c3.284,0,4.06,2.084,4.06,4.747v5.232a.494.494,0,0,1-.509.486H64.233a.491.491,0,0,1-.491-.486v-5.3c0-1.329-.486-2.149-1.773-2.149a1.959,1.959,0,0,0-1.908,1.062s.044.513.044.98v5.409a.5.5,0,0,1-.486.486H57.8a.476.476,0,0,1-.49-.486v-5.3c0-1.329-.375-2.149-1.685-2.149a2.009,2.009,0,0,0-1.975,1.6v5.853a.5.5,0,0,1-.487.486h-1.8a.5.5,0,0,1-.488-.486V5.765" transform="translate(0.012)"/>
    <path d="M70.845,13.962A1.563,1.563,0,1,1,69.282,12.4a1.561,1.561,0,0,1,1.563,1.562" transform="translate(0.012)"/>
  </g>
</svg>
