<svg xmlns="http://www.w3.org/2000/svg" xmlns:xlink="http://www.w3.org/1999/xlink" width="150" height="150" viewBox="0 0 150 150">
  <defs>
    <clipPath id="a">
      <rect x="27.515" y="64.594" width="94.97" height="20.812" fill="none"/>
    </clipPath>
  </defs>
  <title>bloom</title>
  <g>
    <g clip-path="url(#a)">
      <path d="M38.175,74.874a4.894,4.894,0,0,1,3.569,4.791c0,3.333-2.855,5.736-6.486,5.736H28.064a.56.56,0,0,1-.564-.565V65.154a.562.562,0,0,1,.564-.56h6.809c3.538,0,6.275,2.377,6.275,5.5a5.221,5.221,0,0,1-2.973,4.636v.144m-3.6-1.54a2.5,2.5,0,0,0,2.5-2.676,2.381,2.381,0,0,0-2.5-2.531H31.335v5.207Zm.416,8.56a2.6,2.6,0,0,0,2.616-2.7A2.544,2.544,0,0,0,34.994,76.6H31.335v5.3Z"/>
      <path d="M43.357,65.246a.7.7,0,0,1,.652-.652h2.408a.7.7,0,0,1,.652.652v19.5a.678.678,0,0,1-.652.657H44.009a.678.678,0,0,1-.652-.657v-19.5"/>
    </g>
    <path d="M77.749,81.688a.715.715,0,0,1,.68.653v2.408a.715.715,0,0,1-.68.652H65.036a.687.687,0,0,1-.674-.652V82.341a.687.687,0,0,1,.674-.653H77.749"/>
    <path d="M55.7,71.043a7.181,7.181,0,1,1-7.019,7.133A7.134,7.134,0,0,1,55.7,71.043m0,10.969a3.727,3.727,0,0,0,3.6-3.836,3.591,3.591,0,1,0-3.6,3.836"/>
    <path d="M87.061,71.043a7.181,7.181,0,1,1-7.02,7.133,7.135,7.135,0,0,1,7.02-7.133m0,10.969a3.726,3.726,0,0,0,3.6-3.836,3.586,3.586,0,1,0-7.166,0,3.7,3.7,0,0,0,3.567,3.836"/>
    <path d="M95.721,72.322a.659.659,0,0,1,.655-.657h1.07a.533.533,0,0,1,.565.39l.5,1.3a5.231,5.231,0,0,1,4.2-1.987,4.69,4.69,0,0,1,4.1,2.075,5.874,5.874,0,0,1,4.429-2.075c4.4,0,5.443,2.794,5.443,6.363v7.014A.664.664,0,0,1,116,85.4h-2.377a.658.658,0,0,1-.658-.652V77.642c0-1.782-.652-2.881-2.377-2.881a2.624,2.624,0,0,0-2.557,1.423s.059.688.059,1.314v7.251a.676.676,0,0,1-.652.652H105a.638.638,0,0,1-.657-.652V77.642c0-1.782-.5-2.881-2.26-2.881A2.7,2.7,0,0,0,99.436,76.9v7.847a.676.676,0,0,1-.652.652H96.376a.676.676,0,0,1-.655-.652V72.322"/>
    <path d="M122.485,83.311a2.095,2.095,0,1,1-2.095-2.1,2.093,2.093,0,0,1,2.095,2.1"/>
  </g>
</svg>
