<svg xmlns="http://www.w3.org/2000/svg" width="150" height="150" viewBox="0 0 150 150">
  <title>brndwgn</title>
  <g>
    <g>
      <path d="M56.916,70.745a3.889,3.889,0,0,0,1.512-3.179,3.561,3.561,0,0,0-.934-2.335,3.842,3.842,0,0,0-2.313-1.356,3.541,3.541,0,0,0,2.535-3.246,3.627,3.627,0,0,0-1.534-3.09,6.222,6.222,0,0,0-3.935-1.157L46.4,56.36V71.946h6.515A6.22,6.22,0,0,0,56.916,70.745ZM49.845,59.117h2.4c1.133,0,1.978.6,1.978,1.668,0,1.423-.978,2.134-2.957,2.134H49.845Zm0,6.2h1.8a4.037,4.037,0,0,1,2.6.6,1.98,1.98,0,0,1,.689,1.578,1.79,1.79,0,0,1-2.023,1.712H49.845Z" fill="#1c1c1c"/>
      <path d="M72.3,68.955a2.116,2.116,0,0,1-.873.189c-1.423,0-2.112-1.089-2.579-2.979a4.7,4.7,0,0,0,3.29-4.669A5.172,5.172,0,0,0,70.8,57.872a4.552,4.552,0,0,0-3.624-1.49H60.265V71.946h3.424V66.41h2.067a8.643,8.643,0,0,0,.779,2.734,6.172,6.172,0,0,0,.911,1.49,4.336,4.336,0,0,0,3.313,1.556,5.319,5.319,0,0,0,1.54-.207Zm-5.564-5.3H63.689v-4.38h3.046a2.2,2.2,0,0,1,0,4.38Z" fill="#1c1c1c"/>
      <polygon points="77.992 62.474 84.863 71.946 87.486 71.946 87.486 56.382 84.04 56.382 84.04 65.765 77.192 56.382 74.546 56.382 74.546 71.924 77.992 71.924 77.992 62.474" fill="#1c1c1c"/>
      <path d="M101.893,69.722a7.917,7.917,0,0,0,0-11.094,8.184,8.184,0,0,0-6-2.246H90.065V71.946h5.826A8.171,8.171,0,0,0,101.893,69.722Zm-8.382-10.6h2.38a4.4,4.4,0,0,1,3.468,1.468,5.066,5.066,0,0,1,1.334,3.579,5.16,5.16,0,0,1-1.334,3.6,4.462,4.462,0,0,1-3.468,1.445h-2.38Z" fill="#1c1c1c"/>
      <polygon points="54.496 93.362 57.828 82.66 61.159 93.362 64.264 93.362 69.817 75.694 65.829 75.694 62.522 86.522 59.292 76.275 56.389 76.275 53.133 86.522 49.827 75.694 45.839 75.694 51.391 93.362 54.496 93.362" fill="#1c1c1c"/>
      <path d="M77.615,86.875h4.468V89.4a7.411,7.411,0,0,1-3.256.657,5.323,5.323,0,0,1-3.937-1.54,5.4,5.4,0,0,1-1.515-3.937c0-2.55,1.464-5.579,5.755-5.579a7.03,7.03,0,0,1,4.291,1.591l1.943-2.9A10.447,10.447,0,0,0,79,75.416a9.3,9.3,0,0,0-6.916,2.651,9.2,9.2,0,0,0,.05,12.922,9.193,9.193,0,0,0,6.714,2.651,10.109,10.109,0,0,0,6.891-2.7V83.746H77.615Z" fill="#1c1c1c"/>
      <polygon points="91.724 82.61 99.523 93.362 102.501 93.362 102.501 75.694 98.589 75.694 98.589 86.345 90.815 75.694 87.812 75.694 87.812 93.337 91.724 93.337 91.724 82.61" fill="#1c1c1c"/>
    </g>
    <path d="M35.437,42.668v64.664h79.126V42.668Zm75.5,61.035H39.067V46.3h71.866Z" fill="#1c1c1c"/>
  </g>
</svg>
