<svg xmlns="http://www.w3.org/2000/svg" width="107.349" height="87.73" viewBox="0 0 107.349 87.73">
  <title>brndwgn-l</title>
  <g>
    <g>
      <path d="M29.14,38.093a5.278,5.278,0,0,0,2.051-4.314,4.825,4.825,0,0,0-1.267-3.167,5.2,5.2,0,0,0-3.137-1.84,4.8,4.8,0,0,0,3.439-4.4,4.922,4.922,0,0,0-2.082-4.192,8.446,8.446,0,0,0-5.339-1.569l-7.933-.03V39.722H23.71A8.443,8.443,0,0,0,29.14,38.093ZM19.548,22.317h3.257c1.539,0,2.685.814,2.685,2.262,0,1.931-1.327,2.9-4.012,2.9h-1.93Zm0,8.416h2.443q2.624,0,3.529.814a2.687,2.687,0,0,1,.935,2.142c0,1.417-1.146,2.323-2.745,2.323H19.548Z" fill="#1c1c1c"/>
      <path d="M50.01,35.664a2.877,2.877,0,0,1-1.184.257c-1.931,0-2.866-1.478-3.5-4.042a6.372,6.372,0,0,0,4.464-6.334,7.019,7.019,0,0,0-1.81-4.917,6.175,6.175,0,0,0-4.917-2.021h-9.38V39.721h4.645v-7.51h2.805a11.748,11.748,0,0,0,1.056,3.71,8.448,8.448,0,0,0,1.236,2.021,5.885,5.885,0,0,0,4.495,2.111,7.179,7.179,0,0,0,2.089-.281ZM42.461,28.47H38.329V22.528h4.132c1.659,0,2.655,1.176,2.655,2.986C45.116,27.294,44.12,28.47,42.461,28.47Z" fill="#1c1c1c"/>
      <polygon points="57.735 26.872 67.055 39.722 70.615 39.722 70.615 18.607 65.939 18.607 65.939 31.336 56.649 18.607 53.059 18.607 53.059 39.691 57.735 39.691 57.735 26.872" fill="#1c1c1c"/>
      <path d="M90.161,36.705a10.192,10.192,0,0,0,3.077-7.541,10.126,10.126,0,0,0-3.077-7.511,11.109,11.109,0,0,0-8.144-3.046h-7.9V39.722h7.9A11.091,11.091,0,0,0,90.161,36.705ZM78.789,22.317h3.228a5.977,5.977,0,0,1,4.7,1.991,6.871,6.871,0,0,1,1.81,4.856,7,7,0,0,1-1.81,4.887,6.054,6.054,0,0,1-4.7,1.961H78.789Z" fill="#1c1c1c"/>
      <polygon points="25.857 68.777 30.377 54.258 34.897 68.777 39.109 68.777 46.642 44.807 41.232 44.807 36.746 59.497 32.363 45.594 28.425 45.594 24.008 59.497 19.522 44.807 14.112 44.807 21.645 68.777 25.857 68.777" fill="#1c1c1c"/>
      <path d="M57.223,59.977h6.061V63.4a10.052,10.052,0,0,1-4.417.89A7.224,7.224,0,0,1,53.525,62.2,7.334,7.334,0,0,1,51.47,56.86c0-3.458,1.986-7.567,7.808-7.567A9.535,9.535,0,0,1,65.1,51.45l2.636-3.938a14.165,14.165,0,0,0-8.629-3.082,12.619,12.619,0,0,0-9.382,3.6,12.483,12.483,0,0,0,.068,17.532,12.471,12.471,0,0,0,9.109,3.6,13.707,13.707,0,0,0,9.348-3.665V55.73H57.223Z" fill="#1c1c1c"/>
      <polygon points="76.364 54.189 86.945 68.777 90.985 68.777 90.985 44.807 85.678 44.807 85.678 59.257 75.131 44.807 71.056 44.807 71.056 68.743 76.364 68.743 76.364 54.189" fill="#1c1c1c"/>
    </g>
    <path d="M0,0V87.73H107.349V0ZM102.425,82.806H4.924V4.924h97.5Z" fill="#1c1c1c"/>
  </g>
</svg>
