<svg xmlns="http://www.w3.org/2000/svg" width="71.509" height="18.015" viewBox="0 0 71.509 18.015">
  <title>icentre-l</title>
  <path d="M62.657,10.255c.183-1.582,1.167-3.714,3.5-3.714,2.543,0,3.168,2.259,3.141,3.714Zm8.773,1.634a5.5,5.5,0,0,0,.079-1.066c0-2.311-1.066-5.916-5.165-5.916-3.657,0-5.916,2.984-5.916,6.772,0,3.763,2.337,6.332,6.178,6.332a10.258,10.258,0,0,0,4.207-.8L70.4,15.573a8.2,8.2,0,0,1-3.478.647c-2.285,0-4.23-1.272-4.282-4.335H71.43ZM53.625,17.757H55.91V11.032a6.987,6.987,0,0,1,.079-1.065,3.2,3.2,0,0,1,3.063-2.906,6.446,6.446,0,0,1,.777.052V4.959a4.653,4.653,0,0,0-.62-.052A3.8,3.8,0,0,0,55.7,7.659h-.078l-.1-2.464h-2c.079,1.166.1,2.438.1,3.919ZM46.28,2.883V5.2H44.332V6.934H46.28v6.825a4.888,4.888,0,0,0,.883,3.295,3.255,3.255,0,0,0,2.464.961A6.262,6.262,0,0,0,51.65,17.7l-.1-1.739a4.218,4.218,0,0,1-1.324.157c-1.272,0-1.713-.882-1.713-2.438V6.934h3.269V5.2H48.509V2.184ZM32.185,17.757H34.47V10.176a3.387,3.387,0,0,1,.157-1.066A3.3,3.3,0,0,1,37.69,6.773c2.154,0,2.906,1.713,2.906,3.736v7.248h2.285v-7.5c0-4.309-2.7-5.348-4.44-5.348A4.643,4.643,0,0,0,34.29,7.244h-.052L34.107,5.2H32.084c.078,1.036.1,2.075.1,3.4v9.163Zm-11.006-7.5c.183-1.582,1.17-3.714,3.5-3.714,2.543,0,3.167,2.259,3.141,3.714Zm8.773,1.634a5.584,5.584,0,0,0,.079-1.066c0-2.311-1.066-5.916-5.165-5.916-3.661,0-5.916,2.984-5.916,6.772,0,3.763,2.337,6.332,6.178,6.332a10.22,10.22,0,0,0,4.2-.8l-.415-1.634a8.2,8.2,0,0,1-3.478.647c-2.285,0-4.23-1.272-4.282-4.335h8.8ZM17.678,15.371a9.086,9.086,0,0,1-3.71.725c-4.23,0-6.7-2.726-6.7-7.008C7.27,4.521,10,1.9,14.1,1.9a8,8,0,0,1,3.505.726l.572-1.87A10.03,10.03,0,0,0,14.017,0C8.594,0,4.88,3.687,4.88,9.163c0,5.736,3.688,8.852,8.621,8.852a11.088,11.088,0,0,0,4.618-.831ZM1.4,3.067a1.373,1.373,0,0,0,1.429-1.4A1.372,1.372,0,0,0,1.429.236,1.378,1.378,0,0,0,0,1.664a1.36,1.36,0,0,0,1.376,1.4ZM2.569,5.2H.284V17.757H2.569Z"/>
</svg>
