<svg xmlns="http://www.w3.org/2000/svg" width="150" height="150" viewBox="0 0 150 150">
  <title>icentre</title>
  <path d="M108.3,76.544c.227-1.958,1.445-4.6,4.338-4.6,3.148,0,3.921,2.8,3.888,4.6Zm10.86,2.023a6.854,6.854,0,0,0,.1-1.32c0-2.86-1.32-7.323-6.393-7.323-4.528,0-7.324,3.694-7.324,8.384,0,4.657,2.894,7.837,7.648,7.837a12.71,12.71,0,0,0,5.208-.995l-.514-2.023a10.135,10.135,0,0,1-4.3.8c-2.829,0-5.236-1.573-5.3-5.365H119.16ZM97.121,85.83h2.828V77.507a8.884,8.884,0,0,1,.1-1.32c.385-2.087,1.8-3.6,3.792-3.6a8.038,8.038,0,0,1,.963.065V69.989a5.65,5.65,0,0,0-.769-.065A4.708,4.708,0,0,0,99.7,73.331h-.1l-.129-3.05H96.991c.1,1.444.13,3.018.13,4.851ZM88.029,67.42v2.861H85.617v2.152h2.412v8.448a6.053,6.053,0,0,0,1.092,4.079,4.031,4.031,0,0,0,3.051,1.189,7.773,7.773,0,0,0,2.5-.384l-.129-2.152a5.25,5.25,0,0,1-1.639.194c-1.574,0-2.12-1.092-2.12-3.018V72.433h4.046V70.281H90.788V66.554ZM70.581,85.83H73.41V76.447a4.228,4.228,0,0,1,.194-1.32A4.084,4.084,0,0,1,77.4,72.234c2.666,0,3.6,2.12,3.6,4.625V85.83h2.828V76.544c0-5.333-3.342-6.62-5.5-6.62a5.747,5.747,0,0,0-5.138,2.893h-.065l-.162-2.536h-2.5c.1,1.282.13,2.569.13,4.207V85.83ZM56.958,76.544c.226-1.958,1.449-4.6,4.337-4.6,3.148,0,3.921,2.8,3.889,4.6Zm10.86,2.023a6.869,6.869,0,0,0,.1-1.32c0-2.86-1.319-7.323-6.393-7.323-4.532,0-7.323,3.694-7.323,8.384,0,4.657,2.893,7.837,7.647,7.837a12.658,12.658,0,0,0,5.2-.995l-.514-2.023a10.132,10.132,0,0,1-4.3.8c-2.828,0-5.235-1.573-5.3-5.365H67.818Zm-15.193,4.31a11.246,11.246,0,0,1-4.593.9c-5.235,0-8.29-3.375-8.29-8.675,0-5.653,3.374-8.9,8.448-8.9a9.909,9.909,0,0,1,4.337.9l.709-2.315a12.431,12.431,0,0,0-5.143-.93c-6.713,0-11.31,4.564-11.31,11.341,0,7.1,4.565,10.957,10.671,10.957a13.749,13.749,0,0,0,5.717-1.027ZM32.478,67.646a1.72,1.72,0,1,0-.032,0Zm1.445,2.635H31.094V85.83h2.829Z"/>
</svg>
