<svg xmlns="http://www.w3.org/2000/svg" width="47.206" height="34.786" viewBox="0 0 47.206 34.786">
  <title>ilab-l</title>
  <g>
    <g>
      <polygon points="23.772 5.292 29.858 5.292 26.815 0 23.772 5.292" fill="#12100b"/>
      <polygon points="20.728 0 26.815 0 23.772 5.292 20.728 0" fill="#12100b"/>
      <polygon points="23.772 5.292 17.685 5.292 20.728 0 23.772 5.292" fill="#12100b"/>
      <polygon points="17.685 5.292 23.772 5.292 20.728 10.583 17.685 5.292" fill="#12100b"/>
      <polygon points="20.728 10.583 14.642 10.583 17.685 5.292 20.728 10.583" fill="#12100b"/>
      <polygon points="14.642 10.583 20.728 10.583 17.685 15.875 14.642 10.583" fill="#12100b"/>
      <polygon points="29.858 5.292 23.772 5.292 26.815 10.583 29.858 5.292" fill="#12100b"/>
      <polygon points="29.858 15.875 35.945 15.875 32.902 10.583 29.858 15.875" fill="#12100b"/>
      <polygon points="35.945 15.875 29.858 15.875 32.902 21.167 35.945 15.875" fill="#12100b"/>
      <polygon points="26.815 21.167 32.902 21.167 29.858 15.875 26.815 21.167" fill="#12100b"/>
      <polygon points="29.858 15.875 23.772 15.875 26.815 21.167 29.858 15.875" fill="#12100b"/>
      <polygon points="20.728 21.167 26.815 21.167 23.772 15.875 20.728 21.167" fill="#12100b"/>
      <polygon points="11.598 15.875 17.685 15.875 14.642 10.583 11.598 15.875" fill="#12100b"/>
      <polygon points="23.772 15.875 17.685 15.875 20.728 21.167 23.772 15.875" fill="#12100b"/>
      <polygon points="17.685 15.875 11.598 15.875 14.642 21.167 17.685 15.875" fill="#12100b"/>
    </g>
    <path d="M6.5,29.431v.951H2.454V24.769H3.528v4.662Z" fill="#12100b"/>
    <path d="M6.879,30.382l2.868-5.6h.107l2.868,5.605H11.556l-.437-.882H8.474l-.43.882Zm2.116-1.817h1.6l-.8-1.7Z" fill="#12100b"/>
    <path d="M17.216,26.33a1.078,1.078,0,0,1-.069.362,1.374,1.374,0,0,1-.188.353,1.1,1.1,0,0,1-.288.273.7.7,0,0,1-.368.12,1.074,1.074,0,0,1,.411.118,1.3,1.3,0,0,1,.364.279,1.544,1.544,0,0,1,.264.406,1.176,1.176,0,0,1,.1.489,1.95,1.95,0,0,1-.138.777,1.337,1.337,0,0,1-.376.512,1.444,1.444,0,0,1-.556.279,2.648,2.648,0,0,1-.679.084H13.105V24.769h2.47a3.006,3.006,0,0,1,.636.065,1.283,1.283,0,0,1,.522.239,1.173,1.173,0,0,1,.352.477A1.988,1.988,0,0,1,17.216,26.33Zm-3.037.724H15.5a.59.59,0,0,0,.28-.062.607.607,0,0,0,.2-.162A.7.7,0,0,0,16.1,26.6a.8.8,0,0,0,.042-.251.635.635,0,0,0-.046-.239.642.642,0,0,0-.3-.339.466.466,0,0,0-.218-.054h-1.4ZM15.7,29.431a.543.543,0,0,0,.261-.065.7.7,0,0,0,.215-.176.925.925,0,0,0,.146-.246.739.739,0,0,0,.053-.272.615.615,0,0,0-.211-.475.826.826,0,0,0-.579-.192h-1.4v1.426Z" fill="#12100b"/>
    <polygon points="0 26.529 0 30.382 1.074 30.382 1.074 25.454 0 26.529" fill="#12100b"/>
    <polygon points="1.074 25.097 0 26.171 0 24.785 1.074 24.785 1.074 25.097" fill="#12100b"/>
    <g>
      <path d="M22.105,24.771a1.944,1.944,0,0,1,.779.157,1.994,1.994,0,0,1,1.058,1.058,1.944,1.944,0,0,1,.157.779,2.087,2.087,0,0,1-.138.767,1.75,1.75,0,0,1-.406.617,1.871,1.871,0,0,1-.679.414,2.752,2.752,0,0,1-.947.15h-1.25v1.672H19.605V24.771Zm0,2.975a.98.98,0,0,0,.414-.08.777.777,0,0,0,.288-.219.926.926,0,0,0,.165-.314,1.251,1.251,0,0,0,.054-.368,1.122,1.122,0,0,0-.069-.38,1.042,1.042,0,0,0-.2-.333,1,1,0,0,0-.767-.33H20.679v2.024Z" fill="#12100b"/>
      <path d="M29.721,24.771v5.614H28.647V28.153H25.878v2.232H24.805V24.771h1.073V27.2h2.769V24.771Z" fill="#12100b"/>
      <path d="M33.563,30.492a2.806,2.806,0,0,1-1.128-.23,2.943,2.943,0,0,1-1.549-1.549,2.906,2.906,0,0,1,0-2.266,2.932,2.932,0,0,1,1.549-1.553,2.887,2.887,0,0,1,2.263,0,2.932,2.932,0,0,1,1.549,1.553,2.906,2.906,0,0,1,0,2.266A2.943,2.943,0,0,1,34.7,30.262,2.826,2.826,0,0,1,33.563,30.492Zm0-4.824a1.664,1.664,0,0,0-.715.157,1.946,1.946,0,0,0-.582.418,1.97,1.97,0,0,0-.394.61,1.893,1.893,0,0,0,0,1.453,2.031,2.031,0,0,0,.394.61,1.924,1.924,0,0,0,.582.422,1.709,1.709,0,0,0,1.431,0,1.924,1.924,0,0,0,.582-.422,2.05,2.05,0,0,0,.394-.61,1.893,1.893,0,0,0,0-1.453,1.988,1.988,0,0,0-.394-.61,1.946,1.946,0,0,0-.582-.418A1.669,1.669,0,0,0,33.566,25.668Z" fill="#12100b"/>
      <path d="M41.055,25.722h-1.6v4.663H38.379V25.722H36.768v-.951h4.287Z" fill="#12100b"/>
      <path d="M44.292,30.492a2.806,2.806,0,0,1-1.128-.23,2.943,2.943,0,0,1-1.549-1.549,2.906,2.906,0,0,1,0-2.266,2.932,2.932,0,0,1,1.549-1.553,2.887,2.887,0,0,1,2.263,0,2.932,2.932,0,0,1,1.549,1.553,2.906,2.906,0,0,1,0,2.266,2.943,2.943,0,0,1-1.549,1.549A2.826,2.826,0,0,1,44.292,30.492Zm0-4.824a1.664,1.664,0,0,0-.715.157,1.946,1.946,0,0,0-.582.418,1.97,1.97,0,0,0-.394.61,1.893,1.893,0,0,0,0,1.453,2.031,2.031,0,0,0,.394.61,1.924,1.924,0,0,0,.582.422,1.709,1.709,0,0,0,1.431,0,1.907,1.907,0,0,0,.581-.422,2.033,2.033,0,0,0,.4-.61,1.893,1.893,0,0,0,0-1.453,1.973,1.973,0,0,0-.4-.61,1.929,1.929,0,0,0-.581-.418A1.669,1.669,0,0,0,44.3,25.668Z" fill="#12100b"/>
    </g>
    <g>
      <path d="M.012,34.759v-1.64H.14a.055.055,0,0,1,.058.045l.018.145a.671.671,0,0,1,.18-.154A.465.465,0,0,1,.629,33.1a.442.442,0,0,1,.191.041.4.4,0,0,1,.147.12.576.576,0,0,1,.093.2,1.042,1.042,0,0,1,.032.27.853.853,0,0,1-.036.252.613.613,0,0,1-.1.2.48.48,0,0,1-.166.134.489.489,0,0,1-.222.049.454.454,0,0,1-.194-.037.448.448,0,0,1-.143-.106v.541Zm.546-1.487a.349.349,0,0,0-.185.048.535.535,0,0,0-.146.137v.592a.348.348,0,0,0,.13.113.372.372,0,0,0,.158.032.308.308,0,0,0,.263-.122.57.57,0,0,0,.092-.348.883.883,0,0,0-.021-.206.417.417,0,0,0-.062-.141.237.237,0,0,0-.1-.08A.319.319,0,0,0,.558,33.272Z" fill="#12100b"/>
      <path d="M2.123,33.1a.539.539,0,0,1,.2.037.452.452,0,0,1,.161.106.481.481,0,0,1,.106.172.674.674,0,0,1,.038.233.139.139,0,0,1-.011.067.043.043,0,0,1-.041.017H1.764a.665.665,0,0,0,.031.2.425.425,0,0,0,.08.144A.323.323,0,0,0,2,34.164a.414.414,0,0,0,.157.028.447.447,0,0,0,.14-.019.664.664,0,0,0,.1-.04.8.8,0,0,0,.071-.041.1.1,0,0,1,.049-.018.047.047,0,0,1,.041.02l.06.079a.406.406,0,0,1-.1.084.57.57,0,0,1-.119.058.733.733,0,0,1-.132.035.765.765,0,0,1-.134.011.632.632,0,0,1-.234-.042.525.525,0,0,1-.185-.126.588.588,0,0,1-.122-.2.838.838,0,0,1-.043-.281.723.723,0,0,1,.039-.24.558.558,0,0,1,.113-.192.512.512,0,0,1,.18-.129A.594.594,0,0,1,2.123,33.1Zm0,.158a.332.332,0,0,0-.246.09.433.433,0,0,0-.111.25h.667a.424.424,0,0,0-.021-.137.3.3,0,0,0-.061-.108.275.275,0,0,0-.1-.07A.319.319,0,0,0,2.128,33.258Z" fill="#12100b"/>
      <path d="M3.2,34.344V33.119h.123a.074.074,0,0,1,.049.013.082.082,0,0,1,.018.046l.014.191a.563.563,0,0,1,.156-.2.344.344,0,0,1,.217-.072.326.326,0,0,1,.092.012.285.285,0,0,1,.076.032l-.028.161a.036.036,0,0,1-.037.03.174.174,0,0,1-.052-.012.357.357,0,0,0-.1-.011.279.279,0,0,0-.188.065.49.49,0,0,0-.127.19v.78Z" fill="#12100b"/>
      <path d="M4.51,34.344V33.3l-.136-.016a.092.092,0,0,1-.041-.019.042.042,0,0,1-.017-.036v-.089H4.51v-.118a.565.565,0,0,1,.029-.187.37.37,0,0,1,.085-.138.353.353,0,0,1,.132-.085.483.483,0,0,1,.175-.029.466.466,0,0,1,.152.024l0,.107c0,.017-.007.026-.02.029a.2.2,0,0,1-.055,0H4.966a.32.32,0,0,0-.1.015.2.2,0,0,0-.078.047.2.2,0,0,0-.05.086.412.412,0,0,0-.018.132v.112h.355V33.3H4.726v1.045Z" fill="#12100b"/>
      <path d="M6.052,33.1a.539.539,0,0,1,.2.037.452.452,0,0,1,.161.106.481.481,0,0,1,.106.172.674.674,0,0,1,.038.233.139.139,0,0,1-.011.067.043.043,0,0,1-.041.017H5.693a.665.665,0,0,0,.031.2.425.425,0,0,0,.08.144.323.323,0,0,0,.121.086.414.414,0,0,0,.157.028.447.447,0,0,0,.14-.019.664.664,0,0,0,.1-.04.8.8,0,0,0,.071-.041.1.1,0,0,1,.049-.018.046.046,0,0,1,.041.02l.06.079a.406.406,0,0,1-.095.084.57.57,0,0,1-.119.058.755.755,0,0,1-.132.035.765.765,0,0,1-.134.011.632.632,0,0,1-.234-.042.525.525,0,0,1-.185-.126.6.6,0,0,1-.122-.2.838.838,0,0,1-.043-.281.723.723,0,0,1,.039-.24.558.558,0,0,1,.113-.192.516.516,0,0,1,.181-.129A.586.586,0,0,1,6.052,33.1Zm.005.158a.332.332,0,0,0-.246.09.427.427,0,0,0-.111.25h.667a.424.424,0,0,0-.021-.137.3.3,0,0,0-.061-.108.275.275,0,0,0-.1-.07A.319.319,0,0,0,6.057,33.258Z" fill="#12100b"/>
      <path d="M7.961,33.337a.124.124,0,0,1-.019.02.047.047,0,0,1-.028.008.074.074,0,0,1-.04-.015.448.448,0,0,0-.053-.034.472.472,0,0,0-.08-.033.375.375,0,0,0-.114-.015.371.371,0,0,0-.158.032.306.306,0,0,0-.116.092.436.436,0,0,0-.07.147.773.773,0,0,0,0,.39.418.418,0,0,0,.071.145.314.314,0,0,0,.112.09.353.353,0,0,0,.148.03.4.4,0,0,0,.13-.018.437.437,0,0,0,.084-.042.508.508,0,0,0,.056-.042.067.067,0,0,1,.043-.018.046.046,0,0,1,.042.02l.06.079a.467.467,0,0,1-.2.143.717.717,0,0,1-.253.045.541.541,0,0,1-.214-.042.474.474,0,0,1-.171-.123A.584.584,0,0,1,7.08,34a.8.8,0,0,1-.042-.268.823.823,0,0,1,.038-.253.565.565,0,0,1,.111-.2.5.5,0,0,1,.181-.131.661.661,0,0,1,.474-.006.567.567,0,0,1,.176.118Z" fill="#12100b"/>
      <path d="M8.917,34.364a.3.3,0,0,1-.224-.081.324.324,0,0,1-.078-.234V33.3H8.468a.052.052,0,0,1-.033-.011.045.045,0,0,1-.013-.036v-.086l.2-.025.049-.379a.044.044,0,0,1,.016-.029.049.049,0,0,1,.034-.012h.109v.422h.351V33.3H8.831v.736a.158.158,0,0,0,.037.115.13.13,0,0,0,.1.037.174.174,0,0,0,.059-.009.345.345,0,0,0,.043-.02l.03-.02a.042.042,0,0,1,.023-.009.037.037,0,0,1,.03.021l.063.1a.4.4,0,0,1-.134.081A.455.455,0,0,1,8.917,34.364Z" fill="#12100b"/>
      <path d="M10.026,32.734a.131.131,0,0,1-.013.059.161.161,0,0,1-.034.048.139.139,0,0,1-.049.034.145.145,0,0,1-.059.012.148.148,0,0,1-.059-.012.145.145,0,0,1-.048-.034.158.158,0,0,1-.033-.048.151.151,0,0,1,0-.118.156.156,0,0,1,.033-.05.158.158,0,0,1,.048-.033.148.148,0,0,1,.059-.012.145.145,0,0,1,.059.012.151.151,0,0,1,.049.033.158.158,0,0,1,.034.05A.131.131,0,0,1,10.026,32.734Zm-.049.385v1.225H9.762V33.119Z" fill="#12100b"/>
      <path d="M11.144,33.1a.644.644,0,0,1,.242.044.512.512,0,0,1,.184.128.563.563,0,0,1,.116.2.794.794,0,0,1,.041.261.785.785,0,0,1-.041.261.568.568,0,0,1-.116.2.5.5,0,0,1-.184.126.69.69,0,0,1-.485,0,.5.5,0,0,1-.184-.126.572.572,0,0,1-.118-.2.785.785,0,0,1-.041-.261.794.794,0,0,1,.041-.261.567.567,0,0,1,.118-.2.512.512,0,0,1,.184-.128A.645.645,0,0,1,11.144,33.1Zm0,1.093a.316.316,0,0,0,.271-.121.7.7,0,0,0,0-.681.317.317,0,0,0-.271-.122.374.374,0,0,0-.16.032.3.3,0,0,0-.113.09.411.411,0,0,0-.068.146.781.781,0,0,0-.022.2.77.77,0,0,0,.022.2.406.406,0,0,0,.068.145.3.3,0,0,0,.113.09A.374.374,0,0,0,11.144,34.193Z" fill="#12100b"/>
      <path d="M12.283,34.344V33.119h.128a.055.055,0,0,1,.058.045l.017.133a.692.692,0,0,1,.179-.143.466.466,0,0,1,.228-.054.444.444,0,0,1,.177.033.347.347,0,0,1,.128.094.43.43,0,0,1,.078.147.637.637,0,0,1,.027.19v.78h-.215v-.78a.333.333,0,0,0-.064-.216.237.237,0,0,0-.194-.076.372.372,0,0,0-.179.045.592.592,0,0,0-.152.125v.9Z" fill="#12100b"/>
      <path d="M14.964,32.734a.131.131,0,0,1-.013.059.161.161,0,0,1-.034.048.139.139,0,0,1-.049.034.145.145,0,0,1-.059.012.148.148,0,0,1-.059-.012.145.145,0,0,1-.048-.034.158.158,0,0,1-.033-.048.151.151,0,0,1,0-.118.156.156,0,0,1,.033-.05.158.158,0,0,1,.048-.033.148.148,0,0,1,.059-.012.145.145,0,0,1,.059.012.151.151,0,0,1,.049.033.158.158,0,0,1,.034.05A.131.131,0,0,1,14.964,32.734Zm-.049.385v1.225H14.7V33.119Z" fill="#12100b"/>
      <path d="M15.586,34.344V33.119h.128a.055.055,0,0,1,.058.045l.017.133a.688.688,0,0,1,.178-.143A.469.469,0,0,1,16.2,33.1a.444.444,0,0,1,.177.033.35.35,0,0,1,.129.094.43.43,0,0,1,.078.147.671.671,0,0,1,.026.19v.78H16.39v-.78a.327.327,0,0,0-.064-.216.237.237,0,0,0-.194-.076.368.368,0,0,0-.178.045.614.614,0,0,0-.153.125v.9Z" fill="#12100b"/>
      <path d="M17.978,34.759v-1.64h.129a.055.055,0,0,1,.058.045l.018.145a.652.652,0,0,1,.179-.154A.468.468,0,0,1,18.6,33.1a.442.442,0,0,1,.191.041.394.394,0,0,1,.147.12.576.576,0,0,1,.093.2,1,1,0,0,1,.033.27.821.821,0,0,1-.037.252.613.613,0,0,1-.1.2.471.471,0,0,1-.166.134.489.489,0,0,1-.222.049.454.454,0,0,1-.194-.037.444.444,0,0,1-.142-.106v.541Zm.546-1.487a.352.352,0,0,0-.185.048.532.532,0,0,0-.145.137v.592a.341.341,0,0,0,.13.113.369.369,0,0,0,.158.032.307.307,0,0,0,.262-.122.57.57,0,0,0,.092-.348.883.883,0,0,0-.021-.206.417.417,0,0,0-.061-.141.243.243,0,0,0-.1-.08A.327.327,0,0,0,18.524,33.272Z" fill="#12100b"/>
      <path d="M19.6,34.344V32.563h.216v.721a.634.634,0,0,1,.174-.134.458.458,0,0,1,.22-.05.444.444,0,0,1,.177.033.347.347,0,0,1,.128.094.4.4,0,0,1,.078.147.637.637,0,0,1,.027.19v.78h-.215v-.78a.333.333,0,0,0-.064-.216.237.237,0,0,0-.194-.076.365.365,0,0,0-.178.045.58.58,0,0,0-.153.125v.9Z" fill="#12100b"/>
      <path d="M21.736,33.1a.644.644,0,0,1,.242.044.512.512,0,0,1,.184.128.563.563,0,0,1,.116.2.794.794,0,0,1,.041.261.785.785,0,0,1-.041.261.568.568,0,0,1-.116.2.5.5,0,0,1-.184.126.69.69,0,0,1-.485,0,.5.5,0,0,1-.184-.126.572.572,0,0,1-.118-.2.785.785,0,0,1-.041-.261.794.794,0,0,1,.041-.261.567.567,0,0,1,.118-.2.512.512,0,0,1,.184-.128A.645.645,0,0,1,21.736,33.1Zm0,1.093a.315.315,0,0,0,.271-.121.7.7,0,0,0,0-.681.315.315,0,0,0-.271-.122.374.374,0,0,0-.16.032.3.3,0,0,0-.113.09.411.411,0,0,0-.068.146.781.781,0,0,0-.022.2.77.77,0,0,0,.022.2.406.406,0,0,0,.068.145.3.3,0,0,0,.113.09A.374.374,0,0,0,21.736,34.193Z" fill="#12100b"/>
      <path d="M23.247,34.364a.3.3,0,0,1-.224-.081.324.324,0,0,1-.078-.234V33.3H22.8a.052.052,0,0,1-.033-.011.045.045,0,0,1-.013-.036v-.086l.2-.025L23,32.762a.044.044,0,0,1,.016-.029.049.049,0,0,1,.034-.012h.109v.422h.351V33.3h-.351v.736a.158.158,0,0,0,.037.115.13.13,0,0,0,.1.037.174.174,0,0,0,.059-.009.289.289,0,0,0,.043-.02l.031-.02a.032.032,0,0,1,.052.012l.063.1a.4.4,0,0,1-.134.081A.455.455,0,0,1,23.247,34.364Z" fill="#12100b"/>
      <path d="M24.564,33.1a.653.653,0,0,1,.243.044.508.508,0,0,1,.183.128.551.551,0,0,1,.117.2.794.794,0,0,1,.04.261.786.786,0,0,1-.04.261.555.555,0,0,1-.117.2.492.492,0,0,1-.183.126.633.633,0,0,1-.243.044.621.621,0,0,1-.242-.044.5.5,0,0,1-.185-.126.555.555,0,0,1-.117-.2.76.76,0,0,1-.042-.261.768.768,0,0,1,.042-.261.551.551,0,0,1,.117-.2.516.516,0,0,1,.185-.128A.64.64,0,0,1,24.564,33.1Zm0,1.093a.315.315,0,0,0,.271-.121.689.689,0,0,0,0-.681.315.315,0,0,0-.271-.122.377.377,0,0,0-.16.032.309.309,0,0,0-.113.09.411.411,0,0,0-.068.146.83.83,0,0,0-.022.2.818.818,0,0,0,.022.2.406.406,0,0,0,.068.145.309.309,0,0,0,.113.09A.378.378,0,0,0,24.564,34.193Z" fill="#12100b"/>
      <path d="M26.116,33.1a.591.591,0,0,1,.149.017.5.5,0,0,1,.127.051h.333v.08q0,.041-.051.051l-.139.019a.4.4,0,0,1,.006.339.388.388,0,0,1-.095.125.447.447,0,0,1-.146.08.6.6,0,0,1-.184.027.61.61,0,0,1-.162-.02.223.223,0,0,0-.059.054.1.1,0,0,0-.02.056.076.076,0,0,0,.035.068.231.231,0,0,0,.094.033.735.735,0,0,0,.131.01h.151a.848.848,0,0,1,.151.014.43.43,0,0,1,.131.044.246.246,0,0,1,.094.084.257.257,0,0,1,.035.14.319.319,0,0,1-.04.154.416.416,0,0,1-.113.133.566.566,0,0,1-.18.093.779.779,0,0,1-.241.035.915.915,0,0,1-.235-.027.542.542,0,0,1-.168-.071.3.3,0,0,1-.1-.1.247.247,0,0,1-.034-.122.224.224,0,0,1,.058-.155.4.4,0,0,1,.158-.1.21.21,0,0,1-.083-.065.171.171,0,0,1-.031-.108.16.16,0,0,1,.01-.055.214.214,0,0,1,.029-.056.4.4,0,0,1,.049-.053.334.334,0,0,1,.068-.045.376.376,0,0,1-.142-.135.37.37,0,0,1-.052-.2.378.378,0,0,1,.035-.163.354.354,0,0,1,.1-.124.434.434,0,0,1,.147-.08A.617.617,0,0,1,26.116,33.1Zm.382,1.308a.109.109,0,0,0-.025-.076.17.17,0,0,0-.069-.043.46.46,0,0,0-.1-.023.918.918,0,0,0-.12-.008h-.129a.463.463,0,0,1-.124-.016.353.353,0,0,0-.112.08.161.161,0,0,0-.043.113.151.151,0,0,0,.021.077.183.183,0,0,0,.065.061.365.365,0,0,0,.109.042.711.711,0,0,0,.156.015.734.734,0,0,0,.156-.016.392.392,0,0,0,.117-.046.223.223,0,0,0,.073-.07A.165.165,0,0,0,26.5,34.407Zm-.382-.661a.345.345,0,0,0,.116-.018.252.252,0,0,0,.084-.051.213.213,0,0,0,.05-.078.273.273,0,0,0,.017-.1.236.236,0,0,0-.068-.179.328.328,0,0,0-.4,0,.24.24,0,0,0-.068.179.3.3,0,0,0,.017.1.218.218,0,0,0,.052.078.238.238,0,0,0,.083.051A.333.333,0,0,0,26.116,33.746Z" fill="#12100b"/>
      <path d="M27.23,34.344V33.119h.123a.074.074,0,0,1,.049.013.082.082,0,0,1,.018.046l.014.191a.563.563,0,0,1,.156-.2.344.344,0,0,1,.217-.072.326.326,0,0,1,.092.012.272.272,0,0,1,.076.032l-.028.161a.036.036,0,0,1-.037.03.181.181,0,0,1-.052-.012.352.352,0,0,0-.1-.011.279.279,0,0,0-.188.065.49.49,0,0,0-.127.19v.78Z" fill="#12100b"/>
      <path d="M29.35,34.344h-.1a.123.123,0,0,1-.051-.009.054.054,0,0,1-.025-.041l-.024-.114c-.033.029-.064.055-.095.078a.53.53,0,0,1-.1.058.473.473,0,0,1-.108.036.623.623,0,0,1-.127.012.443.443,0,0,1-.134-.02.288.288,0,0,1-.182-.162.354.354,0,0,1-.027-.145.278.278,0,0,1,.04-.14.349.349,0,0,1,.129-.119.82.82,0,0,1,.233-.086,1.6,1.6,0,0,1,.352-.033v-.1a.338.338,0,0,0-.061-.217.222.222,0,0,0-.181-.073.394.394,0,0,0-.133.019.621.621,0,0,0-.093.045l-.067.045a.1.1,0,0,1-.057.02.064.064,0,0,1-.038-.012.087.087,0,0,1-.026-.028l-.039-.069a.705.705,0,0,1,.219-.146.667.667,0,0,1,.261-.049.472.472,0,0,1,.182.034.371.371,0,0,1,.134.095.4.4,0,0,1,.083.146.625.625,0,0,1,.028.189Zm-.559-.131a.424.424,0,0,0,.1-.012.4.4,0,0,0,.089-.033.482.482,0,0,0,.079-.051.6.6,0,0,0,.075-.069V33.8a1.5,1.5,0,0,0-.253.019.735.735,0,0,0-.169.049.24.24,0,0,0-.1.072.156.156,0,0,0-.03.093.2.2,0,0,0,.016.084.151.151,0,0,0,.042.057.173.173,0,0,0,.063.033A.285.285,0,0,0,28.791,34.213Z" fill="#12100b"/>
      <path d="M29.966,34.759v-1.64H30.1a.055.055,0,0,1,.058.045l.018.145a.642.642,0,0,1,.18-.154.462.462,0,0,1,.232-.058.439.439,0,0,1,.191.041.387.387,0,0,1,.147.12.576.576,0,0,1,.093.2,1,1,0,0,1,.033.27.821.821,0,0,1-.037.252.613.613,0,0,1-.1.2.471.471,0,0,1-.166.134.489.489,0,0,1-.222.049.454.454,0,0,1-.194-.037.444.444,0,0,1-.142-.106v.541Zm.546-1.487a.352.352,0,0,0-.185.048.532.532,0,0,0-.145.137v.592a.341.341,0,0,0,.13.113.369.369,0,0,0,.158.032.307.307,0,0,0,.262-.122.57.57,0,0,0,.092-.348.883.883,0,0,0-.021-.206.417.417,0,0,0-.061-.141.243.243,0,0,0-.1-.08A.327.327,0,0,0,30.512,33.272Z" fill="#12100b"/>
      <path d="M31.592,34.344V32.563h.216v.721a.634.634,0,0,1,.174-.134.458.458,0,0,1,.22-.05.444.444,0,0,1,.177.033.347.347,0,0,1,.128.094.4.4,0,0,1,.078.147.637.637,0,0,1,.027.19v.78H32.4v-.78a.327.327,0,0,0-.064-.216.237.237,0,0,0-.194-.076.365.365,0,0,0-.178.045.58.58,0,0,0-.153.125v.9Z" fill="#12100b"/>
      <path d="M33.516,32.734a.145.145,0,0,1-.013.059.161.161,0,0,1-.034.048.139.139,0,0,1-.049.034.147.147,0,0,1-.166-.034.161.161,0,0,1-.034-.048.151.151,0,0,1,0-.118.161.161,0,0,1,.082-.083.151.151,0,0,1,.118,0,.151.151,0,0,1,.049.033.158.158,0,0,1,.034.05A.145.145,0,0,1,33.516,32.734Zm-.049.385v1.225h-.215V33.119Z" fill="#12100b"/>
      <path d="M34.973,33.337a.092.092,0,0,1-.019.02.044.044,0,0,1-.028.008.069.069,0,0,1-.039-.015.4.4,0,0,0-.054-.034.459.459,0,0,0-.079-.033.375.375,0,0,0-.114-.015.379.379,0,0,0-.159.032.314.314,0,0,0-.116.092.436.436,0,0,0-.07.147.8.8,0,0,0,0,.39.419.419,0,0,0,.072.145.3.3,0,0,0,.111.09.357.357,0,0,0,.149.03.393.393,0,0,0,.129-.018.448.448,0,0,0,.085-.042.486.486,0,0,0,.055-.042.07.07,0,0,1,.044-.018.045.045,0,0,1,.041.02l.061.079a.47.47,0,0,1-.2.143.713.713,0,0,1-.253.045.536.536,0,0,1-.213-.042.486.486,0,0,1-.172-.123.584.584,0,0,1-.114-.2.8.8,0,0,1-.042-.268.823.823,0,0,1,.038-.253.583.583,0,0,1,.112-.2.491.491,0,0,1,.181-.131.661.661,0,0,1,.474-.006.563.563,0,0,1,.175.118Z" fill="#12100b"/>
      <path d="M36.315,34.759v-1.64h.128a.055.055,0,0,1,.058.045l.018.145a.671.671,0,0,1,.18-.154.465.465,0,0,1,.233-.058.442.442,0,0,1,.191.041.391.391,0,0,1,.146.12.559.559,0,0,1,.094.2,1.042,1.042,0,0,1,.032.27.853.853,0,0,1-.036.252.613.613,0,0,1-.1.2.474.474,0,0,1-.167.134.482.482,0,0,1-.221.049.462.462,0,0,1-.2-.037.455.455,0,0,1-.142-.106v.541Zm.546-1.487a.349.349,0,0,0-.185.048.535.535,0,0,0-.146.137v.592a.348.348,0,0,0,.13.113.372.372,0,0,0,.158.032.309.309,0,0,0,.263-.122.57.57,0,0,0,.092-.348.828.828,0,0,0-.022-.206.4.4,0,0,0-.061-.141.237.237,0,0,0-.1-.08A.319.319,0,0,0,36.861,33.272Z" fill="#12100b"/>
      <path d="M37.941,34.344V33.119h.123a.074.074,0,0,1,.049.013.09.09,0,0,1,.018.046l.014.191a.563.563,0,0,1,.156-.2.342.342,0,0,1,.217-.072.331.331,0,0,1,.092.012.285.285,0,0,1,.076.032l-.028.161a.036.036,0,0,1-.037.03.174.174,0,0,1-.052-.012.357.357,0,0,0-.1-.011.284.284,0,0,0-.189.065.5.5,0,0,0-.126.19v.78Z" fill="#12100b"/>
      <path d="M39.494,32.734a.131.131,0,0,1-.013.059.161.161,0,0,1-.034.048.139.139,0,0,1-.049.034.145.145,0,0,1-.059.012.149.149,0,0,1-.107-.046.158.158,0,0,1-.033-.048.151.151,0,0,1,0-.118.156.156,0,0,1,.033-.05.151.151,0,0,1,.049-.033.14.14,0,0,1,.058-.012.145.145,0,0,1,.059.012.151.151,0,0,1,.049.033.158.158,0,0,1,.034.05A.131.131,0,0,1,39.494,32.734Zm-.048.385v1.225H39.23V33.119Z" fill="#12100b"/>
      <path d="M40.116,34.344V33.119h.128a.055.055,0,0,1,.058.045l.017.133a.688.688,0,0,1,.178-.143.469.469,0,0,1,.228-.054.452.452,0,0,1,.178.033.347.347,0,0,1,.128.094.43.43,0,0,1,.078.147.637.637,0,0,1,.027.19v.78H40.92v-.78a.333.333,0,0,0-.063-.216.239.239,0,0,0-.2-.076.368.368,0,0,0-.178.045.614.614,0,0,0-.153.125v.9Z" fill="#12100b"/>
      <path d="M42.123,34.364a.3.3,0,0,1-.224-.081.329.329,0,0,1-.078-.234V33.3h-.147a.052.052,0,0,1-.033-.011.045.045,0,0,1-.013-.036v-.086l.2-.025.049-.379a.044.044,0,0,1,.016-.029.049.049,0,0,1,.034-.012h.109v.422h.351V33.3h-.351v.736a.158.158,0,0,0,.037.115.132.132,0,0,0,.1.037.174.174,0,0,0,.059-.009.345.345,0,0,0,.043-.02l.03-.02a.042.042,0,0,1,.023-.009.037.037,0,0,1,.03.021l.063.1a.4.4,0,0,1-.134.081A.455.455,0,0,1,42.123,34.364Z" fill="#12100b"/>
      <path d="M43.232,32.734a.131.131,0,0,1-.013.059.145.145,0,0,1-.034.048.139.139,0,0,1-.049.034.145.145,0,0,1-.059.012.148.148,0,0,1-.059-.012.145.145,0,0,1-.048-.034.158.158,0,0,1-.033-.048.151.151,0,0,1,0-.118.156.156,0,0,1,.033-.05.158.158,0,0,1,.048-.033.148.148,0,0,1,.059-.012.145.145,0,0,1,.059.012.151.151,0,0,1,.049.033.143.143,0,0,1,.034.05A.131.131,0,0,1,43.232,32.734Zm-.048.385v1.225h-.216V33.119Z" fill="#12100b"/>
      <path d="M43.854,34.344V33.119h.128a.055.055,0,0,1,.058.045l.017.133a.676.676,0,0,1,.179-.143.462.462,0,0,1,.227-.054.452.452,0,0,1,.178.033.347.347,0,0,1,.128.094.43.43,0,0,1,.078.147.637.637,0,0,1,.027.19v.78h-.216v-.78a.333.333,0,0,0-.063-.216.238.238,0,0,0-.194-.076.369.369,0,0,0-.179.045.614.614,0,0,0-.153.125v.9Z" fill="#12100b"/>
      <path d="M45.9,33.1a.591.591,0,0,1,.149.017.5.5,0,0,1,.127.051h.332v.08q0,.041-.051.051l-.139.019a.369.369,0,0,1,.042.176.369.369,0,0,1-.131.288.442.442,0,0,1-.145.08.6.6,0,0,1-.184.027.6.6,0,0,1-.162-.02.209.209,0,0,0-.059.054.1.1,0,0,0-.02.056.076.076,0,0,0,.035.068.221.221,0,0,0,.093.033.754.754,0,0,0,.132.01h.151a.829.829,0,0,1,.15.014.446.446,0,0,1,.132.044.236.236,0,0,1,.093.084.249.249,0,0,1,.035.14.329.329,0,0,1-.039.154.416.416,0,0,1-.113.133.566.566,0,0,1-.18.093.779.779,0,0,1-.241.035.909.909,0,0,1-.235-.027.531.531,0,0,1-.168-.071.318.318,0,0,1-.1-.1.246.246,0,0,1-.033-.122.219.219,0,0,1,.058-.155.4.4,0,0,1,.158-.1.21.21,0,0,1-.083-.065.171.171,0,0,1-.031-.108.186.186,0,0,1,.009-.055.255.255,0,0,1,.03-.056.342.342,0,0,1,.049-.053.309.309,0,0,1,.068-.045.369.369,0,0,1-.142-.135.361.361,0,0,1-.052-.2.378.378,0,0,1,.035-.163.354.354,0,0,1,.1-.124.434.434,0,0,1,.147-.08A.617.617,0,0,1,45.9,33.1Zm.382,1.308a.109.109,0,0,0-.025-.076.17.17,0,0,0-.069-.043.456.456,0,0,0-.1-.023.918.918,0,0,0-.12-.008h-.128a.458.458,0,0,1-.124-.016.342.342,0,0,0-.112.08.161.161,0,0,0-.043.113.151.151,0,0,0,.021.077.183.183,0,0,0,.065.061.354.354,0,0,0,.109.042.711.711,0,0,0,.156.015.734.734,0,0,0,.156-.016.4.4,0,0,0,.117-.046.234.234,0,0,0,.073-.07A.165.165,0,0,0,46.284,34.407Zm-.382-.661a.339.339,0,0,0,.115-.018.233.233,0,0,0,.084-.051.2.2,0,0,0,.051-.078.3.3,0,0,0,.017-.1.24.24,0,0,0-.068-.179.328.328,0,0,0-.4,0,.236.236,0,0,0-.068.179.273.273,0,0,0,.017.1.218.218,0,0,0,.052.078.238.238,0,0,0,.083.051A.333.333,0,0,0,45.9,33.746Z" fill="#12100b"/>
    </g>
  </g>
</svg>
