<svg xmlns="http://www.w3.org/2000/svg" width="150" height="150" viewBox="0 0 150 150">
  <title>steves&amp;amp;co</title>
  <g>
    <path d="M140.716,86.814H9.284V63.186H140.7V63.8q0,11.226,0,22.453C140.7,86.44,140.711,86.627,140.716,86.814Zm-1.667-22.22H10.948V85.406h128.1Z"/>
    <path d="M117.959,74.98a5.569,5.569,0,1,1,5.559,5.6A5.425,5.425,0,0,1,117.959,74.98Zm1.473-.025a4.09,4.09,0,1,0,4.09-4.11A3.991,3.991,0,0,0,119.432,74.955Z"/>
    <path d="M86.535,72.414l-1.392.371a2.745,2.745,0,0,0-3.988-1.74A1.415,1.415,0,0,0,80.3,72.3a1.186,1.186,0,0,0,.831,1.158c.745.306,1.526.524,2.281.809a10.768,10.768,0,0,1,1.822.783,2.78,2.78,0,0,1,.135,4.759c-1.535,1.108-4.92,1.228-6.29-1.049a11.771,11.771,0,0,1-.625-1.437l1.463-.395a2.512,2.512,0,0,0,1.953,2.21,3.18,3.18,0,0,0,2.281-.209,1.606,1.606,0,0,0,.963-1.433,1.414,1.414,0,0,0-.883-1.416c-.667-.3-1.374-.516-2.062-.771a18.736,18.736,0,0,1-1.9-.719,2.516,2.516,0,0,1-.309-4.376A4.37,4.37,0,0,1,86.073,71.3,9.879,9.879,0,0,1,86.535,72.414Z"/>
    <path d="M26.188,72.437l-1.292.352a.811.811,0,0,1-.072-.151c-.425-1.979-2.815-2.328-4.118-1.475a1.231,1.231,0,0,0,.083,2.232c.742.371,1.571.562,2.348.87a11.105,11.105,0,0,1,2.039.92,2.727,2.727,0,0,1,.489,4.15c-1.491,1.709-5.727,1.886-7.031-.921-.155-.334-.251-.7-.393-1.1l1.37-.372c.038.033.072.048.077.069a2.863,2.863,0,0,0,4.188,1.935,1.625,1.625,0,0,0,.992-1.458,1.4,1.4,0,0,0-.891-1.411c-.778-.337-1.6-.572-2.395-.869a11.466,11.466,0,0,1-1.715-.707,2.4,2.4,0,0,1-.573-3.863,4.131,4.131,0,0,1,4.123-1.066,3.483,3.483,0,0,1,2.749,2.537,1.678,1.678,0,0,1,.043.211A.482.482,0,0,1,26.188,72.437Z"/>
    <path d="M114.205,72.382c-.421.108-.834.24-1.256.306-.111.017-.284-.147-.377-.267a4.132,4.132,0,0,0-7.069,4.16,3.665,3.665,0,0,0,3.235,2.519,4,4,0,0,0,4.123-1.972c.03-.049.064-.095.118-.173l1.351.368c-.533,1.948-3.219,3.5-5.563,3.23a5.575,5.575,0,0,1-.633-11A5.478,5.478,0,0,1,114.205,72.382Z"/>
    <path d="M43.672,75.332v3.647h5.853v1.344h-7.3V69.7h7.2V71H43.678v3.046H48.3v1.286Z"/>
    <path d="M74.874,69.7V71H69.123v3.038h4.621v1.283H69.115v3.65h5.866a11.386,11.386,0,0,1-.019,1.2c-.008.077-.252.184-.388.185-1.837.013-3.673.009-5.509.009H67.7V69.7Z"/>
    <path d="M53.246,69.68c.542,0,1.1-.161,1.438.042s.445.761.62,1.178q1.561,3.724,3.107,7.455c.015.035.038.067.077.138.057-.116.1-.2.14-.288q1.721-4.105,3.434-8.212a.45.45,0,0,1,.512-.334c.372.023.746,0,1.184,0-.071.186-.117.317-.172.445q-2.11,4.926-4.214,9.854c-.136.322-.321.376-.643.417-.722.093-1.038-.189-1.314-.859-1.3-3.155-2.672-6.282-4.017-9.42C53.343,69.973,53.3,69.838,53.246,69.68Z"/>
    <path d="M96.957,76.146l.292-1.5,1.15.229a4.12,4.12,0,0,1-.62,2.35l1.5,1.331c-.532.171-.945.316-1.367.428-.077.02-.2-.08-.284-.151-.226-.2-.44-.413-.659-.622-.344.2-.668.409-1.012.578a3.328,3.328,0,0,1-2.2.275,2.248,2.248,0,0,1-1.9-1.792,2.393,2.393,0,0,1,1.007-2.5c.136-.105.282-.2.43-.3a2.21,2.21,0,0,1,2.438-3.483,2.344,2.344,0,0,1,1.69,1.961l-1.026.287a8.92,8.92,0,0,0-.648-.892.9.9,0,0,0-1.112-.168.829.829,0,0,0-.381,1.008,1.469,1.469,0,0,0,.29.616c.741.8,1.507,1.587,2.264,2.377Zm-.847,1.136c-.65-.627-1.246-1.209-1.852-1.78a.353.353,0,0,0-.29-.081,1.486,1.486,0,0,0-.859,1.381A1.238,1.238,0,0,0,94.2,77.91,2.621,2.621,0,0,0,96.11,77.282Z"/>
    <path d="M33.047,71.016h-3.5V69.692H37.97v1.319h-3.5v9.317H33.047Z"/>
    <path d="M130.96,80.422a.741.741,0,0,1-.041-1.482.738.738,0,0,1,.767.75A.7.7,0,0,1,130.96,80.422Z"/>
  </g>
</svg>
