<svg xmlns="http://www.w3.org/2000/svg" width="146.253" height="26.292" viewBox="0 0 146.253 26.292">
  <title>steves&amp;amp;co-l</title>
  <g>
    <path d="M146.253,26.292H0V0H146.235V.682q0,12.492,0,24.985C146.236,25.875,146.247,26.084,146.253,26.292ZM144.4,1.567H1.851V24.726H144.4Z"/>
    <path d="M120.929,13.123a6.2,6.2,0,1,1,12.394.059,6.2,6.2,0,1,1-12.394-.059Zm1.64-.028a4.55,4.55,0,1,0,9.1.126,4.475,4.475,0,0,0-4.547-4.7A4.408,4.408,0,0,0,122.569,13.1Z"/>
    <path d="M85.962,10.269l-1.548.412a3.056,3.056,0,0,0-4.439-1.936,1.573,1.573,0,0,0-.95,1.4,1.321,1.321,0,0,0,.924,1.289c.829.34,1.7.583,2.538.9a11.984,11.984,0,0,1,2.028.871,3.093,3.093,0,0,1,.15,5.295c-1.708,1.234-5.475,1.367-7-1.166a13.4,13.4,0,0,1-.7-1.6l1.628-.439a2.793,2.793,0,0,0,2.173,2.458,3.534,3.534,0,0,0,2.539-.231,1.79,1.79,0,0,0,1.071-1.6A1.574,1.574,0,0,0,83.4,14.35c-.742-.336-1.528-.574-2.294-.858a20.463,20.463,0,0,1-2.113-.8,2.8,2.8,0,0,1-.344-4.868c2.115-1.561,5.568-.974,6.8,1.205A10.882,10.882,0,0,1,85.962,10.269Z"/>
    <path d="M18.81,10.294l-1.437.392a.874.874,0,0,1-.08-.169c-.474-2.2-3.133-2.59-4.583-1.641A1.371,1.371,0,0,0,12.8,11.36c.826.412,1.749.626,2.613.968a12.393,12.393,0,0,1,2.269,1.023,3.035,3.035,0,0,1,.544,4.619c-1.659,1.9-6.372,2.1-7.824-1.025-.172-.372-.279-.775-.437-1.224l1.524-.414c.043.037.081.053.087.077a3.185,3.185,0,0,0,4.659,2.153,1.806,1.806,0,0,0,1.1-1.622,1.562,1.562,0,0,0-.991-1.571c-.865-.375-1.779-.636-2.665-.966a12.835,12.835,0,0,1-1.908-.787,2.676,2.676,0,0,1-.638-4.3,4.6,4.6,0,0,1,4.588-1.187,3.874,3.874,0,0,1,3.058,2.823,1.69,1.69,0,0,1,.049.235A.6.6,0,0,1,18.81,10.294Z"/>
    <path d="M116.753,10.232c-.469.121-.928.268-1.4.341-.123.019-.317-.163-.419-.3a4.6,4.6,0,0,0-7.867,4.629,4.077,4.077,0,0,0,3.6,2.8,4.445,4.445,0,0,0,4.588-2.195c.033-.053.071-.1.131-.192l1.5.41c-.594,2.168-3.582,3.889-6.191,3.594a6.036,6.036,0,0,1-5.593-5.7,6.2,6.2,0,0,1,11.645-3.4Z"/>
    <path d="M38.266,13.515v4.058h6.512v1.5H36.662V7.249h8.014V8.7h-6.4v3.389h5.147v1.431Z"/>
    <path d="M72.987,7.251V8.7h-6.4V12.08h5.141v1.428h-5.15v4.061h6.527a12.858,12.858,0,0,1-.02,1.33c-.009.086-.281.2-.433.206-2.043.014-4.087.009-6.13.009H65V7.251Z"/>
    <path d="M48.92,7.226c.6,0,1.224-.179,1.6.047s.495.846.69,1.311q1.737,4.143,3.457,8.3c.017.04.042.075.086.153.063-.128.115-.222.156-.32q1.914-4.567,3.82-9.138A.5.5,0,0,1,59.3,7.2c.414.026.83.007,1.318.007-.079.206-.13.352-.191.494q-2.349,5.481-4.69,10.966c-.152.358-.357.418-.715.464-.8.1-1.156-.211-1.463-.956-1.447-3.511-2.973-6.991-4.469-10.482C49.027,7.552,48.983,7.4,48.92,7.226Z"/>
    <path d="M97.56,14.421l.324-1.665,1.28.255a4.58,4.58,0,0,1-.69,2.615l1.673,1.481c-.592.191-1.051.352-1.52.476-.086.023-.227-.089-.316-.168-.252-.222-.49-.459-.733-.691-.384.22-.744.454-1.126.642a3.706,3.706,0,0,1-2.445.306,2.5,2.5,0,0,1-2.11-1.994,2.661,2.661,0,0,1,1.12-2.783c.152-.117.315-.219.479-.333a2.459,2.459,0,0,1,2.713-3.876,2.606,2.606,0,0,1,1.88,2.182l-1.141.319a9.957,9.957,0,0,0-.722-.992,1,1,0,0,0-1.237-.187.923.923,0,0,0-.424,1.122,1.631,1.631,0,0,0,.323.686c.824.895,1.676,1.765,2.519,2.645Zm-.943,1.265c-.723-.7-1.386-1.346-2.061-1.981a.388.388,0,0,0-.322-.091,1.653,1.653,0,0,0-.956,1.537,1.376,1.376,0,0,0,1.216,1.233A2.922,2.922,0,0,0,96.617,15.686Z"/>
    <path d="M26.443,8.713h-3.9V7.239h9.376V8.707h-3.9V19.075H26.443Z"/>
    <path d="M135.4,19.179a.774.774,0,0,1-.845-.822.783.783,0,0,1,.8-.827.822.822,0,0,1,.854.835A.776.776,0,0,1,135.4,19.179Z"/>
  </g>
</svg>
