<svg xmlns="http://www.w3.org/2000/svg" width="150" height="150" viewBox="0 0 150 150">
  <title>thetoolbox</title>
  <g>
    <path d="M63.277,61.289h6.982v1.479H67.684v4.068H65.851V62.768H63.277Z"/>
    <path d="M77.257,64.8h-3.41v2.034H72.069V61.289h1.778v2.034h3.41V61.289h1.778v5.547H77.257Z"/>
    <path d="M87.315,66.836H81.243V61.289h6.079v1.479h-4.3V63.4h3.431v1.331H83.018v.63h4.3Z"/>
    <path d="M13.333,71.8H27.7v3.044H22.4v8.369H18.628V74.844H13.333Z"/>
    <path d="M70.017,71.8h3.652v8.369H82.2v3.044H70.017Z"/>
    <path d="M85.781,83.364V71.647c1.719-.121,3.956-.227,5.6-.227,6.177,0,7.866,1.522,7.866,3.468a2.632,2.632,0,0,1-1.993,2.557c1.355.427,2.3,1.2,2.3,2.6,0,2.023-1.995,3.545-8.179,3.545C89.737,83.6,87.5,83.487,85.781,83.364Zm9.814-8c0-.592-.928-.972-3.865-.972-.889,0-1.657.03-2.3.076V76.2c.64.016,1.385.016,2.3.016,3.09,0,3.865-.308,3.865-.857Zm.306,4.292c0-.547-.777-.851-4.171-.851-.912,0-1.657,0-2.3.014v1.735c.64.046,1.422.076,2.3.076,3.241,0,4.171-.384,4.171-.977Z"/>
    <path d="M102.6,77.506c0-3.469,3.272-6.086,8.179-6.086s8.157,2.617,8.157,6.086-3.28,6.1-8.164,6.1S102.6,80.976,102.6,77.506Zm12.524,0c0-1.857-1.979-2.968-4.352-2.968s-4.367,1.111-4.367,2.968,1.972,2.967,4.367,2.967,4.361-1.125,4.361-2.967Z"/>
    <path d="M132.019,77.445l4.648,3.313L134.508,83.6,129.1,79.621,123.9,83.6l-2.16-2.77,4.489-3.255-4.642-3.327,2.162-2.83,5.4,3.972,5.205-3.972,2.16,2.77Z"/>
    <path d="M57.673,73.67h0a5.58,5.58,0,1,1-6.461,4.53l.008-.049A5.584,5.584,0,0,1,57.673,73.67Zm-5.121-2.355a2.008,2.008,0,0,1-.567,1.472c-.267.19-.745.044-1.131-.272a1.364,1.364,0,0,0-1.7,1.922A1.606,1.606,0,0,1,49.377,76c-.073.24-.559.423-1.067.32A1.179,1.179,0,0,0,47.119,77.4a1.205,1.205,0,0,0,.725,1.443c.459.079.909.376.9.712.037.241-.23,1.154-.76,1.314a1.277,1.277,0,0,0-.437,1.541c.267.642.868,1.076,1.31.869a1.8,1.8,0,0,1,1.449.61c.214.226.07.7-.248,1.088a1.155,1.155,0,0,0,.371,1.586,1.173,1.173,0,0,0,1.551.111,1.714,1.714,0,0,1,1.561-.219c.238.073.4.6.32,1.067a1.163,1.163,0,0,0,1.106,1.148c.7.151,1.294-.138,1.4-.64s.946-.935,1.254-.992c.241-.037.647.347.81.766.16.534.832.724,1.519.482.642-.268,1.052-.825.869-1.312a1.794,1.794,0,0,1,.61-1.449c.2-.178.7-.068,1.088.249a1.114,1.114,0,0,0,1.563-.327,1.192,1.192,0,0,0,.133-1.6c-.384-.322-.338-1.234-.241-1.517.117-.325.6-.4,1.082-.364.544.124,1.039-.386,1.168-1.041.107-.711-.177-1.317-.682-1.422a2.061,2.061,0,0,1-.994-1.245c-.013-.286.355-.649.834-.832a1.171,1.171,0,0,0,.437-1.541c-.222-.619-.823-1.051-1.31-.87a1.908,1.908,0,0,1-1.432-.544,1.049,1.049,0,0,1,.232-1.154c.355-.355.177-1.066-.329-1.562a1.229,1.229,0,0,0-1.617-.089c-.318.386-1.235.337-1.518.241-.258-.138-.4-.6-.316-1.169.078-.457-.411-1-1.087-1.081-.7-.152-1.339.113-1.422.682a1.826,1.826,0,0,1-1.275.928c-.24.036-.626-.282-.786-.812a1.273,1.273,0,0,0-1.541-.436c-.644.265-1.076.866-.87,1.309Z" fill-rule="evenodd"/>
    <path d="M38.574,71.62h0a4.669,4.669,0,1,1-5.409,3.789l.007-.037A4.676,4.676,0,0,1,38.574,71.62Zm-4.287-1.971a1.676,1.676,0,0,1-.473,1.232c-.224.16-.626.037-.948-.228a1.143,1.143,0,0,0-1.42,1.609,1.33,1.33,0,0,1,.177,1.307c-.062.2-.469.356-.889.269a.984.984,0,0,0-1,.906,1,1,0,0,0,.606,1.208c.384.065.761.314.754.588.032.2-.192.967-.635,1.1a1.076,1.076,0,0,0-.368,1.291c.224.533.727.9,1.1.727a1.5,1.5,0,0,1,1.213.51c.177.188.056.589-.21.912a.962.962,0,0,0,.311,1.326.987.987,0,0,0,1.3.093,1.406,1.406,0,0,1,1.307-.178c.2.061.332.5.268.889a.972.972,0,0,0,.925.96c.583.126,1.084-.115,1.17-.533s.793-.784,1.049-.83c.2-.032.542.289.679.641.133.443.7.607,1.271.4.533-.224.889-.69.727-1.1a1.5,1.5,0,0,1,.51-1.212c.178-.143.589-.057.911.208a.929.929,0,0,0,1.308-.276c.379-.453.434-1.067.112-1.333s-.282-1.033-.2-1.27c.1-.272.505-.334.907-.306.455.105.869-.322.977-.869.089-.6-.153-1.1-.572-1.188a1.723,1.723,0,0,1-.832-1.049c-.011-.24.291-.542.7-.7s.568-.711.366-1.291c-.187-.517-.69-.88-1.1-.727a1.6,1.6,0,0,1-1.2-.455.875.875,0,0,1,.192-.965c.3-.3.153-.889-.274-1.309a1.029,1.029,0,0,0-1.353-.075c-.266.324-1.036.283-1.271.2-.217-.116-.334-.5-.265-.98.066-.382-.343-.834-.908-.905-.584-.126-1.122.1-1.19.573a1.524,1.524,0,0,1-1.067.775c-.2.03-.524-.235-.657-.679a1.058,1.058,0,0,0-1.293-.356c-.533.222-.9.724-.727,1.095Z" fill-rule="evenodd"/>
  </g>
</svg>
