<svg xmlns="http://www.w3.org/2000/svg" width="87.53" height="19.462" viewBox="0 0 87.53 19.462">
  <title>thetoolbox-l</title>
  <g>
    <path d="M35.445,0H40.4V1.05H38.573V3.937h-1.3V1.05H35.445Z"/>
    <path d="M45.367,2.493h-2.42V3.937H41.685V0h1.262V1.444h2.42V0h1.262V3.937H45.367Z"/>
    <path d="M52.505,3.937H48.2V0H52.51V1.05H49.455V1.5h2.436V2.44H49.455v.447h3.05Z"/>
    <path d="M0,7.46H10.194V9.62H6.437v5.94H3.758V9.62H0Z"/>
    <path d="M40.229,7.46h2.592V13.4h6.056v2.16H40.229Z"/>
    <path d="M51.416,15.667V7.351c1.22-.085,2.808-.161,3.975-.161,4.384,0,5.582,1.08,5.582,2.462a1.867,1.867,0,0,1-1.414,1.814c.961.3,1.632.853,1.632,1.848,0,1.436-1.416,2.516-5.8,2.516C54.224,15.836,52.636,15.754,51.416,15.667Zm6.966-5.678c0-.42-.659-.69-2.744-.69-.631,0-1.176.021-1.63.054v1.23c.454.011.983.011,1.63.011,2.193,0,2.744-.218,2.744-.608Zm.217,3.046c0-.389-.552-.605-2.961-.605-.647,0-1.176,0-1.63.011v1.231c.454.033,1.01.054,1.63.054,2.3,0,2.961-.272,2.961-.694Z"/>
    <path d="M63.35,11.509c0-2.462,2.321-4.319,5.8-4.319s5.789,1.857,5.789,4.319-2.328,4.327-5.794,4.327S63.35,13.972,63.35,11.509Zm8.888,0c0-1.317-1.4-2.106-3.089-2.106s-3.1.789-3.1,2.106,1.4,2.106,3.1,2.106,3.095-.8,3.095-2.106Z"/>
    <path d="M84.232,11.466l3.3,2.351L86,15.836l-3.836-2.825-3.693,2.825L76.936,13.87l3.186-2.31L76.827,9.2,78.362,7.19,82.2,10.009,85.889,7.19l1.533,1.966Z"/>
    <path d="M31.468,8.787h0A3.96,3.96,0,1,1,26.882,12l.007-.035A3.963,3.963,0,0,1,31.468,8.787ZM27.834,7.116a1.426,1.426,0,0,1-.4,1.044c-.189.135-.529.032-.8-.193a.818.818,0,0,0-1.1.28.818.818,0,0,0-.108,1.084,1.14,1.14,0,0,1,.155,1.108c-.052.171-.4.3-.757.227a.837.837,0,0,0-.845.769.855.855,0,0,0,.514,1.024c.326.056.645.267.639.505.026.172-.163.819-.539.933a.906.906,0,0,0-.31,1.094c.189.455.615.763.93.617a1.271,1.271,0,0,1,1.028.433c.151.16.049.5-.177.772a.82.82,0,0,0,.264,1.125.831.831,0,0,0,1.1.079,1.218,1.218,0,0,1,1.108-.156c.169.052.283.428.227.757a.828.828,0,0,0,.785.816c.494.107.919-.1.992-.455s.671-.663.89-.7c.171-.026.459.246.575.544.114.379.591.514,1.078.342.455-.19.747-.585.617-.931a1.269,1.269,0,0,1,.433-1.029c.142-.126.5-.048.772.177a.79.79,0,0,0,1.109-.232.847.847,0,0,0,.095-1.136c-.273-.228-.24-.875-.172-1.076.083-.231.428-.284.768-.259.387.089.737-.274.83-.738.075-.5-.127-.935-.485-1.009a1.466,1.466,0,0,1-.7-.884c-.009-.2.252-.46.591-.59a.831.831,0,0,0,.311-1.094c-.158-.439-.584-.746-.93-.617A1.36,1.36,0,0,1,35.3,9.357a.743.743,0,0,1,.164-.819c.252-.253.126-.757-.233-1.11a.873.873,0,0,0-1.147-.063c-.226.274-.877.24-1.078.172-.183-.1-.283-.427-.225-.83.056-.325-.291-.707-.771-.768-.493-.107-.95.081-1.009.485a1.3,1.3,0,0,1-.905.659c-.17.025-.444-.2-.558-.577A.9.9,0,0,0,28.444,6.2c-.456.188-.763.614-.617.929Z" fill-rule="evenodd"/>
    <path d="M17.913,7.333h0a3.313,3.313,0,1,1-3.838,2.688l.005-.026A3.316,3.316,0,0,1,17.913,7.333Zm-3.042-1.4a1.189,1.189,0,0,1-.336.875c-.159.113-.444.026-.672-.162a.681.681,0,0,0-.918.235.688.688,0,0,0-.091.907.943.943,0,0,1,.127.928c-.045.142-.334.252-.631.19a.7.7,0,0,0-.707.644.713.713,0,0,0,.43.856c.273.047.54.224.535.418.023.144-.136.687-.45.781a.761.761,0,0,0-.261.916c.159.379.516.639.779.516a1.067,1.067,0,0,1,.861.363c.126.133.04.417-.149.647a.683.683,0,0,0,.221.941.7.7,0,0,0,.921.066,1,1,0,0,1,.928-.126c.141.042.236.358.19.631a.69.69,0,0,0,.656.681c.414.09.77-.082.831-.379s.562-.556.744-.589c.144-.023.385.206.482.456.095.314.5.43.9.285.379-.159.631-.49.516-.779a1.063,1.063,0,0,1,.363-.86c.126-.1.417-.041.646.147a.658.658,0,0,0,.928-.2c.269-.322.308-.757.08-.947s-.2-.733-.144-.9c.071-.193.358-.237.643-.217.324.075.618-.228.694-.617.064-.426-.108-.783-.406-.843a1.22,1.22,0,0,1-.59-.744c-.008-.17.207-.385.5-.5s.4-.5.259-.916c-.132-.367-.489-.624-.778-.516a1.135,1.135,0,0,1-.849-.323.619.619,0,0,1,.136-.685c.215-.215.109-.631-.194-.929A.731.731,0,0,0,20.1,6.14c-.189.23-.735.2-.9.144-.154-.082-.237-.357-.188-.695.047-.272-.243-.592-.645-.643-.414-.089-.8.069-.844.407a1.086,1.086,0,0,1-.757.55c-.144.021-.372-.167-.467-.482a.749.749,0,0,0-.917-.252c-.379.157-.639.513-.516.777Z" fill-rule="evenodd"/>
  </g>
</svg>
