<svg xmlns="http://www.w3.org/2000/svg" width="131.431" height="15.172" viewBox="0 0 131.431 15.172">
  <title>vgb-l</title>
  <path d="M99.525,2.8h5.415a1.222,1.222,0,0,1,.765,1.292,1.191,1.191,0,0,1-.765,1.054H99.525Zm0,8.373V8.8h6.18a1.3,1.3,0,0,1,0,2.372ZM67.234,2.8V0H52.919c-2.2,0-3.781.212-5.262,1.8a5.432,5.432,0,0,0-1.589,4.15v5.225a4.7,4.7,0,0,0,1.513,2.736c1.537,1.487,3.425,1.251,5.338,1.251h8.458c2.048,0,3.525.077,4.785-1.4a4.015,4.015,0,0,0,1.072-2.584V5.947H61.377V8.8a2.635,2.635,0,0,1-.765,1.454,2.84,2.84,0,0,1-2.431.918H55.5a2.185,2.185,0,0,1-2.125-.918,2.124,2.124,0,0,1-.459-1.76V5.947a2.459,2.459,0,0,1,.765-2.391A2.406,2.406,0,0,1,55.656,2.8Zm1.036,0H90.243V0H68.27ZM112.021,0h19.41V2.8H113.78a2.952,2.952,0,0,0-.459-1.538A2.961,2.961,0,0,0,112.021,0ZM92.444,0h17.145a3.139,3.139,0,0,1,3.043,3.25,2.918,2.918,0,0,1-1.759,2.7,4.631,4.631,0,0,1,2.678,4.612,4.757,4.757,0,0,1-3.962,4.6H92.444Zm38.987,15.159h-7.463V12.885h-3.207v-.817h3.207V9.153h-3.207V8.279h3.207V5.947h7.463V7.579h-4.49V9.8h4.49v1.632h-4.49v2.1h4.49Zm-18.263,0a6.3,6.3,0,0,0,2.125-4.6,5.776,5.776,0,0,0-2.125-4.612h9.665V7.579h-4.548V9.8h4.548v1.632h-4.548v2.1h4.548v1.633Zm-28.776,0H76.929V12.885H73.722v-.817h3.207V9.153H73.722V8.279h3.207V5.947h7.463V7.579H79.9V9.8h4.49v1.632H79.9v2.1h4.49Zm-18.084,0a5.215,5.215,0,0,0,1.749-1.633,5.187,5.187,0,0,0,.233-2.1l-.02-5.48h8.046V7.579H71.769V9.8h4.547v1.632H71.769v2.1h4.547v1.633Zm-28.292,0H30.553V12.885H27.346v-.817h3.207V9.153H27.346V8.279h3.207V5.947h7.463V7.579h-4.49V9.8h4.49v1.632h-4.49v2.1h4.49Zm-19.125,0V9.8l2.682-3.848H29.62V7.579H25.072V9.8H29.62v1.632H25.072v2.1H29.62v1.633ZM0,0H8.163l5.364,9.561L19.824,0H46.846a7.665,7.665,0,0,0-1.633,1.4,7.632,7.632,0,0,0-1.05,1.4H22.273L14.11,15.159H8.163Z" fill-rule="evenodd"/>
</svg>
